<?xml version="1.0" standalone="no"?>
<!DOCTYPE svg PUBLIC "-//W3C//DTD SVG 20010904//EN"
 "http://www.w3.org/TR/2001/REC-SVG-20010904/DTD/svg10.dtd">
<svg version="1.0" xmlns="http://www.w3.org/2000/svg"
 width="750.000000pt" height="1595.000000pt" viewBox="0 0 750.000000 1595.000000"
 preserveAspectRatio="xMidYMid meet">

<g transform="translate(0.000000,1595.000000) scale(0.100000,-0.100000)"
fill="#000000" stroke="none">
<path d="M4168 15920 c-144 -17 -261 -74 -364 -175 -96 -96 -170 -210 -219
-342 -30 -78 -31 -85 -47 -176 -9 -53 -8 -71 1 -76 10 -6 14 -101 4 -101 -2 0
-8 11 -13 24 -10 28 -56 47 -86 35 -12 -4 -33 -31 -48 -60 -65 -132 -4 -343
118 -403 17 -9 26 -16 19 -16 -15 0 -9 -45 22 -165 63 -245 76 -521 37 -800
-23 -170 -51 -281 -94 -375 -38 -85 -44 -134 -18 -160 33 -33 24 -46 -40 -63
-73 -21 -80 -21 -80 -2 0 13 -4 14 -22 4 -13 -7 -50 -14 -83 -16 -33 -2 -80
-7 -105 -12 -29 -6 -62 -6 -90 0 -24 6 -69 7 -99 4 -117 -13 -309 -58 -382
-89 -84 -36 -199 -110 -255 -164 -109 -106 -222 -301 -264 -457 -31 -112 -38
-324 -17 -477 25 -175 25 -180 16 -235 -6 -28 -45 -152 -89 -275 -91 -259
-136 -423 -150 -551 -12 -106 -34 -159 -87 -219 -22 -24 -49 -56 -62 -73 -12
-16 -59 -70 -104 -119 -140 -151 -226 -287 -282 -446 -45 -128 -154 -357 -193
-408 -26 -35 -45 -65 -94 -152 -23 -39 -106 -182 -182 -310 -27 -47 -86 -141
-131 -210 -102 -158 -154 -245 -202 -341 -34 -67 -144 -244 -172 -276 -25 -27
-49 -77 -44 -89 5 -15 -68 -127 -123 -189 l-36 -40 20 35 c11 19 25 48 31 63
l11 27 -50 -37 c-28 -21 -60 -57 -75 -85 -26 -48 -26 -50 -20 -186 8 -170 12
-253 14 -269 1 -7 22 -24 49 -40 26 -15 70 -46 97 -69 56 -47 124 -84 154 -84
11 0 36 -9 55 -21 42 -25 56 -19 56 25 0 25 6 35 25 44 15 7 36 34 53 69 15
32 33 62 39 66 7 4 13 18 13 30 0 18 -2 19 -10 7 -13 -19 -12 -7 1 65 6 33 18
64 26 70 14 10 13 13 -1 28 -20 19 -14 70 12 109 72 107 90 141 106 198 23 85
31 195 18 244 -10 34 -8 45 15 90 67 134 234 354 398 525 49 52 151 140 225
196 274 207 445 372 570 550 47 66 115 158 151 205 132 168 154 207 184 335
25 105 43 146 180 420 84 167 166 323 182 347 46 67 73 124 104 223 39 125 47
188 55 435 6 213 6 216 -21 320 -39 149 -54 228 -55 281 0 29 -6 51 -15 59
-13 11 -15 8 -15 -15 0 -16 -3 -26 -6 -22 -4 3 -6 56 -5 117 2 93 0 110 -14
110 -19 0 -19 14 1 31 8 7 22 26 30 42 14 25 20 28 50 25 19 -2 34 0 34 4 0 4
11 8 25 8 20 0 25 -5 25 -25 0 -13 -6 -28 -14 -32 -18 -10 -62 -150 -71 -221
-5 -47 -2 -62 33 -140 22 -48 45 -104 51 -124 14 -42 21 -45 56 -22 24 16 25
16 25 -8 0 -13 -7 -33 -15 -44 -21 -27 -18 -78 6 -125 25 -51 32 -141 12 -180
-14 -29 -10 -69 8 -69 5 0 9 -20 9 -45 0 -26 7 -57 17 -71 16 -24 15 -28 -1
-59 -10 -18 -15 -38 -12 -44 4 -6 1 -9 -7 -6 -9 4 -17 -10 -26 -45 -12 -45
-11 -53 5 -78 13 -20 19 -23 22 -12 3 9 10 -2 17 -25 12 -42 8 -86 -5 -49 -4
10 -7 -114 -6 -276 2 -505 -2 -594 -29 -644 -26 -48 -48 -145 -75 -335 -11
-69 -32 -174 -49 -233 -16 -60 -27 -108 -24 -108 4 0 -1 -8 -10 -18 -9 -10
-20 -34 -23 -53 -7 -34 -29 -75 -50 -94 -58 -51 -185 -255 -241 -388 -47 -110
-101 -298 -157 -537 -13 -58 -43 -177 -66 -265 -23 -88 -47 -178 -52 -200 -5
-22 -13 -56 -18 -75 -13 -48 -77 -417 -100 -570 -23 -154 -47 -446 -55 -645
-3 -82 -8 -213 -11 -290 -3 -78 0 -228 7 -340 26 -392 13 -571 -56 -780 l-36
-110 4 -170 c6 -187 24 -280 76 -390 28 -59 43 -79 114 -143 63 -57 131 -171
160 -267 73 -246 218 -500 422 -740 70 -83 91 -112 174 -249 162 -266 277
-537 361 -851 12 -44 36 -123 53 -175 30 -89 32 -104 32 -240 0 -130 -3 -154
-27 -230 -15 -47 -37 -130 -49 -185 -26 -117 -81 -234 -140 -293 -23 -24 -39
-34 -39 -26 0 23 -19 7 -50 -43 -15 -24 -47 -57 -70 -74 -23 -17 -39 -33 -36
-36 3 -3 -16 -22 -42 -41 -26 -20 -49 -40 -51 -46 -2 -5 -14 -19 -26 -30 -67
-65 -99 -154 -69 -193 7 -10 14 -32 14 -48 1 -94 108 -114 301 -57 43 13 82
18 112 15 64 -8 121 22 174 91 55 72 65 93 103 216 43 140 148 341 228 438
122 148 191 208 411 357 90 61 141 118 182 201 42 85 38 147 -13 231 -39 64
-80 95 -178 137 -130 57 -160 93 -247 297 -135 318 -228 599 -259 783 -64 378
-82 457 -139 581 -7 17 -20 46 -28 65 -20 45 -197 354 -217 377 -8 10 -44 57
-78 106 -67 92 -100 117 -155 117 -31 0 -36 5 -74 73 -22 39 -46 95 -53 122
-6 28 -14 56 -16 64 -3 8 1 11 11 8 10 -4 16 3 19 26 31 192 46 253 127 512
41 130 71 206 136 345 42 90 122 290 151 380 34 101 89 288 107 360 18 72 59
206 80 261 31 82 38 181 35 532 l-1 197 -56 0 c-185 0 -302 89 -337 255 -51
241 -66 322 -63 340 5 29 37 -80 37 -125 0 -55 44 -196 76 -242 16 -22 43 -48
62 -56 28 -14 31 -18 18 -27 -14 -10 -14 -14 0 -33 8 -12 34 -32 56 -43 34
-17 55 -20 121 -17 l80 3 47 54 c46 52 70 60 70 23 0 -9 14 7 30 36 17 29 35
50 39 47 5 -2 15 -25 22 -50 7 -25 19 -45 27 -45 8 0 4 -12 -12 -33 -41 -54
-43 -89 -8 -144 16 -27 35 -66 42 -88 6 -22 15 -49 20 -60 27 -64 51 -163 76
-320 9 -55 23 -136 31 -180 9 -44 21 -114 28 -155 14 -80 15 -82 38 -175 9
-33 23 -107 33 -165 11 -72 25 -120 44 -155 16 -27 33 -77 40 -110 6 -33 18
-80 25 -105 31 -99 46 -238 51 -470 2 -129 9 -260 14 -290 30 -174 74 -306
101 -304 15 1 33 -29 94 -156 29 -60 104 -278 130 -379 19 -75 43 -126 77
-162 66 -71 67 -74 62 -162 -4 -54 -1 -105 9 -149 15 -68 15 -68 -8 -68 -30 0
-40 -27 -71 -178 -14 -70 -30 -145 -34 -167 -25 -115 12 -555 56 -657 13 -32
35 -86 50 -120 14 -35 40 -97 59 -138 87 -194 138 -441 137 -658 -1 -173 -15
-233 -89 -393 -29 -64 -54 -132 -55 -150 -1 -53 13 -119 34 -161 25 -48 20
-79 -38 -255 -49 -150 -93 -242 -156 -328 -77 -107 -108 -174 -108 -239 0 -17
-7 -49 -15 -71 -30 -85 -11 -175 47 -218 31 -23 91 -14 125 19 20 20 22 30 19
91 -2 37 -7 84 -12 103 -4 19 -3 31 2 27 4 -4 13 -40 19 -79 6 -42 16 -73 23
-76 11 -3 12 11 6 69 -3 41 -4 71 0 68 4 -4 11 -49 17 -100 13 -129 47 -173
104 -135 21 14 25 25 25 62 0 40 2 44 15 30 8 -8 15 -26 15 -39 0 -25 36 -57
63 -57 16 0 57 41 57 58 0 18 18 14 40 -8 25 -25 52 -26 74 -2 12 14 17 45 21
122 3 57 7 106 10 108 6 6 10 -73 7 -132 -2 -39 24 -76 53 -76 39 0 95 97 95
165 0 45 13 83 32 96 10 7 21 76 19 124 -1 17 -13 52 -27 79 -21 43 -24 58
-18 105 4 34 14 64 26 78 21 23 21 56 2 271 -5 64 -4 76 13 95 51 59 58 173
18 311 -14 49 -30 142 -37 211 -12 140 -7 207 58 725 50 396 54 426 64 520 5
47 16 137 24 200 22 169 30 417 17 534 -6 55 -23 149 -37 210 -14 61 -39 167
-55 236 -16 69 -34 142 -39 162 -6 20 -12 103 -15 185 -5 161 -22 314 -81 701
-4 23 -10 32 -24 32 -13 0 -22 9 -26 25 -9 35 1 128 21 195 34 117 56 313 76
670 30 530 37 750 34 1065 -3 278 -3 281 -33 385 -16 58 -35 119 -42 135 -35
88 -100 401 -100 483 0 67 11 143 45 302 40 193 56 310 59 425 1 64 11 152 23
210 40 189 65 358 66 434 1 67 -7 197 -29 506 -16 230 10 463 63 548 24 38 53
134 53 173 0 26 43 135 106 272 25 53 52 117 60 142 8 25 19 54 24 65 9 21 36
125 76 295 21 89 25 132 26 285 2 182 -3 223 -47 388 -8 32 -15 75 -15 95 0
20 -7 55 -15 77 -13 37 -21 114 -10 104 2 -3 20 -50 40 -105 45 -126 65 -164
88 -164 21 0 36 35 45 105 l6 50 7 -40 c4 -22 4 -87 1 -145 -10 -150 0 -311
31 -495 35 -210 56 -275 167 -510 29 -61 62 -137 75 -170 12 -33 44 -105 70
-160 84 -179 115 -299 140 -545 l14 -135 64 -125 c36 -69 99 -204 140 -301 42
-97 95 -217 118 -265 22 -49 50 -114 62 -144 11 -30 57 -129 102 -220 46 -91
92 -185 103 -210 30 -66 145 -449 158 -525 4 -22 13 -54 21 -72 30 -72 9 -129
-70 -195 -52 -43 -107 -144 -107 -196 0 -29 2 -33 15 -22 8 7 15 11 15 9 0 -2
-7 -39 -15 -81 -10 -51 -31 -109 -65 -176 -81 -159 -87 -259 -18 -296 34 -19
37 -19 62 -2 15 9 36 38 48 64 31 68 72 159 102 224 15 31 47 81 71 110 33 40
43 60 38 76 -6 24 11 31 20 8 3 -8 -15 -42 -40 -77 -50 -68 -50 -64 15 -100
23 -13 34 -31 51 -85 25 -76 56 -140 70 -146 5 -1 25 -46 44 -98 28 -77 36
-113 40 -193 4 -93 3 -99 -17 -107 -38 -15 -79 -67 -78 -100 0 -23 -6 -33 -26
-44 -15 -8 -44 -32 -65 -54 -30 -31 -38 -46 -35 -68 3 -30 6 -31 61 -18 20 5
27 3 27 -8 0 -8 9 -23 20 -33 20 -18 21 -18 53 12 17 17 52 43 77 58 68 41
108 83 148 155 20 36 51 87 69 114 18 27 36 59 39 72 4 14 -12 77 -41 163 -46
139 -46 142 -40 234 6 86 5 98 -20 156 -22 52 -28 87 -35 209 -6 81 -14 172
-19 202 -6 30 -13 102 -16 160 -7 104 -16 165 -55 370 -38 194 -80 524 -95
730 -19 260 -29 344 -61 505 -29 146 -50 223 -69 245 -7 8 -24 56 -38 105 -28
101 -89 272 -115 325 -22 46 -135 219 -159 245 -39 42 -65 87 -87 152 -24 70
-71 261 -80 323 -2 19 -9 49 -14 67 -6 17 -8 34 -4 37 3 3 0 6 -6 6 -6 0 -14
10 -18 23 -4 12 -40 99 -81 192 -95 219 -89 205 -102 240 -6 18 -12 155 -14
335 l-3 305 -32 115 c-61 217 -146 354 -337 545 -84 85 -127 120 -183 149
-103 53 -118 57 -287 66 -142 9 -195 14 -273 26 -29 4 -32 7 -20 21 11 13 7
20 -26 48 -22 18 -94 61 -160 95 -121 62 -231 132 -342 214 -52 40 -59 42 -71
28 -7 -10 -13 -44 -14 -77 l-1 -60 -9 55 c-4 30 -10 138 -12 240 -5 213 -12
240 -59 240 -18 1 -44 7 -57 14 -13 7 -33 11 -43 8 -10 -2 -26 2 -36 11 -22
19 -55 25 -181 32 -63 3 -114 11 -130 20 -14 8 -51 24 -81 35 -30 11 -60 28
-66 38 -10 16 -8 18 23 20 32 3 144 -31 170 -51 7 -5 39 -10 72 -11 33 -2 66
-8 74 -14 18 -15 212 -26 252 -14 43 12 78 79 81 157 2 42 7 60 16 60 7 0 21
14 30 30 17 30 25 28 9 -3 -5 -9 -11 -42 -13 -74 -4 -55 -4 -56 17 -42 40 26
61 115 66 277 0 21 3 36 7 33 7 -8 41 48 63 104 10 25 19 38 19 30 2 -20 28
49 29 75 1 17 -1 17 -9 5 -11 -18 -11 -17 -14 38 -1 31 1 41 11 38 15 -6 17 8
4 32 -5 10 -3 41 5 77 7 33 16 108 20 166 5 87 3 113 -9 138 -9 17 -11 28 -5
25 18 -12 2 132 -27 230 -14 48 -41 112 -60 141 -67 106 -237 201 -390 220
-27 4 -61 8 -75 9 -14 2 -55 0 -92 -4z m65 -717 c-7 -18 -22 -4 -28 26 -4 23
-4 23 15 6 10 -9 16 -24 13 -32z m-173 -3 c13 -9 13 -10 0 -10 -8 0 -22 5 -30
10 -13 9 -13 10 0 10 8 0 22 -5 30 -10z m462 -40 c5 0 8 -6 5 -13 -10 -27 72
-163 108 -177 19 -8 19 -9 -2 -9 -26 -1 -29 -11 -11 -29 15 -15 3 -16 -23 -2
-17 10 -19 7 -19 -32 0 -24 -5 -50 -11 -58 -9 -13 -10 -12 -5 3 3 10 2 39 -4
65 -5 26 -12 64 -15 85 -4 28 -10 37 -20 33 -12 -4 -13 -2 -3 14 8 13 9 22 1
32 -6 7 -13 40 -15 73 -3 33 -3 50 -1 38 2 -13 9 -23 15 -23z m-292 10 c0 -5
-17 -9 -37 -9 l-38 2 35 7 c19 4 36 8 38 9 1 0 2 -3 2 -9z m175 -39 c-3 -7
-12 -10 -18 -9 -7 1 -22 -3 -34 -10 -13 -7 -23 -9 -23 -4 0 5 14 15 30 22 17
7 30 17 30 23 0 8 3 8 11 0 6 -6 8 -16 4 -22z m345 -24 c0 -6 10 -21 22 -34
12 -13 17 -23 12 -22 -18 1 -79 27 -65 28 9 1 12 10 9 31 -4 24 -2 27 9 19 7
-7 13 -16 13 -22z m-53 -33 c-3 -3 -12 -4 -19 -1 -8 3 -5 6 6 6 11 1 17 -2 13
-5z m-1229 -45 c-6 -16 -12 -28 -15 -25 -8 8 8 66 17 61 5 -3 4 -19 -2 -36z
m502 11 c0 -5 -4 -10 -10 -10 -5 0 -10 5 -10 10 0 6 5 10 10 10 6 0 10 -4 10
-10z m273 -27 c-7 -2 -19 -2 -25 0 -7 3 -2 5 12 5 14 0 19 -2 13 -5z m158 -36
c-16 -16 -26 0 -10 19 9 11 15 12 17 4 2 -6 -1 -17 -7 -23z m-733 -50 c-16
-13 -24 -15 -34 -6 -19 15 -18 29 3 49 17 15 19 15 35 -4 17 -20 16 -22 -4
-39z m684 37 c-12 -8 -29 -30 -36 -47 -8 -18 -15 -25 -15 -15 -1 19 46 78 62
78 6 0 1 -7 -11 -16z m-835 -56 c-3 -8 -6 -5 -6 6 -1 11 2 17 5 13 3 -3 4 -12
1 -19z m937 -4 c22 -8 20 -24 -2 -24 -10 0 -23 -5 -30 -12 -9 -9 -12 -9 -12 0
0 7 5 12 10 12 6 0 10 7 10 15 0 17 2 18 24 9z m-71 -19 c-3 -9 -8 -14 -10
-11 -3 3 -2 9 2 15 9 16 15 13 8 -4z m147 -3 c-8 -3 -20 -12 -27 -21 -7 -9
-13 -12 -13 -7 0 16 32 46 43 39 7 -4 6 -8 -3 -11z m-755 -22 c-3 -5 -11 -10
-16 -10 -6 0 -7 5 -4 10 3 6 11 10 16 10 6 0 7 -4 4 -10z m-135 -50 c5 0 10 8
12 17 2 13 10 7 28 -22 40 -65 43 -71 16 -42 -30 33 -40 34 -33 5 4 -12 2 -27
-2 -32 -5 -6 -14 -54 -21 -107 -8 -73 -8 -102 1 -125 9 -22 13 -25 16 -11 7
27 23 20 23 -10 1 -16 7 -50 14 -78 11 -43 20 -55 61 -83 27 -18 54 -31 62
-28 8 3 13 -2 13 -14 0 -10 9 -22 20 -25 24 -8 17 -25 -11 -25 -25 0 -25 -30
1 -37 20 -5 28 -23 11 -23 -5 0 -16 -2 -24 -6 -18 -7 -32 53 -17 72 12 14 7
18 -33 28 -45 11 -104 72 -128 134 -21 52 -23 75 -24 252 0 107 1 187 3 178 2
-10 7 -18 12 -18z m635 20 c3 -5 -1 -10 -9 -10 -9 0 -16 5 -16 10 0 6 4 10 9
10 6 0 13 -4 16 -10z m-750 -39 c3 -6 -7 -9 -22 -8 -23 2 -28 -3 -34 -28 -5
-22 -7 -24 -8 -8 0 12 -4 28 -7 37 -5 13 1 16 29 16 20 0 38 -4 42 -9z m72
-143 c-3 -8 -6 -5 -6 6 -1 11 2 17 5 13 3 -3 4 -12 1 -19z m823 -9 c36 -5 83
-21 106 -34 30 -17 44 -21 52 -13 8 8 9 5 6 -9 -3 -11 1 -27 10 -36 9 -8 16
-22 16 -29 0 -10 -2 -11 -8 0 -5 7 -16 10 -25 6 -13 -4 -17 -1 -17 14 0 27
-58 71 -107 83 -21 5 -69 10 -108 11 -53 1 -63 3 -40 8 43 11 44 11 115 -1z
m-239 -332 c-8 -8 -11 3 -11 35 0 71 14 94 18 29 2 -30 -2 -59 -7 -64z m9 -37
c0 -5 -7 -10 -15 -10 -8 0 -15 5 -15 10 0 6 7 10 15 10 8 0 15 -4 15 -10z
m337 -387 c-3 -10 -5 -2 -5 17 0 19 2 27 5 18 2 -10 2 -26 0 -35z m-669 -323
c7 -11 8 -20 2 -20 -5 0 -14 9 -20 20 -6 11 -7 20 -3 20 5 0 14 -9 21 -20z
m-78 -50 c0 -11 -4 -20 -10 -20 -5 0 -10 9 -10 20 0 11 5 20 10 20 6 0 10 -9
10 -20z m965 -305 c29 -11 29 -12 7 -19 -17 -6 -30 -1 -55 20 -29 25 -30 26
-7 19 14 -4 39 -13 55 -20z m-632 -52 c-14 -38 -36 -78 -49 -91 -13 -13 -24
-27 -24 -33 0 -6 -22 -9 -51 -8 -37 2 -53 7 -60 21 -6 12 -6 18 1 18 5 0 10
-4 10 -9 0 -14 25 -20 52 -13 l23 6 -25 6 c-40 9 -29 32 22 47 48 14 88 53
103 101 3 12 10 22 15 22 4 0 -3 -30 -17 -67z m57 -7 c0 -3 -4 -8 -10 -11 -5
-3 -10 -1 -10 4 0 6 5 11 10 11 6 0 10 -2 10 -4z m13 -43 c-7 -2 -19 -2 -25 0
-7 3 -2 5 12 5 14 0 19 -2 13 -5z m597 -53 c-6 -11 -13 -20 -15 -20 -3 0 -5 9
-5 20 0 11 7 20 15 20 13 0 14 -4 5 -20z m-862 -13 c2 -12 -1 -15 -12 -11 -19
7 -22 38 -3 32 6 -3 13 -12 15 -21z m749 17 c-3 -3 -12 -4 -19 -1 -8 3 -5 6 6
6 11 1 17 -2 13 -5z m-1442 -95 c85 1 71 -15 -20 -23 -180 -16 -195 -16 -195
-7 0 15 91 41 120 34 14 -3 57 -5 95 -4z m432 -35 c-3 -3 -12 -4 -19 -1 -8 3
-5 6 6 6 11 1 17 -2 13 -5z m-397 -18 c0 -8 -15 -17 -36 -21 -40 -7 -49 -3
-41 20 8 20 77 21 77 1z m1515 -81 l50 -13 -55 5 c-30 4 -66 10 -80 14 -24 7
-24 7 5 7 17 0 53 -6 80 -13z m-862 -12 c-7 -2 -21 -2 -30 0 -10 3 -4 5 12 5
17 0 24 -2 18 -5z m177 -13 c-19 -13 -30 -13 -30 0 0 6 10 10 23 10 18 0 19
-2 7 -10z m-475 -100 c-3 -5 -12 -10 -18 -10 -7 0 -6 4 3 10 19 12 23 12 15 0z
m-770 -69 c-3 -6 -11 -11 -17 -11 -6 0 -6 6 2 15 14 17 26 13 15 -4z m1980
-16 l50 -14 -50 6 c-27 3 -68 9 -90 13 l-40 8 40 0 c22 0 63 -6 90 -13z m-690
-5 c-3 -5 -25 -10 -48 -9 -33 0 -38 2 -22 9 28 12 78 12 70 0z m-428 -46 c-3
-3 -12 -4 -19 -1 -8 3 -5 6 6 6 11 1 17 -2 13 -5z m420 -56 c-3 -8 -6 -5 -6 6
-1 11 2 17 5 13 3 -3 4 -12 1 -19z m-550 -34 c-16 -9 -31 -13 -34 -10 -3 3 5
10 18 15 37 15 47 12 16 -5z m1893 4 c23 -28 70 -91 70 -94 0 -9 -8 -2 -59 51
-34 34 -48 55 -38 55 9 0 21 -6 27 -12z m-155 -28 c21 -24 24 -82 5 -105 -19
-23 -30 -18 -20 10 6 17 5 37 -5 66 -8 23 -15 43 -15 45 0 11 19 2 35 -16z
m-1226 -96 c2 -2 -12 -4 -33 -4 -22 0 -35 4 -31 10 5 9 52 4 64 -6z m1338 -41
c-3 -27 -13 -73 -22 -103 -18 -58 -23 -199 -10 -315 5 -51 3 -67 -17 -105 -16
-31 -31 -46 -51 -51 l-27 -7 17 28 c15 26 15 30 -2 66 -10 21 -18 54 -19 75 0
21 -4 35 -9 32 -5 -3 -5 11 -2 30 10 51 1 60 -41 42 -32 -13 -34 -13 -25 3 7
13 4 23 -11 40 -19 19 -20 22 -4 22 9 0 26 -5 38 -11 17 -9 25 -6 49 17 36 34
39 82 7 124 l-22 30 21 29 c12 15 28 45 37 65 14 33 18 36 56 36 l42 0 -5 -47z
m-1277 -74 c0 -11 -4 -17 -10 -14 -5 3 -10 13 -10 21 0 8 5 14 10 14 6 0 10
-9 10 -21z m-540 1 c-8 -5 -19 -10 -25 -10 -5 0 -3 5 5 10 8 5 20 10 25 10 6
0 3 -5 -5 -10z m279 -93 c13 -77 14 -217 1 -237 -7 -12 -12 -12 -22 -2 -14 14
-25 234 -14 278 11 41 23 27 35 -39z m166 -197 c3 -5 1 -10 -4 -10 -6 0 -11 5
-11 10 0 6 2 10 4 10 3 0 8 -4 11 -10z m192 -222 c-3 -8 -6 -5 -6 6 -1 11 2
17 5 13 3 -3 4 -12 1 -19z m1028 2 c3 -5 1 -10 -4 -10 -6 0 -11 5 -11 10 0 6
2 10 4 10 3 0 8 -4 11 -10z m135 -106 c0 -20 -8 -17 -68 22 -2 1 2 13 9 25
l12 23 23 -28 c13 -15 24 -34 24 -42z m-456 -590 c16 -6 23 -34 9 -34 -5 1
-24 9 -43 20 -34 19 -34 19 -8 20 14 0 33 -3 42 -6z m-1287 -139 c-15 -14 -32
-25 -37 -25 -17 0 2 31 24 40 37 15 42 10 13 -15z m433 -79 c0 -8 -4 -18 -10
-21 -5 -3 -10 3 -10 14 0 12 5 21 10 21 6 0 10 -6 10 -14z m-450 -99 c0 -2
-14 -16 -32 -33 -18 -16 -26 -20 -18 -9 19 25 50 52 50 42z m405 -201 c-8 -42
-24 -50 -18 -8 7 39 13 56 19 49 3 -3 2 -21 -1 -41z m2531 -1 c7 -29 1 -41
-15 -30 -14 8 -14 55 -1 55 5 0 12 -11 16 -25z m-2551 -205 c3 -5 1 -10 -4
-10 -6 0 -11 5 -11 10 0 6 2 10 4 10 3 0 8 -4 11 -10z m2315 -25 c0 -2 -10
-10 -22 -16 -21 -11 -22 -11 -9 4 13 16 31 23 31 12z m-4415 -75 c3 -5 0 -10
-9 -10 -8 0 -23 -3 -33 -6 -16 -5 -16 -4 1 10 23 19 32 20 41 6z m66 -27 c13
-16 12 -17 -3 -4 -10 7 -18 15 -18 17 0 8 8 3 21 -13z m1939 -557 c0 -3 -4 -8
-10 -11 -5 -3 -10 -1 -10 4 0 6 5 11 10 11 6 0 10 -2 10 -4z m-1193 -318 c-3
-7 -5 -2 -5 12 0 14 2 19 5 13 2 -7 2 -19 0 -25z m743 -268 c0 -5 -4 -10 -10
-10 -5 0 -10 5 -10 10 0 6 5 10 10 10 6 0 10 -4 10 -10z m-587 -157 c2 -5 7
-26 11 -48 l7 -40 -26 28 c-27 31 -33 67 -11 67 8 0 17 -3 19 -7z m-8 -238 c0
-26 -21 -30 -28 -6 -2 11 -2 22 1 26 11 10 27 -2 27 -20z m1470 -239 c-11 -7
-31 -16 -45 -20 -19 -5 -16 -2 10 13 40 23 65 28 35 7z m482 -393 c-16 -16
-17 -16 -17 3 0 11 3 24 7 27 4 4 11 3 17 -3 7 -7 5 -16 -7 -27z m-4437 -77
c0 -3 -4 -8 -10 -11 -5 -3 -10 -1 -10 4 0 6 5 11 10 11 6 0 10 -2 10 -4z
m-310 -53 c-11 -17 -11 -17 -6 0 3 10 6 24 7 30 0 9 2 9 5 0 3 -7 0 -20 -6
-30z m318 -46 c5 -32 6 -55 2 -50 -9 9 -25 121 -17 113 4 -3 10 -32 15 -63z
m-337 -48 c-7 -44 -9 -47 -10 -19 -1 36 9 84 15 77 3 -2 0 -28 -5 -58z m259
-9 c-8 -5 -19 -10 -25 -10 -5 0 -3 5 5 10 8 5 20 10 25 10 6 0 3 -5 -5 -10z
m-40 -14 c0 -3 -15 -15 -32 -27 l-33 -23 24 27 c22 24 41 35 41 23z m7012
-201 c-1 -33 -3 -90 -4 -127 -3 -65 -3 -66 -16 -35 -12 28 -11 38 3 80 11 31
15 62 11 90 -3 23 -8 74 -10 112 l-5 70 11 -65 c6 -36 10 -92 10 -125z m-7087
135 c-4 -6 -4 -29 0 -51 7 -38 9 -40 34 -34 26 6 26 6 -4 -13 -27 -17 -30 -17
-34 -3 -3 13 -5 12 -12 -4 -5 -12 -6 2 -3 35 6 62 11 80 19 80 4 0 3 -5 0 -10z
m-168 -72 c-3 -7 -5 -2 -5 12 0 14 2 19 5 13 2 -7 2 -19 0 -25z m354 -19 c-9
-23 -10 -23 -10 -2 -1 12 2 30 6 40 6 15 8 15 11 2 1 -8 -2 -26 -7 -40z m2884
41 c-3 -5 -11 -10 -16 -10 -6 0 -7 5 -4 10 3 6 11 10 16 10 6 0 7 -4 4 -10z
m-55 -20 c0 -5 -4 -10 -10 -10 -5 0 -10 5 -10 10 0 6 5 10 10 10 6 0 10 -4 10
-10z m-3193 -62 c-3 -7 -5 -2 -5 12 0 14 2 19 5 13 2 -7 2 -19 0 -25z m163 -2
c0 -2 -7 -9 -15 -16 -13 -11 -14 -10 -9 4 5 14 24 23 24 12z m159 -52 c10 -9
-45 -3 -59 6 -11 7 -5 8 20 4 19 -4 37 -8 39 -10z m31 6 c0 -5 -2 -10 -4 -10
-3 0 -8 5 -11 10 -3 6 -1 10 4 10 6 0 11 -4 11 -10z m-85 -118 c-3 -3 -11 0
-18 7 -9 10 -8 11 6 5 10 -3 15 -9 12 -12z m7024 -117 l0 -20 -9 20 c-5 11 -9
27 -9 35 -1 13 0 13 9 0 5 -8 9 -24 9 -35z m8 -47 c-3 -8 -6 -5 -6 6 -1 11 2
17 5 13 3 -3 4 -12 1 -19z m10 -190 c-3 -7 -5 -2 -5 12 0 14 2 19 5 13 2 -7 2
-19 0 -25z m-5082 -2115 c4 -29 15 -53 28 -64 27 -22 15 -36 -19 -23 -29 10
-54 66 -54 120 0 68 33 44 45 -33z m-175 -243 c0 -5 -4 -10 -10 -10 -5 0 -10
5 -10 10 0 6 5 10 10 10 6 0 10 -4 10 -10z m307 -216 c-3 -3 -12 -4 -19 -1 -8
3 -5 6 6 6 11 1 17 -2 13 -5z m2223 -125 c0 -5 -7 -9 -15 -9 -15 0 -20 12 -9
23 8 8 24 -1 24 -14z m150 -229 c0 -5 -9 -10 -20 -10 -11 0 -20 5 -20 10 0 6
9 10 20 10 11 0 20 -4 20 -10z m-1110 -2019 c0 -5 -7 -11 -15 -15 -15 -5 -20
5 -8 17 9 10 23 9 23 -2z m-110 -301 c0 -5 -5 -12 -11 -16 -14 -8 -33 11 -25
25 7 11 36 4 36 -9z m-167 -155 c-3 -9 -8 -14 -10 -11 -3 3 -2 9 2 15 9 16 15
13 8 -4z m-243 -413 c0 -5 -9 -35 -20 -68 -11 -32 -20 -75 -19 -94 2 -30 -6
-80 -27 -178 -7 -36 -27 -14 -21 23 4 25 1 35 -10 39 -12 5 -14 16 -10 45 4
31 2 38 -9 34 -8 -3 -14 -2 -14 1 0 10 59 125 86 168 22 35 44 50 44 30z
m-170 -212 c0 -5 -8 -10 -17 -10 -15 0 -16 2 -3 10 19 12 20 12 20 0z m-63
-16 c-3 -3 -12 -4 -19 -1 -8 3 -5 6 6 6 11 1 17 -2 13 -5z m3 -69 c-14 -8 -32
-14 -40 -14 -8 0 -1 6 15 14 40 18 57 18 25 0z m88 -62 c-10 -2 -26 -2 -35 0
-10 3 -2 5 17 5 19 0 27 -2 18 -5z m-65 -10 c-7 -2 -19 -2 -25 0 -7 3 -2 5 12
5 14 0 19 -2 13 -5z m130 -18 c-3 -9 -8 -14 -10 -11 -3 3 -2 9 2 15 9 16 15
13 8 -4z m-18 -35 c-3 -5 -11 -10 -16 -10 -6 0 -7 5 -4 10 3 6 11 10 16 10 6
0 7 -4 4 -10z m1492 -532 c-3 -8 -6 -5 -6 6 -1 11 2 17 5 13 3 -3 4 -12 1 -19z
m132 -88 c-1 -31 -2 -28 -14 20 -18 69 -17 84 0 45 8 -16 14 -46 14 -65z m21
33 c-4 -56 -5 -57 -8 -14 -3 38 2 71 10 71 2 0 1 -26 -2 -57z m307 35 c-3 -8
-6 -5 -6 6 -1 11 2 17 5 13 3 -3 4 -12 1 -19z m-175 -82 l1 -41 7 45 7 45 1
-57 c2 -60 -13 -79 -23 -30 -3 15 -10 43 -15 63 -13 49 -12 58 5 35 8 -11 16
-38 17 -60z m-357 -26 c8 -13 -5 -13 -25 0 -13 8 -13 10 2 10 9 0 20 -4 23
-10z"/>
<path d="M5370 11889 c7 -11 14 -18 17 -15 8 8 -5 36 -17 36 -7 0 -7 -6 0 -21z"/>
<path d="M3524 13653 c-125 -180 -216 -298 -291 -377 -143 -150 -195 -226
-145 -212 33 9 128 25 192 32 55 6 69 11 95 39 69 73 128 200 165 355 18 76
35 220 26 220 -1 0 -20 -26 -42 -57z"/>
<path d="M3577 7495 c-4 -8 -2 -17 3 -20 6 -4 10 3 10 14 0 25 -6 27 -13 6z"/>
</g>
</svg>
