<?xml version="1.0" standalone="no"?>
<!DOCTYPE svg PUBLIC "-//W3C//DTD SVG 20010904//EN"
 "http://www.w3.org/TR/2001/REC-SVG-20010904/DTD/svg10.dtd">
<svg version="1.0" xmlns="http://www.w3.org/2000/svg"
 width="512.000000pt" height="512.000000pt" viewBox="0 0 512.000000 512.000000"
 preserveAspectRatio="xMidYMid meet">

<g transform="translate(0.000000,512.000000) scale(0.100000,-0.100000)"
fill="#000000" stroke="none">
<path d="M1385 4046 c-30 -30 -34 -84 -7 -114 27 -30 171 -132 211 -149 32
-14 65 -14 144 -1 16 3 26 -19 63 -141 24 -80 44 -151 44 -160 0 -8 -163 -309
-362 -669 -293 -529 -367 -656 -387 -663 -77 -28 -107 -68 -98 -131 11 -81 87
-122 164 -88 24 10 43 24 43 29 0 8 116 11 366 11 l366 0 -7 -42 c-33 -214
-143 -408 -302 -537 -85 -68 -153 -104 -263 -143 -91 -31 -102 -32 -245 -33
-127 0 -162 4 -228 23 -444 128 -697 582 -571 1021 82 282 301 495 589 572 99
26 287 29 380 5 68 -17 68 -17 106 57 l20 37 -25 10 c-122 46 -367 51 -521 11
-88 -23 -220 -83 -293 -132 -68 -47 -187 -164 -237 -234 -83 -117 -143 -262
-165 -399 -18 -108 -8 -311 20 -405 153 -532 704 -823 1222 -647 150 51 238
106 354 221 156 155 245 320 274 510 7 44 14 86 16 93 2 8 26 12 72 12 64 0
70 -2 83 -26 7 -14 26 -37 42 -50 21 -18 28 -31 24 -47 -3 -12 -20 -84 -37
-159 l-32 -137 -41 -3 -42 -3 -3 -57 -3 -58 131 0 131 0 -3 58 -3 57 -38 3
c-30 3 -37 7 -33 20 3 9 19 76 36 148 l31 130 46 13 c58 15 119 75 129 127 3
19 4 55 0 80 l-6 44 486 540 c267 297 488 540 492 540 6 0 93 -275 92 -291 0
-4 -37 -28 -82 -54 -111 -64 -257 -210 -322 -320 -93 -159 -136 -318 -136
-494 2 -370 202 -690 534 -851 522 -254 1146 13 1319 566 162 516 -137 1062
-659 1205 -87 24 -347 38 -373 20 -12 -8 -12 -17 1 -62 l15 -54 109 -1 c173
-3 312 -43 448 -131 382 -247 492 -760 244 -1140 -248 -380 -757 -488 -1140
-241 -85 55 -204 178 -254 263 -85 147 -117 267 -116 435 1 232 84 424 254
586 58 56 180 144 199 144 4 0 15 -24 24 -52 31 -95 137 -350 202 -488 54
-115 63 -140 58 -172 -7 -40 13 -91 40 -102 62 -23 125 13 125 71 0 47 -9 62
-49 82 -32 17 -40 30 -70 107 -71 188 -158 458 -311 969 -87 292 -162 538
-165 548 -7 16 9 17 255 17 220 0 267 -3 296 -16 45 -22 74 -70 74 -125 0 -80
-48 -129 -142 -144 -68 -11 -92 -85 -40 -125 23 -18 35 -21 76 -15 283 37 344
416 88 542 l-57 28 -336 0 c-317 0 -338 -1 -358 -19 -31 -28 -27 -62 29 -241
28 -88 50 -161 50 -162 0 -2 -325 -3 -722 -3 l-723 0 -59 193 c-32 105 -59
196 -60 201 -2 16 125 57 197 63 83 7 101 19 101 68 0 65 3 64 -378 62 -187
-1 -351 2 -363 6 -18 6 -28 2 -48 -17z m2054 -733 c-8 -9 -236 -262 -507 -562
-444 -491 -496 -546 -520 -542 -15 1 -29 4 -30 6 -2 2 -78 246 -168 542 -90
296 -167 546 -170 556 -5 16 33 17 702 17 661 0 706 -1 693 -17z m-1416 -410
c70 -230 149 -488 176 -574 l48 -156 -30 -47 -31 -46 -489 0 c-279 0 -487 4
-485 9 9 26 344 631 349 631 3 0 35 -25 73 -56 116 -96 205 -227 253 -371 l27
-83 63 0 c35 0 63 4 63 9 0 24 -55 182 -83 236 -63 127 -159 244 -266 326
l-70 53 52 96 c29 52 88 162 132 243 44 80 82 147 85 147 3 0 63 -188 133
-417z"/>
<path d="M2372 2593 c3 -57 3 -58 35 -61 31 -3 32 -5 25 -35 -12 -57 -8 -99
11 -111 29 -19 51 5 67 75 l16 64 47 3 c52 3 61 18 55 83 l-3 34 -128 3 -128
3 3 -58z"/>
</g>
</svg>
