<svg width="45" height="45" viewBox="0 0 45 45" fill="none" xmlns="http://www.w3.org/2000/svg">
<path fill-rule="evenodd" clip-rule="evenodd" d="M10.3994 0.0985107C9.31793 0.453253 8.50026 1.1562 8.03274 2.1331C7.76119 2.70062 7.73991 2.81436 7.73991 3.70003C7.73991 4.59179 7.75945 4.69427 8.03457 5.24754C8.8516 6.89017 10.6412 7.74072 12.3391 7.29321C14.2378 6.79277 15.475 4.92956 15.1321 3.08731C14.9015 1.84826 13.9516 0.661396 12.8558 0.243203C12.2026 -0.00615095 10.9443 -0.080222 10.3994 0.0985107ZM10.6287 10.4894C10.6287 11.9803 10.6757 12.2405 10.9876 12.4775C11.2383 12.6681 11.7153 12.616 11.9626 12.3711C12.1843 12.1518 12.1877 12.1243 12.1877 10.5783L12.1875 9.00837H11.408H10.6286L10.6287 10.4894ZM5.01224 11.5016C2.65113 11.9277 0.755432 13.6568 0.171435 15.917C-0.28472 17.6826 0.183632 19.9901 1.40711 22.0049C2.76861 24.2471 5.08313 26.648 7.87747 28.7166C8.82684 29.4194 10.4456 30.5021 11.0643 30.8483L11.4541 31.0663L11.8438 30.8487C13.1328 30.1291 15.404 28.514 16.7901 27.3312C19.9597 24.6264 21.9349 21.9124 22.6088 19.3363C22.9438 18.0555 22.9449 16.6477 22.6117 15.6329C21.9121 13.5023 20.1853 11.9804 17.9719 11.5434C15.9359 11.1415 13.673 11.963 12.3278 13.5924C11.8815 14.133 11.7462 14.2278 11.4202 14.2278C11.1966 14.2278 11.0276 14.1005 10.4978 13.5329C9.28162 12.2297 7.86803 11.5424 6.23948 11.4622C5.80377 11.4407 5.25151 11.4585 5.01224 11.5016ZM32.7303 13.9912C31.2055 14.3272 30.063 15.503 29.7759 17.0316C29.4831 18.5894 30.3818 20.2741 31.8742 20.9654C33.7948 21.855 35.9659 21.0746 36.9194 19.1521C37.1556 18.6757 37.1782 18.5435 37.1782 17.6318C37.1782 16.7202 37.1556 16.5879 36.9194 16.1116C36.3527 14.969 35.2674 14.1503 34.0601 13.9549C33.403 13.8485 33.3739 13.8493 32.7303 13.9912ZM32.7305 24.3718C32.7306 25.9734 32.8338 26.3602 33.3035 26.5215C33.6743 26.6488 34.0313 26.4918 34.2204 26.1181C34.3527 25.8568 34.3808 25.5514 34.3809 24.3718L34.3811 22.9421H33.5557H32.7303L32.7305 24.3718ZM26.5127 25.5765C24.5795 26.0778 23.0118 27.5412 22.3156 29.4943C22.079 30.1581 21.9894 31.2115 22.0927 32.1144C22.5346 35.9756 26.0967 40.2546 32.1336 44.176C32.8312 44.6293 33.4427 45 33.4925 45C33.6306 45 36.1278 43.3475 37.1673 42.5683C42.759 38.3768 45.6161 33.7997 44.8883 30.1998C44.6418 28.9813 44.134 28.0438 43.2426 27.1621C41.9632 25.8966 40.4799 25.3253 38.703 25.4137C37.09 25.4939 35.9307 26.0404 34.6549 27.3219C33.939 28.0411 33.8316 28.1162 33.519 28.1162C33.2056 28.1162 33.0965 28.0391 32.3314 27.2765C31.3665 26.3148 30.6024 25.86 29.4696 25.5732C28.5572 25.3422 27.4113 25.3435 26.5127 25.5765Z" fill="white"/>
</svg>