<?xml version="1.0" encoding="UTF-8" standalone="no"?>
<!-- Created with Inkscape (http://www.inkscape.org/) -->

<svg
   width="250"
   height="250"
   viewBox="0 0 66.145832 66.145833"
   version="1.1"
   id="svg5"
   xml:space="preserve"
   inkscape:version="1.2.2 (732a01da63, 2022-12-09)"
   sodipodi:docname="ubrania.svg"
   xmlns:inkscape="http://www.inkscape.org/namespaces/inkscape"
   xmlns:sodipodi="http://sodipodi.sourceforge.net/DTD/sodipodi-0.dtd"
   xmlns="http://www.w3.org/2000/svg"
   xmlns:svg="http://www.w3.org/2000/svg"><sodipodi:namedview
     id="namedview7"
     pagecolor="#505050"
     bordercolor="#ffffff"
     borderopacity="1"
     inkscape:showpageshadow="0"
     inkscape:pageopacity="0"
     inkscape:pagecheckerboard="1"
     inkscape:deskcolor="#505050"
     inkscape:document-units="mm"
     showgrid="false"
     inkscape:zoom="2.2097881"
     inkscape:cx="171.50966"
     inkscape:cy="115.84821"
     inkscape:window-width="1858"
     inkscape:window-height="1057"
     inkscape:window-x="1912"
     inkscape:window-y="-8"
     inkscape:window-maximized="1"
     inkscape:current-layer="layer3" /><defs
     id="defs2"><inkscape:path-effect
       effect="spiro"
       id="path-effect2139"
       is_visible="true"
       lpeversion="1" /><inkscape:path-effect
       effect="bspline"
       id="path-effect2134"
       is_visible="true"
       lpeversion="1"
       weight="33.333333"
       steps="2"
       helper_size="0"
       apply_no_weight="true"
       apply_with_weight="true"
       only_selected="false" /><inkscape:path-effect
       effect="bspline"
       id="path-effect2130"
       is_visible="true"
       lpeversion="1"
       weight="33.333333"
       steps="2"
       helper_size="0"
       apply_no_weight="true"
       apply_with_weight="true"
       only_selected="false" /><inkscape:path-effect
       effect="bspline"
       id="path-effect2095"
       is_visible="true"
       lpeversion="1"
       weight="33.333333"
       steps="2"
       helper_size="0"
       apply_no_weight="true"
       apply_with_weight="true"
       only_selected="false" /><inkscape:path-effect
       effect="bspline"
       id="path-effect1648"
       is_visible="true"
       lpeversion="1"
       weight="33.333333"
       steps="2"
       helper_size="0"
       apply_no_weight="true"
       apply_with_weight="true"
       only_selected="false" /><inkscape:path-effect
       effect="bspline"
       id="path-effect1648-1"
       is_visible="true"
       lpeversion="1"
       weight="33.333333"
       steps="2"
       helper_size="0"
       apply_no_weight="true"
       apply_with_weight="true"
       only_selected="false" /><inkscape:path-effect
       effect="bspline"
       id="path-effect2095-3"
       is_visible="true"
       lpeversion="1"
       weight="33.333333"
       steps="2"
       helper_size="0"
       apply_no_weight="true"
       apply_with_weight="true"
       only_selected="false" /></defs><g
     inkscape:groupmode="layer"
     id="layer3"
     inkscape:label="Warstwa 3"
     style="display:inline"><path
       id="rect2091"
       style="display:inline;opacity:1;fill:#f2f2f2;stroke:none;stroke-width:1.33322;stroke-linecap:round;stroke-linejoin:round;stroke-opacity:0.980392"
       d="m 46.533017,0.99472516 0.0015,0.025322 c -0.01359,-5.004e-4 -0.02684,-0.00207 -0.04055,-0.00207 H 23.425953 c -0.08227,0 -0.162634,0.00908 -0.239896,0.026355 l 4.89e-4,-0.011886 c -0.122605,0.03242 -0.245282,0.066215 -0.369369,0.1105876 1.49e-4,0.03631 -1.4e-4,0.072887 -0.0015,0.1100708 L 22.270452,17.107437 c 0.0037,-0.0023 0.0071,-0.0045 0.01075,-0.0067 v 18.386475 c 0,0.670784 0.510543,1.210779 1.144752,1.210779 h 7.957069 c -3.4e-5,-1.376532 -4.88e-4,-2.612707 -4.88e-4,-4.003374 l 0.04006,0.0083 V 22.391352 c 0,-0.670784 0.510546,-1.210778 1.144751,-1.210778 h 15.071336 v -3.916041 c -0.0061,-0.05381 -0.01106,-0.108469 -0.01417,-0.164331 L 46.731383,1.047952 c -0.01647,-0.00366 -0.03211,-0.00948 -0.04886,-0.012402 -0.05001,-0.013995 -0.09962,-0.027633 -0.149507,-0.040824 z m 1.274715,0.70434984 0.857464,15.401127 c 0.01398,0.251327 -0.006,0.484531 -0.0513,0.677478 0.126935,0.07637 0.260989,0.157936 0.373765,0.224276 0.441017,0.259422 0.76207,0.434028 1.002574,0.533818 0.240503,0.09979 0.400591,0.124332 0.575062,0.09198 0.174478,-0.03234 0.363401,-0.121788 0.512036,-0.258899 0.148639,-0.137111 0.257193,-0.321985 1.080258,-1.534273 0.823065,-1.212293 2.360617,-3.452118 3.200222,-4.681885 0.839605,-1.229767 0.98111,-1.44946 1.066088,-1.663981 0.08498,-0.214526 0.113378,-0.423663 0.101626,-0.6108163 C 56.513735,9.6907587 56.461721,9.5260136 56.343773,9.3513211 56.225824,9.1766286 56.041832,8.9916986 54.610279,7.7095608 53.178732,6.4274236 50.499665,4.0481044 49.049223,2.773428 48.437006,2.2354034 48.074012,1.922123 47.807732,1.699075 Z m -7.000912,0.079582 c 0.06586,1.7248532 -0.587591,3.4666672 -1.753527,4.6746501 -1.165936,1.2079829 -2.825819,1.862769 -4.454904,1.7575154 C 33.100281,8.1140309 31.647573,7.3807041 30.634512,6.209394 29.621452,5.0380839 29.059404,3.4425059 29.101337,1.8556546 Z m -19.0528,0.091984 c -0.258567,0.2200279 -0.579542,0.497466 -1.083678,0.940511 -1.450447,1.274676 -4.129506,3.6545122 -5.561058,4.9366496 -1.431548,1.2821374 -1.615545,1.4665512 -1.733494,1.6412435 -0.117943,0.1746924 -0.170006,0.3394299 -0.181752,0.5265829 -0.01175,0.1871533 0.01665,0.3968063 0.101625,0.6113323 0.08498,0.214526 0.226485,0.433698 1.066089,1.663465 0.839605,1.229762 2.377156,3.470108 3.200221,4.682401 0.823065,1.212293 0.931619,1.396646 1.080259,1.533757 0.148639,0.137106 0.337558,0.227075 0.512035,0.259415 0.174476,0.03234 0.33456,0.0073 0.575063,-0.0925 0.240499,-0.09979 0.561561,-0.274395 1.002573,-0.533817 0.147094,-0.08653 0.321601,-0.192828 0.491026,-0.295072 -0.0063,-0.09172 -0.0083,-0.187087 -0.0049,-0.285771 z" /></g><g
     inkscape:groupmode="layer"
     id="layer4"
     inkscape:label="Warstwa 4"
     style="display:inline"><path
       id="rect2126"
       style="opacity:1;fill:#f2f2f2;stroke:none;stroke-width:1.32726;stroke-linecap:round;stroke-linejoin:round;stroke-opacity:0.980392"
       d="m 34.268108,22.669372 c -0.634209,0 -1.144752,0.539995 -1.144752,1.210778 v 10.311516 l -0.04006,-0.0083 c 0,9.609533 -1.59e-4,19.219182 0.01319,24.164934 0.01335,4.945751 0.04006,5.227996 0.120192,5.467883 0.08014,0.239887 0.213476,0.437422 0.386958,0.564307 0.173481,0.126879 0.386912,0.183015 1.787727,0.225309 1.40081,0.04229 3.989112,0.07081 5.403244,0.0708 1.414137,-1.5e-5 1.654283,-0.0283 1.840982,-0.08475 0.186704,-0.05645 0.320205,-0.140963 0.440214,-0.296106 0.120009,-0.155142 0.226748,-0.381294 0.286799,-0.578776 0.06005,-0.197482 0.07318,-0.366762 0.29999,-4.875154 0.225945,-4.491291 0.664627,-13.304638 1.103221,-22.118547 h 0.212046 c 0.410851,8.859229 0.820934,17.697072 1.052897,22.252905 0.233494,4.586027 0.286812,4.839726 0.386958,5.051372 0.100145,0.21164 0.24677,0.381422 0.460245,0.480074 0.213475,0.09865 0.493775,0.126463 1.907919,0.14056 1.414138,0.0141 3.962071,0.01445 5.369532,-0.02791 1.407456,-0.04236 1.674501,-0.127299 1.867855,-0.254248 0.193348,-0.126949 0.313402,-0.295928 0.380117,-0.52865 0.06671,-0.232717 0.08029,-0.529573 0.08697,-5.320088 0.0066,-4.726712 0.0064,-13.843761 0.0064,-23.004281 v -5.17e-4 -0.355534 -11.276831 c 0,-0.670783 -0.510542,-1.210778 -1.144751,-1.210778 z m 0.420181,0.719335 h 20.323605 c 0.634209,0 1.144751,0.170306 1.144751,0.381373 0,0.211065 -0.510542,0.380855 -1.144751,0.380855 H 34.688289 c -0.634207,0 -1.144751,-0.16979 -1.144751,-0.380855 0,-0.211067 0.510544,-0.381373 1.144751,-0.381373 z m 0.765611,1.51257 h 2.889482 c 0.634208,0 1.144751,0.53999 1.144751,1.210778 v 0.45527 c 0,0.670788 -0.510543,1.210779 -1.144751,1.210779 H 35.4539 c -0.634209,0 -1.144752,-0.539991 -1.144752,-1.210779 v -0.45527 c 0,-0.670788 0.510543,-1.210778 1.144752,-1.210778 z m 15.748998,0.132808 h 2.889482 c 0.634205,0 1.144752,0.539994 1.144752,1.210779 v 0.127641 c 0,0.670785 -0.510547,1.210778 -1.144752,1.210778 h -2.889482 c -0.634208,0 -1.144751,-0.539993 -1.144751,-1.210778 v -0.127641 c 0,-0.670785 0.510543,-1.210779 1.144751,-1.210779 z m -9.721345,0.06976 h 6.625191 c 0.634209,0 1.144752,0.539993 1.144752,1.210779 v 0.102836 c 0,0.670787 -0.510543,1.210779 -1.144752,1.210779 h -6.625191 c -0.634206,0 -1.144751,-0.539992 -1.144751,-1.210779 v -0.102836 c 0,-0.670786 0.510545,-1.210779 1.144751,-1.210779 z m -6.773232,3.491777 h 20.323606 c 0.634204,0 1.144751,0.170306 1.144751,0.381372 0,0.211066 -0.510547,0.380855 -1.144751,0.380855 H 34.708321 c -0.634204,0 -1.144751,-0.169789 -1.144751,-0.380855 0,-0.211066 0.510547,-0.381372 1.144751,-0.381372 z" /></g></svg>
