<?xml version="1.0" encoding="UTF-8" standalone="no"?>
<!-- Created with Inkscape (http://www.inkscape.org/) -->

<svg
   width="250"
   height="250"
   viewBox="0 0 66.145832 66.145833"
   version="1.1"
   id="svg5"
   xml:space="preserve"
   inkscape:version="1.2.2 (732a01da63, 2022-12-09)"
   sodipodi:docname="p. rela.svg"
   xmlns:inkscape="http://www.inkscape.org/namespaces/inkscape"
   xmlns:sodipodi="http://sodipodi.sourceforge.net/DTD/sodipodi-0.dtd"
   xmlns="http://www.w3.org/2000/svg"
   xmlns:svg="http://www.w3.org/2000/svg"><sodipodi:namedview
     id="namedview7"
     pagecolor="#505050"
     bordercolor="#ffffff"
     borderopacity="1"
     inkscape:showpageshadow="0"
     inkscape:pageopacity="0"
     inkscape:pagecheckerboard="1"
     inkscape:deskcolor="#505050"
     inkscape:document-units="mm"
     showgrid="false"
     inkscape:zoom="1.5625561"
     inkscape:cx="167.67398"
     inkscape:cy="154.23446"
     inkscape:window-width="1379"
     inkscape:window-height="1041"
     inkscape:window-x="4109"
     inkscape:window-y="5"
     inkscape:window-maximized="0"
     inkscape:current-layer="layer3" /><defs
     id="defs2"><inkscape:path-effect
       effect="bspline"
       id="path-effect408"
       is_visible="true"
       lpeversion="1"
       weight="33.333333"
       steps="2"
       helper_size="0"
       apply_no_weight="true"
       apply_with_weight="true"
       only_selected="false" /><inkscape:path-effect
       effect="bspline"
       id="path-effect314"
       is_visible="true"
       lpeversion="1"
       weight="33.333333"
       steps="2"
       helper_size="0"
       apply_no_weight="true"
       apply_with_weight="true"
       only_selected="false" /></defs><g
     inkscape:groupmode="layer"
     id="layer3"
     inkscape:label="Layer 1"
     style="fill:#f2f2f2"><path
       style="opacity:1;fill:#f2f2f2;stroke-width:0.331447"
       d="m 63.061638,57.223647 c 0.510685,0.07157 0.982073,0.167027 1.322682,0.441547 0.340609,0.274521 0.550108,0.727908 0.510759,1.706427 -0.03935,0.978518 -0.32741,2.481857 -0.62866,3.484116 -0.301249,1.00226 -0.615498,1.503371 -1.100042,1.765678 -0.484544,0.262308 -1.139227,0.286167 -1.833173,0.226475 -0.693946,-0.05969 -1.427195,-0.202867 -2.959264,-0.190894 -1.53207,0.01197 -3.862756,0.179011 -5.918519,0.286386 -2.055764,0.107375 -3.836517,0.1551 -5.839906,0.11929 -2.003388,-0.03581 -4.229315,-0.155122 -6.285055,-0.441504 -2.055739,-0.286383 -3.941237,-0.73977 -5.918434,-1.28863 -1.977197,-0.54886 -4.046005,-1.193149 -6.023224,-1.777796 -1.977219,-0.584647 -3.862713,-1.109622 -5.695907,-1.551085 -1.833193,-0.441463 -3.613937,-0.799401 -4.910201,-1.157361 -1.296264,-0.357959 -2.108074,-0.715897 -2.736485,-1.22889 -0.62841,-0.512994 -1.073596,-1.181145 -1.492596,-2.016311 -0.419,-0.835166 -0.811812,-1.837392 -1.230827,-2.780012 -0.419014,-0.942619 -0.8642,-1.825531 -1.623676,-2.99487 C 9.9396341,48.656874 8.8659491,47.201261 7.9100847,45.852998 6.9542202,44.504734 6.1162205,43.26388 5.4091507,41.784419 4.7020809,40.304957 4.1259568,38.586857 3.615283,36.809065 3.1046092,35.031273 2.6594227,33.193858 2.3713409,31.606985 2.0832591,30.020112 1.9523216,28.68381 1.9653845,27.299779 1.9784474,25.915747 2.1355731,24.483993 2.1094239,23.159534 2.0832748,21.835075 1.8737744,20.618084 1.6249912,19.436838 1.376208,18.255592 1.0881457,17.11019 0.83935125,15.893183 0.5905568,14.676177 0.3810572,13.387601 0.52501625,11.932009 0.66897531,10.476416 1.1665373,8.8537645 1.7556963,7.5770796 2.3448553,6.3003947 3.0257304,5.3697572 3.8768038,4.4867808 4.7278772,3.6038044 5.7491871,2.7686154 6.9145434,2.1242312 8.0798996,1.4798471 9.3892701,1.02646 10.947511,0.83547948 c 1.55824,-0.19098051 3.365173,-0.11939297 4.792523,0.19080082 1.427351,0.3101938 2.474849,0.8590321 3.443868,1.5391584 0.969019,0.6801263 1.859393,1.491452 2.618891,2.4341082 0.759499,0.9426562 1.387997,2.0164689 1.754618,3.126209 0.366622,1.1097402 0.471372,2.2551421 0.523736,3.3290041 0.05236,1.073862 0.05236,2.076088 -0.104824,3.126105 -0.157186,1.050017 -0.471437,2.147693 -0.890497,3.197678 -0.41906,1.049986 -0.942809,2.052212 -1.335627,2.815834 -0.392817,0.763621 -0.654692,1.288597 -0.733136,1.873178 -0.07844,0.58458 0.02631,1.228869 0.340572,2.004342 0.314265,0.775473 0.838014,1.682248 1.427254,2.827705 0.589241,1.145458 1.243927,2.529484 1.76769,3.889725 0.523762,1.36024 0.916574,2.696542 1.296297,4.307335 0.379723,1.610793 0.746347,3.495933 0.864134,4.784605 0.117786,1.288672 -0.01315,1.980689 -0.144095,2.648859 -0.130944,0.66817 -0.261882,1.312461 -0.209449,1.801494 0.05243,0.489033 0.288123,0.823108 0.785591,1.145198 0.497469,0.322091 1.256906,0.632305 2.369834,0.811311 1.112927,0.179006 2.579424,0.226731 4.032887,0.334105 1.453464,0.107373 2.89377,0.27441 4.38652,0.536894 1.492751,0.262483 3.037815,0.620421 4.648434,1.157338 1.610619,0.536917 3.286612,1.252793 4.700816,1.992561 1.414203,0.739767 2.566456,1.50337 4.019872,2.29085 1.453416,0.78748 3.207967,1.598801 4.530465,2.195381 1.322497,0.59658 2.212868,0.978379 3.077032,1.252817 0.864165,0.274437 1.702161,0.441476 2.396126,0.548874 0.693966,0.107398 1.243911,0.155123 1.754595,0.226698 z"
       id="path406"
       inkscape:path-effect="#path-effect408"
       inkscape:original-d="m 63.101216,57.199825 c 0.471031,0.09577 0.94242,0.191221 1.414146,0.286355 0.20916,0.453723 0.418656,0.907111 0.628511,1.360192 -0.288422,1.503714 -0.576485,3.007052 -0.8642,4.510107 -0.314615,0.501448 -0.628859,1.002562 -0.942768,1.50337 -0.655062,0.02416 -1.309744,0.04804 -1.964101,0.07158 -0.733618,-0.142862 -1.466867,-0.286037 -2.19979,-0.42953 -2.331123,0.167358 -4.661809,0.334395 -6.992182,0.501122 -1.781167,0.04805 -3.56192,0.09577 -5.342348,0.143177 -2.226375,-0.118995 -4.452302,-0.238314 -6.677937,-0.357946 -1.885917,-0.45309 -3.771414,-0.906478 -5.656602,-1.360189 -2.069236,-0.643999 -4.138045,-1.288285 -6.206548,-1.932905 -1.88592,-0.524681 -3.771414,-1.049656 -5.656605,-1.574957 -1.781165,-0.357636 -3.561909,-0.715574 -5.342346,-1.073836 -0.81219,-0.357634 -1.624,-0.715572 -2.435482,-1.073835 -0.445552,-0.66786 -0.890736,-1.336013 -1.335585,-2.004491 -0.393175,-1.00195 -0.785987,-2.004176 -1.17846,-3.00674 -0.44555,-0.882632 -0.890738,-1.765543 -1.335585,-2.648791 C 9.9392575,48.657152 8.8655718,47.201539 7.7922123,45.745577 6.9538357,44.504994 6.1158346,43.264141 5.2781686,42.022949 4.7016737,40.305094 4.1255497,38.586994 3.5497598,36.86854 3.104209,35.03137 2.6590214,33.193955 2.2141745,31.356188 2.082884,30.020149 1.9519466,28.683847 1.8213543,27.347204 1.9781381,25.915713 2.1352604,24.483959 2.2927402,23.051862 2.082884,21.835142 1.8733821,20.618152 1.6642275,19.400824 1.3758069,18.255693 1.0877416,17.110292 0.80002369,15.964551 0.59016644,14.67624 0.38066896,13.387664 0.1715122,12.098746 0.66874551,10.476346 1.1663083,8.8536943 1.6642275,7.2306943 2.3447803,6.3003398 3.0256546,5.3697017 3.7068921,4.4387279 4.7278921,3.6038226 5.7492025,2.7686342 6.7708806,1.9331126 8.0799605,1.4800229 9.3893307,1.0266351 10.699077,0.5729217 c 1.806661,0.0719066 3.613594,0.14349448 5.420911,0.21476704 1.047192,0.54917646 2.09469,1.09801426 3.142555,1.64654706 0.890063,0.8116748 1.780437,1.6230006 2.671176,2.4340262 0.628176,1.0741735 1.256673,2.1479866 1.885533,3.2215056 0.1044,1.1457633 0.209159,2.2911644 0.314258,3.4362704 -3.48e-4,1.002584 -3.48e-4,2.00481 0,3.00674 -0.314614,1.098035 -0.62886,2.195712 -0.942771,3.293095 -0.524116,1.002581 -1.047866,2.004807 -1.571277,3.006737 -0.262231,0.525313 -0.524108,1.050288 -0.785639,1.574957 0.104401,0.644632 0.209157,1.28892 0.314257,1.932903 0.523422,0.90713 1.047171,1.813905 1.571278,2.720382 0.654365,1.3844 1.309053,2.768426 1.964099,4.152166 0.392478,1.336668 0.78529,2.67297 1.178457,4.008981 0.366293,1.885532 0.732917,3.770672 1.099894,5.655533 -0.131287,0.692355 -0.262227,1.384371 -0.392819,2.076082 -0.131288,0.644627 -0.262228,1.288918 -0.392821,1.932903 0.235352,0.334404 0.471038,0.668481 0.707079,1.002242 0.759117,0.310545 1.518555,0.620759 2.27835,0.930659 1.46621,0.04805 2.932707,0.09577 4.399581,0.14318 1.440023,0.16736 2.880329,0.334396 4.321015,0.501123 1.544769,0.358267 3.089833,0.716205 4.635278,1.073834 1.675713,0.716219 3.351706,1.432096 5.02808,2.147671 1.15195,0.763946 2.304203,1.527548 3.456814,2.290846 1.754291,0.811675 3.50884,1.623001 5.263792,2.434029 0.890057,0.382129 1.780427,0.763929 2.671168,1.145421 0.837683,0.167361 1.675679,0.334399 2.514046,0.501126 0.549608,0.04804 1.099553,0.09577 1.649845,0.143177 z" /></g></svg>
