<?xml version="1.0" encoding="UTF-8" standalone="no"?>
<!-- Created with Inkscape (http://www.inkscape.org/) -->

<svg
   width="250"
   height="250"
   viewBox="0 0 66.145832 66.145833"
   version="1.1"
   id="svg5"
   xml:space="preserve"
   inkscape:version="1.2.2 (732a01da63, 2022-12-09)"
   sodipodi:docname="torso.svg"
   xmlns:inkscape="http://www.inkscape.org/namespaces/inkscape"
   xmlns:sodipodi="http://sodipodi.sourceforge.net/DTD/sodipodi-0.dtd"
   xmlns="http://www.w3.org/2000/svg"
   xmlns:svg="http://www.w3.org/2000/svg"><sodipodi:namedview
     id="namedview7"
     pagecolor="#505050"
     bordercolor="#ffffff"
     borderopacity="1"
     inkscape:showpageshadow="0"
     inkscape:pageopacity="0"
     inkscape:pagecheckerboard="1"
     inkscape:deskcolor="#505050"
     inkscape:document-units="mm"
     showgrid="false"
     inkscape:zoom="2.2097881"
     inkscape:cx="162.91155"
     inkscape:cy="133.9495"
     inkscape:window-width="1379"
     inkscape:window-height="1041"
     inkscape:window-x="4109"
     inkscape:window-y="5"
     inkscape:window-maximized="0"
     inkscape:current-layer="layer2" /><defs
     id="defs2"><inkscape:path-effect
       effect="bspline"
       id="path-effect314"
       is_visible="true"
       lpeversion="1"
       weight="33.333333"
       steps="2"
       helper_size="0"
       apply_no_weight="true"
       apply_with_weight="true"
       only_selected="false" /></defs><g
     inkscape:groupmode="layer"
     id="layer2"
     inkscape:label="Warstwa 2"><path
       style="opacity:1;fill:#f2f2f2;stroke-width:0.264583"
       d="m 3.5558722,59.603192 c 0.2257474,-2.426785 0.4515173,-4.853811 0.973606,-7.760653 0.5220887,-2.906842 1.3404871,-6.293318 2.2717932,-9.256599 0.931306,-2.963281 1.9754694,-5.503138 2.7797876,-8.268811 0.804318,-2.765672 1.368731,-5.757059 2.017822,-8.706215 0.649091,-2.949156 1.382828,-5.855883 2.652901,-7.619834 1.270074,-1.763951 3.076195,-2.384805 4.727161,-2.9069 1.650966,-0.522095 3.14666,-0.945404 4.444793,-1.509832 1.298132,-0.564428 2.398737,-1.269944 3.061877,-1.862515 0.663141,-0.592572 0.888905,-1.072323 0.98771,-1.8624494 0.0988,-0.7901267 0.07058,-1.8907317 0.141243,-2.4553093 0.07066,-0.5645776 0.239983,-0.5927983 1.890981,-0.606891 1.650997,-0.014093 4.783489,-0.014093 6.37788,0.1553882 1.594391,0.1694808 1.650832,0.5081283 1.721373,1.1713291 0.07054,0.6632007 0.155203,1.650923 0.352847,2.3705774 0.197643,0.719655 0.508071,1.171186 1.453548,1.876668 0.945476,0.705482 2.525832,1.664984 4.106232,2.285786 1.5804,0.620803 3.160755,0.903009 4.473059,1.326391 1.312303,0.423381 2.356467,0.987794 3.104239,1.834516 0.747773,0.846722 1.199304,1.975548 1.636701,3.682946 0.437397,1.707398 0.860707,3.99327 1.340481,6.293324 0.479773,2.300054 1.015966,4.614149 1.566295,6.744872 0.550328,2.130722 1.114741,4.077947 1.749745,5.912345 0.635004,1.834399 1.34052,3.555857 1.890815,5.136256 0.550295,1.5804 0.945384,3.019651 1.269912,4.515384 0.324528,1.495733 0.578515,3.047869 0.776052,4.670598 0.197537,1.622729 0.33864,3.315968 0.398681,4.165963 0.06004,0.849994 0.03887,0.857053 -0.694846,0.855317 -0.733713,-0.0017 -2.18002,-0.01232 -2.913811,-0.03509 -0.733791,-0.02277 -0.75496,-0.05806 -0.924322,-0.481376 -0.169361,-0.423322 -0.486843,-1.234665 -1.040688,-2.584011 -0.553845,-1.349345 -1.344023,-3.236599 -1.922587,-4.871683 -0.578564,-1.635083 -0.945432,-3.017896 -1.284096,-4.38664 -0.338664,-1.368743 -0.649092,-2.723334 -1.14293,-4.120294 -0.493839,-1.39696 -1.171133,-2.836211 -1.792032,-4.487173 -0.6209,-1.650962 -1.185313,-3.513523 -1.608538,-4.459077 -0.423225,-0.945554 -0.705432,-0.973773 -0.917264,-0.818501 -0.211832,0.155271 -0.352935,0.493919 -0.578707,1.072469 -0.225773,0.578549 -0.5362,1.396948 -0.973634,2.398798 -0.437433,1.001849 -1.001846,2.187117 -1.439278,3.231332 -0.437432,1.044215 -0.747859,1.947274 -0.959506,2.892732 -0.211647,0.945458 -0.324529,1.933182 -0.324503,3.090291 2.7e-5,1.15711 0.112909,2.48348 0.352826,3.781683 0.239918,1.298203 0.606787,2.568131 0.691446,3.259371 0.08466,0.69124 -0.112883,0.804122 -1.213461,0.987573 -1.100578,0.183451 -3.104243,0.437436 -5.093848,0.620882 -1.989604,0.183446 -3.96505,0.29633 -5.81354,0.296345 -1.84849,1.5e-5 -3.569949,-0.112868 -5.404342,-0.282191 -1.834392,-0.169322 -3.781616,-0.395087 -4.755393,-0.592522 -0.973778,-0.197435 -0.973778,-0.366758 -0.875017,-1.171097 0.09876,-0.804339 0.296305,-2.243593 0.465638,-3.725214 0.169333,-1.481622 0.310436,-3.005537 0.239929,-4.346018 -0.07051,-1.340482 -0.352713,-2.497528 -0.832457,-3.965045 -0.479745,-1.467517 -1.15704,-3.245418 -1.735554,-4.571826 -0.578514,-1.326408 -1.058264,-2.201247 -1.425097,-2.638833 -0.366833,-0.437587 -0.620819,-0.437587 -0.832638,-0.169397 -0.211819,0.26819 -0.381143,0.804381 -0.705691,1.890918 -0.324547,1.086537 -0.804298,2.723334 -1.241733,4.035612 -0.437434,1.312279 -0.832523,2.3 -1.241733,3.513545 -0.409211,1.213544 -0.83252,2.652796 -1.481618,4.642408 -0.649098,1.989612 -1.523938,4.529471 -2.243585,6.63197 -0.7196459,2.102498 -1.2840583,3.767515 -1.8484294,5.432411"
       id="path312"
       inkscape:path-effect="#path-effect314"
       inkscape:original-d="m 3.5558722,59.603192 c 0.2260343,-2.426758 0.451804,-4.853784 0.6773089,-7.281071 0.8186963,-3.386349 1.6370948,-6.772825 2.4552452,-10.159635 1.0444703,-2.539696 2.0886341,-5.079553 3.1325542,-7.619727 0.5646995,-2.991245 1.1291125,-5.982632 1.6932725,-8.974344 0.734031,-2.906578 1.467768,-5.813305 2.201254,-8.720354 1.806458,-0.620614 3.612579,-1.241468 5.418472,-1.862599 1.496019,-0.423062 2.991713,-0.846372 4.487172,-1.269955 1.100914,-0.70528 2.201519,-1.410795 3.301883,-2.11659 0.226039,-0.479506 0.451802,-0.959257 0.677307,-1.439282 -0.02796,-1.1003846 -0.05618,-2.2009896 -0.08466,-3.3018814 0.169593,-0.027957 0.338918,-0.056178 0.507982,-0.084663 3.132881,2.646e-4 6.265373,2.646e-4 9.397661,0 0.05671,0.3389257 0.113149,0.6775736 0.169328,1.0159635 0.08493,0.9880266 0.16959,1.975749 0.25399,2.9632279 0.310705,0.451812 0.621133,0.903343 0.931301,1.354617 1.580682,0.959805 3.161038,1.919307 4.741161,2.878564 1.580685,0.282482 3.161041,0.564688 4.741164,0.846636 1.04447,0.564699 2.088634,1.129112 3.132553,1.693271 0.451813,1.129136 0.903346,2.257962 1.354619,3.386545 0.423593,2.286229 0.846902,4.572101 1.269955,6.857754 0.536477,2.31445 1.072671,4.628544 1.608609,6.942418 0.5647,1.947566 1.129112,3.894791 1.693272,5.841791 0.705808,1.721792 1.411325,3.44325 2.11659,5.164478 0.39537,1.439577 0.790459,2.878828 1.185291,4.317847 0.254262,1.552461 0.508246,3.104597 0.761974,4.6565 0.141372,1.69357 0.282477,3.386809 0.423317,5.079817 -0.0209,0.0073 -0.04207,0.01437 -0.0635,0.02117 -1.446102,-0.01032 -2.892409,-0.0209 -4.339011,-0.03175 -0.0209,-0.03501 -0.04207,-0.07029 -0.0635,-0.10583 -0.31723,-0.811112 -0.634714,-1.622454 -0.952466,-2.43408 -0.789945,-1.887066 -1.580123,-3.77432 -2.370582,-5.661879 -0.36662,-1.382601 -0.733488,-2.765414 -1.100627,-4.148519 -0.310176,-1.354378 -0.620601,-2.70897 -0.931301,-4.063851 -0.677058,-1.439048 -1.354352,-2.878299 -2.031926,-4.317847 -0.564171,-1.862373 -1.128583,-3.724934 -1.693273,-5.587799 -0.281953,-0.02796 -0.56416,-0.05618 -0.846637,-0.08466 -0.140843,0.338926 -0.281945,0.677574 -0.423318,1.015963 -0.310173,0.818698 -0.620601,1.637096 -0.931299,2.455246 -0.564171,1.18558 -1.128585,2.370847 -1.693272,3.555873 -0.310176,0.903362 -0.620601,1.806422 -0.931302,2.709236 -0.112622,0.988025 -0.225504,1.975749 -0.338653,2.963227 0.113152,1.326687 0.226034,2.653057 0.338653,3.97919 0.367149,1.270244 0.734018,2.540172 1.10063,3.809863 -0.197289,0.113152 -0.394832,0.226033 -0.592645,0.338656 -2.003484,0.254259 -4.007149,0.508246 -6.011119,0.761971 -1.97526,0.113152 -3.950706,0.226033 -5.926453,0.338656 -1.721265,-0.112623 -3.442724,-0.225507 -5.164481,-0.338656 -1.947039,-0.22551 -3.894263,-0.451273 -5.841791,-0.67731 2.65e-4,-0.169066 2.65e-4,-0.338389 0,-0.507981 0.197817,-1.439045 0.395362,-2.878299 0.592645,-4.317844 0.141374,-1.523712 0.282477,-3.047627 0.423318,-4.571836 -0.281953,-1.156827 -0.564159,-2.313873 -0.846636,-3.471209 -0.677058,-1.777706 -1.354353,-3.555608 -2.031927,-5.333809 -0.479505,-0.87461 -0.959256,-1.749449 -1.439281,-2.624572 -0.253732,2.65e-4 -0.507718,2.65e-4 -0.761973,0 -0.169066,0.53648 -0.33839,1.072671 -0.507982,1.608609 -0.479505,1.637128 -0.959256,3.273925 -1.439281,4.910492 -0.394841,0.988025 -0.789929,1.975747 -1.185291,2.963225 -0.423062,1.439576 -0.846372,2.878828 -1.269955,4.317846 -0.87461,2.540222 -1.74945,5.080082 -2.624572,7.619726 -0.5641708,1.665351 -1.1285836,3.330368 -1.6932724,4.995156" /></g></svg>
