<?xml version="1.0" encoding="UTF-8" standalone="no"?>
<!-- Created with Inkscape (http://www.inkscape.org/) -->

<svg
   width="250"
   height="250"
   viewBox="0 0 66.145832 66.145833"
   version="1.1"
   id="svg5"
   xml:space="preserve"
   inkscape:version="1.2.2 (732a01da63, 2022-12-09)"
   sodipodi:docname="gira 1.svg"
   xmlns:inkscape="http://www.inkscape.org/namespaces/inkscape"
   xmlns:sodipodi="http://sodipodi.sourceforge.net/DTD/sodipodi-0.dtd"
   xmlns="http://www.w3.org/2000/svg"
   xmlns:svg="http://www.w3.org/2000/svg"><sodipodi:namedview
     id="namedview7"
     pagecolor="#505050"
     bordercolor="#ffffff"
     borderopacity="1"
     inkscape:showpageshadow="0"
     inkscape:pageopacity="0"
     inkscape:pagecheckerboard="1"
     inkscape:deskcolor="#505050"
     inkscape:document-units="mm"
     showgrid="false"
     inkscape:zoom="2.2097881"
     inkscape:cx="152.95585"
     inkscape:cy="129.87671"
     inkscape:window-width="1379"
     inkscape:window-height="1041"
     inkscape:window-x="4109"
     inkscape:window-y="5"
     inkscape:window-maximized="0"
     inkscape:current-layer="layer4" /><defs
     id="defs2"><inkscape:path-effect
       effect="bspline"
       id="path-effect488"
       is_visible="true"
       lpeversion="1"
       weight="33.333333"
       steps="2"
       helper_size="0"
       apply_no_weight="true"
       apply_with_weight="true"
       only_selected="false" /><inkscape:path-effect
       effect="bspline"
       id="path-effect408"
       is_visible="true"
       lpeversion="1"
       weight="33.333333"
       steps="2"
       helper_size="0"
       apply_no_weight="true"
       apply_with_weight="true"
       only_selected="false" /><inkscape:path-effect
       effect="bspline"
       id="path-effect314"
       is_visible="true"
       lpeversion="1"
       weight="33.333333"
       steps="2"
       helper_size="0"
       apply_no_weight="true"
       apply_with_weight="true"
       only_selected="false" /></defs><g
     inkscape:groupmode="layer"
     id="layer4"
     inkscape:label="Layer 2"><path
       style="opacity:1;fill:#f2f2f2;stroke-width:0.277089"
       d="m 25.390113,3.0538759 c -2.63336,2.0064158 -2.549765,5.8517668 -2.382563,9.1746881 0.167202,3.32292 0.417981,6.123283 0.898694,8.693856 0.480712,2.570573 1.191252,4.911174 1.609191,6.708455 0.417939,1.797281 0.54333,3.051176 0.522401,4.430472 -0.02093,1.379297 -0.188115,2.88397 -0.271697,4.597694 -0.08358,1.713724 -0.08358,3.636362 0.125437,5.809864 0.209017,2.173502 0.626982,4.597697 1.10766,7.210059 0.480678,2.612362 1.024032,5.412724 1.044868,7.293504 0.02083,1.880781 -0.480722,2.842098 -0.731479,3.970724 -0.250757,1.128626 -0.250757,2.424315 -0.0207,3.19752 0.230055,0.773205 0.689817,1.023984 3.908242,1.170185 3.218425,0.146202 9.19532,0.187998 12.476291,-0.02101 3.280971,-0.209006 3.866121,-0.668766 4.200463,-1.128419 0.334342,-0.459652 0.417935,-0.919411 0.313616,-1.253789 -0.104319,-0.334377 -0.396894,-0.543359 -0.73137,-0.564397 -0.334475,-0.02104 -0.710642,0.146148 -1.421118,0.167093 -0.710475,0.02094 -1.755389,-0.104446 -3.260097,-0.543279 -1.504707,-0.438834 -3.469141,-1.191171 -4.86937,-1.88078 -1.400229,-0.689609 -2.236158,-1.316556 -2.842285,-1.964372 -0.606127,-0.647816 -0.982296,-1.31656 -1.003298,-3.155714 -0.021,-1.839154 0.313371,-4.848497 0.731347,-8.317714 0.417976,-3.469218 0.919533,-7.398085 1.358396,-9.801492 0.438862,-2.403406 0.81503,-3.281131 1.107618,-4.179747 0.292588,-0.898616 0.50157,-1.818138 0.376254,-2.946613 C 37.511296,28.592191 37.051535,27.254703 36.863386,25.394667 36.675238,23.534632 36.75883,21.152233 36.988711,18.142781 37.218592,15.13333 37.59476,11.497038 38.012729,8.5293904 38.430698,5.5617433 38.890458,3.2629381 39.016037,2.071675 39.141616,0.88041199 38.932632,0.79681847 36.153026,0.83854643 33.37342,0.8802744 28.023473,1.0474602 25.390113,3.0538759 Z"
       id="path486"
       inkscape:path-effect="#path-effect488"
       inkscape:original-d="m 22.673153,1.2146577 c 0.08387,3.8456281 0.167466,7.6909791 0.250783,11.5360533 0.251066,2.800751 0.501845,5.601114 0.752352,8.401255 0.710845,2.340973 1.421384,4.681574 2.131661,7.021946 0.125673,1.254219 0.251061,2.508114 0.376178,3.761755 -0.166917,1.505011 -0.334104,3.009684 -0.501569,4.514109 2.76e-4,1.922989 2.76e-4,3.845627 0,5.768027 0.418258,2.424566 0.836223,4.848761 1.253919,7.272729 0.543653,2.800752 1.087005,5.601114 1.630094,8.401256 -0.501302,0.961633 -1.002857,1.922951 -1.504703,2.884014 2.77e-4,1.296016 2.77e-4,2.591705 0,3.887145 0.460057,0.251067 0.919818,0.501847 1.37931,0.752352 5.97741,0.04208 11.954305,0.08388 17.931039,0.125391 0.585452,-0.4595 1.170601,-0.919261 1.755487,-1.379309 0.08388,-0.459504 0.167466,-0.919265 0.250785,-1.379311 -0.292309,-0.208715 -0.584886,-0.417695 -0.877745,-0.626959 -0.375905,0.16747 -0.752073,0.334654 -1.128527,0.501568 -1.044674,-0.125117 -2.089588,-0.250508 -3.134795,-0.376176 -1.964236,-0.752091 -3.928671,-1.504425 -5.89342,-2.257056 -0.835685,-0.626692 -1.671614,-1.25364 -2.507836,-1.880877 -0.375906,-0.668492 -0.752075,-1.337236 -1.128528,-2.006268 0.334664,-3.00919 0.669034,-6.018533 1.003136,-9.028217 0.501852,-3.928746 1.00341,-7.857613 1.504701,-11.786837 0.376463,-0.877484 0.75263,-1.755209 1.128527,-2.633228 0.209269,-0.919283 0.41825,-1.838805 0.626959,-2.758623 -0.459503,-1.337262 -0.919264,-2.67475 -1.37931,-4.012539 0.08388,-2.382216 0.167465,-4.764615 0.250783,-7.147337 0.376462,-3.63616 0.75263,-7.272452 1.128527,-10.9090937 0.460057,-2.2986199 0.919818,-4.5974251 1.37931,-6.89655335 C 39.141559,0.88055485 38.932575,0.79696192 38.723312,0.7130903 33.373429,0.88055985 28.023482,1.0477457 22.673153,1.2146577 Z" /></g></svg>
