<?xml version="1.0" encoding="UTF-8" standalone="no"?>
<!-- Created with Inkscape (http://www.inkscape.org/) -->

<svg
   width="250"
   height="250"
   viewBox="0 0 66.145832 66.145833"
   version="1.1"
   id="svg5"
   xml:space="preserve"
   inkscape:version="1.2.2 (732a01da63, 2022-12-09)"
   sodipodi:docname="L. reka.svg"
   xmlns:inkscape="http://www.inkscape.org/namespaces/inkscape"
   xmlns:sodipodi="http://sodipodi.sourceforge.net/DTD/sodipodi-0.dtd"
   xmlns="http://www.w3.org/2000/svg"
   xmlns:svg="http://www.w3.org/2000/svg"><sodipodi:namedview
     id="namedview7"
     pagecolor="#505050"
     bordercolor="#ffffff"
     borderopacity="1"
     inkscape:showpageshadow="0"
     inkscape:pageopacity="0"
     inkscape:pagecheckerboard="1"
     inkscape:deskcolor="#505050"
     inkscape:document-units="mm"
     showgrid="false"
     inkscape:zoom="1.5625561"
     inkscape:cx="167.67398"
     inkscape:cy="154.23446"
     inkscape:window-width="1379"
     inkscape:window-height="1041"
     inkscape:window-x="4109"
     inkscape:window-y="5"
     inkscape:window-maximized="0"
     inkscape:current-layer="layer3" /><defs
     id="defs2"><inkscape:path-effect
       effect="bspline"
       id="path-effect408"
       is_visible="true"
       lpeversion="1"
       weight="33.333333"
       steps="2"
       helper_size="0"
       apply_no_weight="true"
       apply_with_weight="true"
       only_selected="false" /><inkscape:path-effect
       effect="bspline"
       id="path-effect314"
       is_visible="true"
       lpeversion="1"
       weight="33.333333"
       steps="2"
       helper_size="0"
       apply_no_weight="true"
       apply_with_weight="true"
       only_selected="false" /></defs><g
     inkscape:groupmode="layer"
     id="layer3"
     inkscape:label="Layer 1"
     style="fill:#f2f2f2"><path
       style="opacity:1;fill:#f2f2f2;stroke-width:0.332354"
       d="m 2.5730209,57.223647 c -0.5134856,0.07157 -0.9874517,0.167026 -1.3299294,0.441546 -0.34247771,0.27452 -0.55312502,0.727908 -0.51355993,1.706428 0.0395651,0.978519 0.32920523,2.481857 0.63210543,3.484115 0.3029001,1.002259 0.6188716,1.503373 1.1060688,1.76568 0.4871972,0.262306 1.1454721,0.286166 1.8432217,0.226473 0.6977495,-0.05969 1.4350153,-0.202867 2.975475,-0.190893 1.5404597,0.01197 3.8839125,0.179011 5.9509445,0.286386 2.067031,0.107375 3.857533,0.1551 5.8719,0.11929 2.014366,-0.03581 4.252496,-0.155122 6.319497,-0.441505 2.067001,-0.286382 3.96283,-0.739769 5.95086,-1.288629 1.98803,-0.54886 4.068174,-1.193149 6.056226,-1.777796 1.988052,-0.584648 3.883877,-1.109622 5.727114,-1.551085 1.843238,-0.441463 3.633739,-0.799401 4.937105,-1.157361 1.303367,-0.35796 2.119625,-0.715897 2.751478,-1.228892 0.631853,-0.512994 1.079479,-1.181145 1.500774,-2.016311 0.421296,-0.835166 0.81626,-1.837392 1.23757,-2.780011 0.42131,-0.94262 0.868935,-1.825532 1.632573,-2.994871 0.763638,-1.169339 1.843205,-2.624952 2.804307,-3.973215 0.961102,-1.348264 1.803693,-2.589117 2.514636,-4.068579 0.710944,-1.479461 1.290224,-3.197561 1.803696,-4.975353 0.513472,-1.777792 0.961098,-3.615207 1.250758,-5.20208 0.28966,-1.586872 0.421314,-2.923174 0.40818,-4.307205 -0.01313,-1.384032 -0.171121,-2.815785 -0.144828,-4.140245 0.02629,-1.32446 0.23694,-2.54145 0.487087,-3.722697 0.250146,-1.181246 0.539787,-2.326648 0.789944,-3.543654 0.250158,-1.217007 0.460805,-2.505583 0.316057,-3.961174 C 65.307533,10.476417 64.807245,8.8537651 64.214858,7.5770802 63.622472,6.3003953 62.937866,5.3697576 62.082129,4.4867808 61.226392,3.603804 60.199486,2.7686152 59.027745,2.1242311 57.856004,1.479847 56.539459,1.02646 54.972681,0.83547947 53.405903,0.64449897 51.58907,0.71608649 50.1539,1.0262797 48.71873,1.336473 47.665492,1.8853116 46.691164,2.5654373 45.716836,3.245563 44.821584,4.0568887 44.057924,4.9995448 43.294264,5.942201 42.662322,7.016014 42.293692,8.1257551 41.925061,9.2354963 41.819737,10.380898 41.767086,11.45476 c -0.05265,1.073862 -0.05265,2.076088 0.105398,3.126105 0.158048,1.050017 0.47402,2.147693 0.895376,3.197679 0.421356,1.049985 0.947975,2.052212 1.342945,2.815833 0.39497,0.763622 0.658279,1.288598 0.737153,1.873178 0.07887,0.58458 -0.02645,1.228868 -0.342437,2.004341 -0.315987,0.775472 -0.842606,1.682247 -1.435075,2.827705 -0.592468,1.145457 -1.250741,2.529484 -1.777374,3.889724 -0.526633,1.36024 -0.921597,2.696543 -1.303401,4.307336 -0.381804,1.610793 -0.750437,3.495933 -0.868869,4.784606 -0.118432,1.288673 0.01322,1.980689 0.144885,2.648859 0.131661,0.668171 0.263317,1.312462 0.210597,1.801494 -0.05272,0.489031 -0.2897,0.823106 -0.789895,1.145197 -0.500194,0.322091 -1.263793,0.632306 -2.382818,0.811312 -1.119026,0.179006 -2.593558,0.226731 -4.054984,0.334105 -1.461426,0.107373 -2.909625,0.27441 -4.410557,0.536894 -1.500932,0.262484 -3.054458,0.620422 -4.673899,1.157338 -1.619442,0.536916 -3.304623,1.252793 -4.726574,1.992559 -1.421952,0.739767 -2.580514,1.503368 -4.041892,2.290849 -1.461379,0.78748 -3.22555,1.598807 -4.5552916,2.195385 -1.329741,0.596579 -2.2249923,0.978378 -3.093892,1.252816 -0.8688996,0.274438 -1.7114892,0.441476 -2.4092564,0.548874 -0.6977672,0.107398 -1.2507184,0.155123 -1.7642041,0.226698 z"
       id="path406"
       inkscape:path-effect="#path-effect408"
       inkscape:original-d="m 2.5332275,57.199825 c -0.473617,0.09577 -0.9475832,0.191221 -1.4218989,0.286355 -0.21030661,0.453723 -0.42095406,0.907111 -0.63195485,1.360192 0.2900011,1.503714 0.57964115,3.007052 0.86893835,4.510107 0.3163328,0.501448 0.6323041,1.002562 0.9479323,1.50337 0.6586482,0.02416 1.3169224,0.04804 1.9748589,0.07158 0.7376459,-0.142862 1.4749114,-0.286037 2.211842,-0.42953 2.3438964,0.167358 4.6873497,0.334395 7.0304997,0.501122 1.790925,0.04805 3.581427,0.09577 5.371619,0.143177 2.238567,-0.118995 4.476697,-0.238314 6.714521,-0.357946 1.89625,-0.45309 3.792079,-0.906478 5.687596,-1.360189 2.080573,-0.643999 4.160717,-1.288285 6.240554,-1.932905 1.896253,-0.524681 3.792078,-1.049656 5.687597,-1.574957 1.790924,-0.357636 3.581425,-0.715574 5.371617,-1.073836 0.81664,-0.357634 1.632898,-0.715572 2.448826,-1.073835 0.447993,-0.66786 0.895616,-1.336013 1.342903,-2.004491 0.395329,-1.00195 0.790293,-2.004176 1.184916,-3.00674 0.447992,-0.882632 0.895619,-1.765543 1.342903,-2.648791 1.079962,-1.455356 2.15953,-2.910969 3.238771,-4.366931 0.84297,-1.240583 1.685562,-2.481436 2.527818,-3.722628 0.579654,-1.717855 1.158934,-3.435955 1.737879,-5.154409 0.447992,-1.83717 0.895619,-3.674585 1.342903,-5.512352 0.13201,-1.336039 0.263664,-2.672341 0.394972,-4.008984 -0.157642,-1.431491 -0.315626,-2.863245 -0.473968,-4.295342 0.211006,-1.21672 0.421656,-2.43371 0.631956,-3.651038 0.290001,-1.145131 0.579644,-2.290532 0.868939,-3.436273 0.211007,-1.288311 0.421652,-2.576887 0.631955,-3.865805 C 65.307764,10.476346 64.807475,8.8536943 64.306828,7.2306943 63.622547,6.3003398 62.937942,5.3697017 62.252972,4.4387279 61.226377,3.6038226 60.199471,2.7686342 59.172195,1.9331126 57.855943,1.4800229 56.539399,1.0266351 55.222476,0.5729217 53.405916,0.64482829 51.589083,0.71641618 49.771863,0.78768874 48.718934,1.3368652 47.665696,1.885703 46.61209,2.4342358 45.717151,3.2459106 44.821899,4.0572364 43.926279,4.868262 c -0.631617,1.0741735 -1.263558,2.1479866 -1.895863,3.2215056 -0.104978,1.1457633 -0.210305,2.2911644 -0.31598,3.4362704 3.49e-4,1.002584 3.49e-4,2.00481 0,3.00674 0.316337,1.098035 0.632305,2.195712 0.947936,3.293095 0.526988,1.002581 1.053607,2.004807 1.579886,3.006737 0.263668,0.525313 0.526979,1.050288 0.789943,1.574957 -0.104978,0.644632 -0.210302,1.28892 -0.315978,1.932903 -0.52629,0.90713 -1.052909,1.813905 -1.579887,2.720382 -0.657951,1.3844 -1.316225,2.768426 -1.97486,4.152166 -0.394629,1.336668 -0.789594,2.67297 -1.184915,4.008981 -0.368299,1.885532 -0.736932,3.770672 -1.10592,5.655533 0.132007,0.692355 0.263664,1.384371 0.394971,2.076082 0.132008,0.644627 0.263665,1.288918 0.394974,1.932903 -0.236642,0.334404 -0.473619,0.668481 -0.710953,1.002242 -0.763277,0.310545 -1.526876,0.620759 -2.290834,0.930659 -1.474243,0.04805 -2.948775,0.09577 -4.423686,0.14318 -1.447912,0.16736 -2.896111,0.334396 -4.34469,0.501123 -1.553238,0.358267 -3.106764,0.716205 -4.660669,1.073834 -1.684899,0.716219 -3.370079,1.432096 -5.05564,2.147671 -1.158258,0.763946 -2.31682,1.527548 -3.475752,2.290846 -1.763895,0.811675 -3.528067,1.623001 -5.2926239,2.434029 -0.8949386,0.382129 -1.7901896,0.763929 -2.6858085,1.145421 -0.8422744,0.167361 -1.6848641,0.334399 -2.5278204,0.501126 -0.552622,0.04804 -1.1055727,0.09577 -1.6588817,0.143177 z" /></g></svg>
