<?xml version="1.0" encoding="UTF-8" standalone="no"?>
<!-- Generator: Adobe Illustrator 27.0.0, SVG Export Plug-In . SVG Version: 6.00 Build 0)  -->

<svg
   version="1.1"
   x="0px"
   y="0px"
   viewBox="0 0 755.90553 755.90553"
   xml:space="preserve"
   id="svg168"
   sodipodi:docname="Głowa.svg"
   inkscape:version="1.2.2 (732a01da63, 2022-12-09)"
   width="200mm"
   height="200mm"
   xmlns:inkscape="http://www.inkscape.org/namespaces/inkscape"
   xmlns:sodipodi="http://sodipodi.sourceforge.net/DTD/sodipodi-0.dtd"
   xmlns="http://www.w3.org/2000/svg"
   xmlns:svg="http://www.w3.org/2000/svg"><defs
   id="defs172" /><sodipodi:namedview
   id="namedview170"
   pagecolor="#505050"
   bordercolor="#eeeeee"
   borderopacity="1"
   inkscape:showpageshadow="0"
   inkscape:pageopacity="0"
   inkscape:pagecheckerboard="0"
   inkscape:deskcolor="#505050"
   showgrid="false"
   inkscape:zoom="0.47270999"
   inkscape:cx="21.15462"
   inkscape:cy="435.78516"
   inkscape:window-width="1858"
   inkscape:window-height="1057"
   inkscape:window-x="1912"
   inkscape:window-y="-8"
   inkscape:window-maximized="1"
   inkscape:current-layer="svg168"
   inkscape:document-units="mm" />
<style
   type="text/css"
   id="style88">
	.st0{display:none;}
	.st1{display:inline;fill:none;stroke:#000000;stroke-width:9;stroke-miterlimit:10;}
	.st2{display:inline;fill:none;}
	.st3{display:inline;fill:none;stroke:#000000;stroke-miterlimit:10;}
	.st4{display:inline;fill:none;stroke:#000000;stroke-width:10;stroke-miterlimit:10;}
	.st5{display:inline;}
	.st6{fill:none;}
	.st7{fill:none;stroke:#000000;stroke-width:9;stroke-miterlimit:10;}
	.st8{fill:none;stroke:#000000;stroke-width:10;stroke-miterlimit:10;}
</style>

<g
   id="Warstwa_2"
   transform="matrix(1.0726002,0,0,1.0138851,-55.227277,-5.9620182)"
   style="display:none">
	
	<path
   class="st7"
   d="m 560.61,545.74 c 0,0 -15.59,5.12 -22.18,8.1 -8.6,3.9 -16.08,-4.45 -16.08,-4.45 l -22.01,-23.71 c -0.35,12.96 -0.7,21.62 -1.04,23.84 -0.89,5.9 -27.91,4.05 -84.26,4.05 -62.61,-0.01 -79.77,-7.75 -79.77,-7.75 -11.69,7.09 -22.29,11.26 -30.54,12 h -0.05 c -4.29,0.84 -8.67,1.27 -13.1,1.27 -7.76,0 -15.32,-1.31 -22.61,-3.79 -34.79,-6.4 -81.27,-43.88 -118.23,-99.02 -15.26,-22.77 -27.12,-45.9 -35.27,-67.64 -15.78,-2.51 -31.83,-20.16 -38.82,-44.53 -7.21,-25.15 -2.43,-49.37 10.53,-59.32 -1.97,-9.78 -3.27,-19.81 -3.85,-30.04 -1.28,-10.09 -1.94,-20.42 -1.94,-30.92 0,-49.82 12,-98.35 37.04,-133.18 17.1,-23.77 38.98,-43.39 63.81,-57.08 C 207.22,19.79 235.18,12 264.26,12 c 10.89,0 19.7,0.88 27.74,2.71 13.47,3.07 24.77,8.83 40.09,17.64 29.74,2.74 60.15,12.68 86.08,30.52 17.1,11.76 33.18,24.1 46.18,41.09 16.18,21.14 27.99,47.9 35.67,71.11 0.02,0.04 0.03,0.08 0.04,0.12 0.01,0.03 0.02,0.06 0.03,0.1 0.35,1.21 2.09,7.21 4.34,14.97 0.01,0.01 0.01,0.02 0.01,0.03 3.93,13.59 9.38,32.58 11.56,40.84 4.15,15.76 10.96,65.74 10.96,65.74 0,0 11.75,81.81 13.56,118.96 2.71,55.48 14.95,110.88 18,125.21 z"
   id="path131"
   style="display:inline" />
	
	<path
   class="st7"
   d="m 120.26,296.32 c 4.37,-26.74 11.53,-50.05 21.77,-68.78"
   id="path135"
   style="display:inline" />
	<path
   class="st7"
   d="m 226.07,194.67 c 17.67,-5.44 49.5,-17.28 65.93,-36.85"
   id="path137"
   style="display:inline" />
	
	<path
   class="st7"
   d="m 330.15,258.84 c 0,0 -12.79,-33.71 -22.7,-60.13 -6.03,-16.08 -15.46,-56.74 -15.46,-56.74"
   id="path141"
   style="display:inline" />
	<path
   class="st7"
   d="m 384.12,501.9 c -16.16,18.32 -19.57,23.81 -49.56,44.49"
   id="path143"
   style="display:inline" />
	<path
   class="st7"
   d="M 120.26,298.3"
   id="path145" />
	<path
   class="st7"
   d="m 141.31,228.96 c 9.39,-18.78 13.49,-22.43 25.04,-22.43"
   id="path147"
   style="display:inline" />
	<path
   class="st7"
   d="m 166.36,206.52 c 9.5,-0.94 34.55,-3.76 61.3,-12"
   id="path149" />
	<line
   class="st8"
   x1="293.39459"
   y1="15.486116"
   x2="293.39459"
   y2="560.29608"
   id="line151"
   style="display:inline" />
	<line
   class="st7"
   x1="395.92001"
   y1="251.35001"
   x2="328.09"
   y2="255.53"
   id="line153"
   style="display:inline" />
	<g
   id="g157"
   style="display:inline">
		<path
   d="m 397.06,198.56 c 2.83,58.65 2.57,117.6 6.48,176.17 0,0 -8.98,0.62 -8.98,0.62 -0.57,-10.2 -0.91,-22.98 -1.13,-33.25 -0.52,-33.11 -0.31,-66.3 0.05,-99.39 0.23,-14.72 0.48,-29.43 1.3,-44.15 0,0 2.28,0 2.28,0 z"
   id="path155" />
	</g>
	<path
   class="st7"
   d="m 423.31,550.36 c 0,0 -12.36,-30.27 -15.91,-70.45 -3.31,-37.52 -8.59,-82.32 -8.81,-108.22"
   id="path159"
   style="display:inline" />
	<path
   class="st7"
   d="m 406.49,463 c -8.89,24.31 -13.72,29.52 -23.07,39.71"
   id="path161"
   style="display:inline" />
	<path
   class="st7"
   d="m 120.59,292.96 c -1.36,5.33 1.94,5.22 -3.84,5.76 l -16.22,2.34 C 91.68,304.01 87.79,291.02 87.17,284.8"
   id="path163"
   style="display:inline" />
</g>

<g
   inkscape:groupmode="layer"
   id="layer1"
   inkscape:label="Layer 1"
   style="display:none"><path
     style="fill:#f2f2f2;stroke-width:10.2944"
     d="m 512.93073,551.69805 c -1.47332,-0.81557 -8.66222,-7.71519 -18.86126,-18.10231 -9.06428,-9.23146 -16.59025,-16.66549 -16.72437,-16.52011 -0.13411,0.1454 -0.49125,7.60463 -0.79365,16.57608 -0.30238,8.97144 -0.75474,16.51654 -1.00522,16.76689 -1.13713,1.13642 -11.86309,1.54413 -40.72933,1.54818 l -30.76392,0.004 -2.37838,-6.47682 c -5.56093,-15.14345 -9.44593,-30.21075 -12.27374,-47.60164 -1.28219,-7.88526 -7.65418,-69.16885 -9.79735,-94.22739 -0.59691,-6.97909 -1.31533,-19.46958 -1.5965,-27.75662 -0.28117,-8.28704 -0.63238,-16.13854 -0.78047,-17.44775 -0.2498,-2.20854 -1.39797,-28.21471 -2.11257,-47.85027 -0.16932,-4.65273 -0.77083,-24.75731 -1.33668,-44.67681 -1.13199,-39.84837 -1.98722,-63.56193 -2.41696,-67.01519 -0.23815,-1.91379 -0.46071,-2.24707 -1.50061,-2.24707 -0.99147,0 -1.27897,0.35705 -1.5294,1.89937 -0.16962,1.04465 -0.59033,12.04863 -0.9349,24.45329 -0.34456,12.40465 -0.65354,22.59225 -0.68664,22.63912 -0.0331,0.0469 -12.79702,0.81726 -28.36429,1.71199 -15.56728,0.89472 -30.23578,1.77403 -32.59663,1.954 l -4.2925,0.32723 -11.66247,-29.26828 c -13.66308,-34.2889 -14.90754,-37.94714 -22.04165,-64.79439 l -2.41555,-9.09032 V 82.233891 c 0,-63.395763 0.014,-64.269532 1.03296,-64.269532 2.05307,0 12.67617,4.500711 23.03878,9.760902 l 10.58099,5.37104 5.81953,0.647314 c 28.173,3.133713 56.25628,12.370044 79.15676,26.033928 11.32759,6.758756 26.72504,17.710561 35.64693,25.354715 6.65481,5.701761 16.18762,15.676952 20.95659,21.929092 12.8232,16.8113 24.38621,38.45413 32.90436,61.5881 4.44506,12.07206 19.14698,61.13903 21.2283,70.84841 4.86559,22.69807 15.94711,97.72309 20.89018,141.43249 1.56734,13.85931 2.54645,24.81538 3.47284,38.86088 2.47946,37.59149 8.15615,75.85151 17.24991,116.26141 1.13817,5.05764 2.06938,9.36208 2.06938,9.56544 0,0.20336 -1.01181,0.6684 -2.24845,1.03343 -1.23667,0.36499 -5.79408,1.94919 -10.12763,3.52033 -4.33353,1.57119 -8.73787,2.85386 -9.7874,2.85038 -1.04955,-0.005 -2.97959,-0.59941 -4.28899,-1.32417 z"
     id="path773" /><path
     style="fill:#f2f2f2;stroke-width:7.27931"
     d="m 48.402504,295.42213 c -2.25878,-1.982 -3.501227,-5.19629 -5.108488,-13.216 -1.728482,-8.62456 -2.754613,-15.74674 -3.535204,-24.53716 -0.319538,-3.59841 -0.825624,-8.70946 -1.124632,-11.35789 C 36.358286,226.1527 37.268051,200.34243 41.066724,177.29911 46.663947,143.34554 59.098881,112.63043 76.337025,90.179156 84.492233,79.557665 96.553717,66.830608 106.1507,58.720318 124.30834,43.37551 143.82604,31.971464 166.15864,23.658094 187.81803,15.595334 213.97561,11.538618 236.56,12.739717 c 7.18282,0.382001 14.26902,1.109201 16.89034,1.733317 l 0.84171,0.200406 v 62.770403 c 0,47.521387 0,75.462587 0,75.462587 l -3.21604,3.04237 c -12.03868,11.38849 -31.36794,21.577 -56.26497,29.65736 -4.42364,1.4357 -8.56776,2.84072 -9.2091,3.12225 -1.9608,0.86074 -15.70357,4.17988 -24.52805,5.92396 -13.33573,2.63571 -27.52093,4.67142 -38.08895,5.46613 -9.62825,0.72401 -13.89066,2.30051 -18.48605,6.83726 -3.72917,3.68159 -5.971935,6.99156 -11.55602,17.05497 -9.58194,17.26814 -16.164454,35.15153 -20.989593,57.02456 -0.952562,4.3181 -2.005381,8.95646 -2.339598,10.30746 l -0.607666,2.45637 -8.830065,1.19406 c -4.856536,0.65673 -9.187092,1.28974 -9.623459,1.40668 -0.556091,0.14903 -1.199147,-0.14341 -2.149985,-0.97773 z"
     id="path775"
     sodipodi:nodetypes="sssssssssscscssssssssscsss" /><path
     style="fill:#f2f2f2;stroke-width:10.2944"
     d="m 248.14158,556.89198 c -3.7728,-0.49416 -18.05938,-4.10612 -24.9573,-6.30975 -48.24082,-15.41109 -107.61314,-75.767 -140.361943,-142.68718 -2.846141,-5.81592 -6.178767,-13.0726 -7.405837,-16.12596 -1.22707,-3.05335 -2.449385,-5.78156 -2.716255,-6.06267 -0.266872,-0.28112 -1.93804,-0.80728 -3.713709,-1.16925 -14.405781,-2.9367 -28.636008,-18.20469 -35.598307,-38.1944 -5.501403,-15.79527 -5.950531,-32.70318 -1.187917,-44.72035 1.595125,-4.0249 1.756244,-4.22978 3.326223,-4.22978 1.335106,0 1.994577,0.45396 3.456417,2.37926 2.232271,2.93996 6.01682,5.54568 8.723308,6.00613 2.793401,0.47524 25.81327,-2.61522 28.213674,-3.78772 2.430826,-1.18738 2.887409,-2.30248 4.263942,-10.41357 1.447952,-8.53193 5.024331,-22.72445 7.927319,-31.45881 3.189289,-9.59578 6.391704,-17.18151 11.048703,-26.17162 9.392652,-18.13206 13.505962,-23.10432 19.671982,-23.77991 1.28583,-0.14088 5.19475,-0.51166 8.68648,-0.82394 9.1584,-0.8191 23.41561,-2.91667 34.3882,-5.05932 9.7709,-1.908 27.84032,-6.2993 29.32459,-7.12657 0.45716,-0.2548 4.49908,-1.66747 8.98205,-3.13928 18.55503,-6.09176 36.39387,-14.60422 47.78802,-22.80382 2.00506,-1.4429 4.14485,-2.56402 4.89371,-2.56402 h 1.33073 v 194.30442 194.30445 l -2.24847,-0.0792 c -1.23666,-0.0436 -2.96268,-0.17277 -3.83561,-0.28712 z"
     id="path777" /><path
     style="fill:#f2f2f2;stroke-width:10.2944"
     d="M 265.33569,375.77613 V 194.4897 l 1.60597,0.16567 1.60597,0.16569 12.88929,32.25189 12.88928,32.25189 4.9473,-0.14673 c 5.48351,-0.16264 57.0284,-3.06072 63.60278,-3.57604 l 4.16341,-0.32633 -0.36909,24.49513 c -0.3182,21.11723 -0.0142,48.73201 1.03501,94.02176 0.37128,16.02641 1.5372,30.95146 5.33461,68.28907 l 2.40148,23.6123 -2.21206,5.20293 c -7.01436,16.49826 -10.90496,21.65019 -33.298,44.09331 -10.77074,10.79483 -15.41737,14.6077 -29.09773,23.87662 -16.02482,10.85739 -27.19222,15.69985 -40.33999,17.49244 l -5.15823,0.70327 z"
     id="path779" /><path
     style="fill:#f2f2f2;stroke-width:10.2944"
     d="m 369.29387,551.61838 c -10.66124,-0.30293 -26.97893,-1.37671 -35.44631,-2.33248 -15.00859,-1.69415 -14.0198,-1.47716 -14.0198,-3.07661 0,-1.15303 0.80526,-1.96493 4.62918,-4.66737 8.7026,-6.15032 13.6261,-10.36211 22.36371,-19.13099 12.40018,-12.44455 21.7287,-22.66114 25.16109,-27.5565 2.54439,-3.62884 3.16973,-4.21477 4.49833,-4.21477 0.8487,0 1.54563,0.17843 1.54871,0.39653 0.003,0.21811 0.46935,3.37059 1.03616,7.00554 2.32769,14.92771 6.12806,30.57706 10.8794,44.79979 1.59072,4.76165 2.89221,8.76377 2.89221,8.89357 0,0.22831 -13.80988,0.15985 -23.54268,-0.11671 z"
     id="path781" /></g><ellipse
   style="display:none;fill:none;stroke:#000000;stroke-width:9;stroke-dasharray:none;stroke-opacity:1"
   id="path1575"
   cx="179.12892"
   cy="313.7561"
   rx="19.820112"
   ry="19.072184" /><ellipse
   style="display:none;fill:none;stroke:#000000;stroke-width:9;stroke-dasharray:none;stroke-opacity:1"
   id="path1575-7"
   cx="323.10522"
   cy="314.13007"
   rx="19.820112"
   ry="19.072184" /><rect
   style="display:none;opacity:1;fill:none;stroke:#000000;stroke-width:8.36359;stroke-dasharray:none;stroke-opacity:1"
   id="rect2567"
   width="104.59851"
   height="24.570126"
   x="203.86633"
   y="422.26157"
   rx="28.122356" /><g
   inkscape:groupmode="layer"
   id="layer2"
   inkscape:label="Layer 2"
   style="display:inline"><path
     style="opacity:1;fill:#f2f2f2;fill-opacity:1;stroke:none;stroke-width:9.40326;stroke-dasharray:none;stroke-opacity:1"
     d="m 319.01108,751.70707 c -9.1087,-1.58455 -33.89937,-8.20574 -41.97991,-11.21214 C 249.88804,730.39619 216.59442,708.17291 186.14838,679.8313 139.40692,636.32057 97.863473,577.93485 75.038128,523.67543 l -3.124024,-7.42629 -5.637956,-1.13208 C 40.853231,510.0122 16.66569,478.59366 10.767389,443.0136 8.818975,431.26027 9.8845513,413.77354 13.098161,404.76429 c 2.223981,-6.23487 2.935888,-7.23199 5.359324,-7.50655 2.130463,-0.24137 3.930408,0.78101 7.57337,4.30179 6.506406,6.28815 9.060443,6.60391 31.00429,3.83315 22.51133,-2.84241 22.756447,-2.982 24.668073,-14.04833 3.815301,-22.08662 12.745998,-51.35153 21.450652,-70.29144 6.44631,-14.02613 17.61736,-32.98884 22.76065,-38.63593 4.94459,-5.42893 6.88,-5.98612 28.36525,-8.16608 35.2375,-3.5753 68.9996,-10.50193 97.24461,-19.95069 28.09633,-9.39902 48.00073,-18.26986 64.47112,-28.733 4.48989,-2.8523 9.3774,-5.1734 10.89352,-5.1734 h 2.74989 v 171.53132 171.53131 h -22.14842 c -24.59455,0 -33.51654,1.40093 -44.01181,6.91071 -6.53258,3.42947 -11.42291,10.14498 -11.42291,15.68623 0,5.54123 4.89033,12.25676 11.42291,15.68623 10.49527,5.50977 19.41726,6.91071 44.01181,6.91071 h 22.14842 v 71.89935 71.89936 l -3.98543,-0.13988 c -2.192,-0.0769 -5.18106,-0.34787 -6.6424,-0.60208 z m -79.9265,-302.11681 c 6.95679,-3.48835 12.59507,-8.95798 15.86219,-15.38776 2.48305,-4.88666 2.9543,-7.12493 2.9543,-14.0312 0,-6.90628 -0.47125,-9.14454 -2.9543,-14.0312 -3.24445,-6.38515 -8.82666,-11.82383 -15.86219,-15.45441 -3.92671,-2.02629 -6.12447,-2.35553 -15.72394,-2.35553 -9.59949,0 -11.79724,0.32924 -15.72395,2.35553 -23.73053,12.24571 -25.88101,42.24885 -4.04597,56.44904 7.07416,4.60059 10.31996,5.36517 21.36409,5.0325 7.40742,-0.2231 10.59472,-0.80441 14.12977,-2.57697 z"
     id="path2622" /><path
     style="opacity:1;fill:#f2f2f2;fill-opacity:1;stroke:none;stroke-width:9.40326;stroke-dasharray:none;stroke-opacity:1"
     d="m 345.58064,680.7151 v -71.87237 l 19.92719,-0.4314 c 16.75201,-0.36269 21.04181,-0.78528 26.92257,-2.65207 13.07039,-4.14913 21.15087,-11.69454 21.1629,-19.76157 0.008,-5.48003 -4.91149,-12.21505 -11.41747,-15.63054 -9.81798,-5.15422 -19.78883,-6.91071 -39.22926,-6.91071 H 345.58064 V 411.88915 260.32186 l 3.30251,0.32186 3.30249,0.32186 17.2224,41.59893 c 14.82814,35.81582 17.50866,41.56409 19.28163,41.34855 3.33365,-0.40532 92.58686,-5.39887 96.49752,-5.39887 h 3.57323 l 0.66931,76.77823 c 0.88636,101.67419 1.23415,108.86 8.62083,178.11436 l 3.54308,33.21838 -2.6725,6.16279 c -8.98711,20.7244 -13.96283,27.58626 -37.45382,51.65153 -19.12355,19.59105 -30.62455,29.04694 -52.76242,43.3802 -21.10099,13.6619 -38.70549,21.2351 -53.5592,23.04037 -3.21492,0.39073 -6.68224,0.93925 -7.70517,1.21892 -1.75861,0.4808 -1.85989,-3.40505 -1.85989,-71.36387 z m 98.36042,-230.737 c 7.01389,-3.31647 14.59572,-11.26558 16.85371,-17.67013 2.16794,-6.14914 2.16794,-17.09706 0,-23.24621 -2.30928,-6.55005 -9.82952,-14.34645 -17.22278,-17.85526 -5.27488,-2.50344 -7.30073,-2.87634 -15.62568,-2.87634 -8.32495,0 -10.35079,0.3729 -15.62568,2.87634 -7.39326,3.50881 -14.9135,11.30521 -17.22277,17.85526 -2.16135,6.13043 -2.16986,17.09168 -0.018,23.1952 1.92845,5.46984 8.32092,12.92586 13.98026,16.30621 9.54934,5.70386 24.52566,6.31136 34.88094,1.41493 z"
     id="path2624" /><path
     style="opacity:1;fill:#f2f2f2;fill-opacity:1;stroke:none;stroke-width:9.40326;stroke-dasharray:none;stroke-opacity:1"
     d="m 699.48731,746.10976 c -2.83575,-0.77632 -9.50226,-6.74017 -28.05163,-25.09491 -13.38254,-13.24211 -24.57638,-23.84029 -24.8752,-23.55149 -0.29881,0.2888 -0.89487,10.49424 -1.32458,22.67877 -0.42969,12.18453 -1.07952,22.44193 -1.44405,22.79423 -1.70089,1.64385 -15.15964,2.17839 -56.59332,2.24775 l -44.80205,0.075 -3.37761,-8.98742 c -6.97678,-18.56427 -14.14759,-45.64303 -17.47594,-65.99334 -1.72137,-10.52493 -11.20689,-99.68975 -13.82245,-129.93241 -0.87943,-10.16861 -1.84463,-26.11485 -2.14488,-35.4361 -0.30024,-9.32123 -1.01739,-24.80528 -1.59366,-34.40897 -1.30616,-21.76725 -2.87411,-63.2251 -4.31198,-114.01183 -0.60776,-21.46709 -1.56903,-49.89301 -2.13616,-63.16872 -0.56713,-13.27571 -1.03268,-26.79534 -1.03457,-30.04366 -0.003,-5.61411 -0.13471,-5.90602 -2.6604,-5.90602 -2.40601,0 -2.66375,0.41229 -2.72898,4.36532 -0.47162,28.58605 -1.88322,61.59801 -2.66302,62.27754 -1.46128,1.27337 -90.66101,5.80948 -91.73792,4.66517 -0.49142,-0.52216 -8.55737,-19.66889 -17.92436,-42.54829 -16.82568,-41.09773 -20.44987,-51.36018 -28.89074,-81.80896 l -4.31317,-15.55891 V 100.83768 12.912823 h 2.71713 c 3.71502,0 18.73924,6.087203 33.15996,13.435076 11.36031,5.788485 12.59463,6.173902 24.444,7.632662 55.13828,6.788001 101.65749,26.16829 150.06175,62.51698 33.66725,25.282089 58.15048,57.741339 78.73184,104.380729 7.90853,17.92155 11.60004,28.48634 24.94334,71.38578 11.77656,37.86227 13.55065,45.24996 20.10269,83.71139 12.4966,73.35687 24.29173,162.90886 27.19258,206.45387 3.49239,52.42439 12.90133,113.01637 26.07094,167.89222 0.80763,3.36528 1.35662,6.22675 1.21998,6.3588 -0.29472,0.28482 -30.77285,10.67524 -30.91805,10.54039 -0.0549,-0.051 -1.77364,-0.55088 -3.81949,-1.11096 z"
     id="path2626" /><path
     style="opacity:1;fill:#f2f2f2;fill-opacity:1;stroke:none;stroke-width:9.40326;stroke-dasharray:none;stroke-opacity:1"
     d="m 36.647372,391.75612 c -1.276257,-1.31935 -2.864695,-3.78547 -3.529865,-5.48024 -3.709696,-9.45186 -9.47506,-52.28784 -11.197722,-83.19782 -0.756982,-13.58258 0.85101,-43.02957 3.309191,-60.60087 C 32.440831,190.92616 49.741592,146.86466 76.246991,112.54478 114.78166,62.649088 170.94763,26.369346 232.07856,11.887246 255.1672,6.4174778 266.13215,5.2508892 293.50429,5.3519985 c 13.73647,0.050746 27.36666,0.5074001 30.28931,1.0148003 l 5.31392,0.9225442 0.21301,94.670057 0.21303,94.67006 -6.68826,6.04666 c -29.15975,26.36254 -95.83365,49.80336 -162.72023,57.20823 -28.54677,3.16035 -31.35618,3.60934 -35.56314,5.68358 -8.72,4.29939 -15.80557,13.31461 -27.588993,35.10245 -12.085829,22.34698 -20.800855,46.40934 -27.130362,74.90748 -1.453529,6.5444 -2.916348,12.58792 -3.250714,13.43002 -0.422294,1.06358 -3.596874,1.91207 -10.396238,2.77869 -5.383569,0.68618 -11.462187,1.49976 -13.508045,1.808 -2.980845,0.44908 -4.180679,0.0839 -6.040206,-1.83845 z"
     id="path2628" /><path
     style="opacity:1;fill:#f2f2f2;fill-opacity:1;stroke:none;stroke-width:3.32455;stroke-dasharray:none;stroke-opacity:1"
     d="m 495.62629,745.11723 c -28.47896,-0.78603 -54.53823,-2.7966 -71.20471,-5.49376 -3.93859,-0.63737 -3.94554,-0.64034 -4.03638,-1.71799 -0.0843,-0.99983 0.23372,-1.29396 4.308,-3.98468 6.20908,-4.10058 15.25432,-10.69315 20.8071,-15.16515 5.01239,-4.03679 15.49682,-13.39048 16.9484,-15.12053 0.9673,-1.15286 13.60307,-14.19887 21.30301,-21.99463 7.90758,-8.00601 13.30502,-14.687 17.6864,-21.89238 1.34524,-2.21228 1.75933,-2.63281 2.59249,-2.63281 h 0.99154 l 0.8672,6.38671 c 3.45422,25.43939 10.95994,55.1488 19.65662,77.80547 0.80051,2.08555 1.45548,3.85051 1.45548,3.92215 0,0.13795 -25.63182,0.0462 -31.37515,-0.11248 z"
     id="path2632" /></g><ellipse
   style="fill:#f2f2f2;stroke-width:5.15906;stroke-linecap:round;stroke-linejoin:round;stroke-opacity:0.980392"
   id="path3043"
   cx="221.76088"
   cy="427.44128"
   rx="48.241405"
   ry="43.005901" /><ellipse
   style="fill:#f2f2f2;stroke-width:5.15906;stroke-linecap:round;stroke-linejoin:round;stroke-opacity:0.980392"
   id="path3045"
   cx="424.44955"
   cy="422.9537"
   rx="40.762115"
   ry="41.510044" /><rect
   style="fill:#f2f2f2;stroke-width:5.15906;stroke-linecap:round;stroke-linejoin:round;stroke-opacity:0.980392"
   id="rect3101"
   width="106.20588"
   height="155.56918"
   x="223.63069"
   y="477.17853"
   rx="4.576292" /><rect
   style="fill:#f2f2f2;stroke-width:5.15906;stroke-linecap:round;stroke-linejoin:round;stroke-opacity:0.980392"
   id="rect3103"
   width="100.22245"
   height="155.56918"
   x="345.54309"
   y="488.39746"
   rx="4.576292" /></svg>
