<?xml version="1.0" encoding="UTF-8" standalone="no"?>
<!-- Created with Inkscape (http://www.inkscape.org/) -->

<svg
   width="200"
   height="200"
   viewBox="0 0 52.916666 52.916666"
   version="1.1"
   id="svg5"
   inkscape:version="1.1.2 (b8e25be833, 2022-02-05)"
   sodipodi:docname="ring.svg"
   xmlns:inkscape="http://www.inkscape.org/namespaces/inkscape"
   xmlns:sodipodi="http://sodipodi.sourceforge.net/DTD/sodipodi-0.dtd"
   xmlns="http://www.w3.org/2000/svg"
   xmlns:svg="http://www.w3.org/2000/svg">
  <sodipodi:namedview
     id="namedview7"
     pagecolor="#505050"
     bordercolor="#eeeeee"
     borderopacity="1"
     inkscape:pageshadow="0"
     inkscape:pageopacity="0"
     inkscape:pagecheckerboard="0"
     inkscape:document-units="mm"
     showgrid="false"
     width="200mm"
     units="px"
     inkscape:zoom="2.1946698"
     inkscape:cx="47.159715"
     inkscape:cy="109.81151"
     inkscape:window-width="1857"
     inkscape:window-height="1057"
     inkscape:window-x="-8"
     inkscape:window-y="-8"
     inkscape:window-maximized="1"
     inkscape:current-layer="layer1" />
  <defs
     id="defs2">
    <inkscape:path-effect
       effect="bspline"
       id="path-effect858"
       is_visible="true"
       lpeversion="1"
       weight="33.333333"
       steps="2"
       helper_size="0"
       apply_no_weight="true"
       apply_with_weight="true"
       only_selected="false" />
    <inkscape:path-effect
       effect="bspline"
       id="path-effect854"
       is_visible="true"
       lpeversion="1"
       weight="33.333333"
       steps="2"
       helper_size="0"
       apply_no_weight="true"
       apply_with_weight="true"
       only_selected="false" />
    <inkscape:path-effect
       effect="bspline"
       id="path-effect739"
       is_visible="true"
       lpeversion="1"
       weight="33.333333"
       steps="2"
       helper_size="0"
       apply_no_weight="true"
       apply_with_weight="true"
       only_selected="false" />
    <inkscape:path-effect
       effect="bspline"
       id="path-effect735"
       is_visible="true"
       lpeversion="1"
       weight="33.333333"
       steps="2"
       helper_size="0"
       apply_no_weight="true"
       apply_with_weight="true"
       only_selected="false" />
    <inkscape:path-effect
       effect="bspline"
       id="path-effect294"
       is_visible="true"
       lpeversion="1"
       weight="33.333333"
       steps="2"
       helper_size="0"
       apply_no_weight="true"
       apply_with_weight="true"
       only_selected="false" />
    <inkscape:path-effect
       effect="bspline"
       id="path-effect266"
       is_visible="true"
       lpeversion="1"
       weight="33.333333"
       steps="2"
       helper_size="0"
       apply_no_weight="true"
       apply_with_weight="true"
       only_selected="false" />
    <inkscape:path-effect
       effect="spiro"
       id="path-effect3776"
       is_visible="true"
       lpeversion="1" />
    <inkscape:path-effect
       effect="spiro"
       id="path-effect3639"
       is_visible="true"
       lpeversion="1" />
  </defs>
  <g
     inkscape:label="Warstwa 1"
     inkscape:groupmode="layer"
     id="layer1">
    <g
       id="layer6"
       inkscape:label="Warstwa 3"
       style="display:inline"
       transform="matrix(0.58549375,0,0,0.58549375,-36.82119,-45.16856)">
      <path
         style="fill:#ececec;stroke-width:0.113782"
         d="m 434.56995,293.93063 c -11.0371,3.97903 -22.07642,7.96386 -33.10915,11.96086 3.59414,3.29568 7.51721,6.47411 11.27319,9.68411 6.83255,5.72594 13.57742,11.55933 20.50947,17.16504 5.61955,-4.88254 11.10652,-10.02543 16.64325,-15.05014 2.28836,-2.10491 4.5932,-4.19587 6.82601,-6.34416 -6.88349,-5.96292 -13.88482,-11.86568 -20.93304,-17.62231 -0.31483,-0.34869 -0.82635,0.17138 -1.20973,0.2066 z"
         id="path3163"
         transform="scale(0.26458333)" />
      <path
         style="fill:#ececec;stroke-width:0.227563"
         d="m 443.71938,295.96714 c 5.46924,4.78551 11.04937,9.46707 16.64893,14.08545 17.80064,9.17401 35.56049,18.44758 53.38644,27.5597 6.75446,2.07472 13.48251,4.21515 20.25886,6.1974 -3.62476,-3.25746 -7.27589,-6.50948 -11.08099,-9.54682 -20.2307,-10.97754 -40.41307,-22.07122 -60.67416,-32.97588 -6.27584,-1.86894 -12.5434,-3.77882 -18.82976,-5.59185 l 0.16616,0.15548 z"
         id="path3202"
         transform="scale(0.26458333)" />
      <path
         style="fill:#ececec;stroke-width:0.227563"
         d="m 459.5297,313.56198 c -6.9708,5.8199 -13.57726,12.12994 -20.28969,18.27454 -0.9376,0.89327 -1.89439,1.77055 -2.76444,2.73107 8.99574,5.2949 18.31445,10.02552 27.47191,15.03377 14.17789,7.59991 28.35501,15.26357 42.60163,22.69687 1.69543,-10.60444 3.07705,-21.42089 4.51216,-32.07222 -15.94718,-8.65213 -32.10064,-16.92339 -48.28434,-25.12354 -1.0763,-0.50424 -2.16089,-1.12225 -3.24723,-1.54049 z"
         id="path3241"
         transform="scale(0.26458333)" />
      <path
         style="fill:#ececec;stroke-width:0.227563"
         d="m 514.22715,341.81229 c -1.56795,10.6263 -3.0709,21.36092 -4.39793,31.95444 12.92601,4.79514 25.95669,9.28927 39.0298,13.65292 -3.03358,-12.78455 -5.96823,-25.58831 -9.11498,-38.34311 -8.40666,-2.73812 -16.95048,-5.30313 -25.44311,-7.73093 -0.0246,0.15556 -0.0492,0.31112 -0.0738,0.46668 z"
         id="path3280"
         transform="scale(0.26458333)" />
      <path
         id="path3319"
         style="fill:#ececec;stroke-width:0.227563"
         transform="scale(0.26458333)"
         d="m 400.13477,309.45703 c 0.0407,0.54313 0.0804,1.08578 0.12109,1.62891 2.34379,32.4593 4.64518,64.92162 6.96289,97.38281 0.1397,0.0208 0.1333,0.0193 0.29297,0.043 2.7041,0.48178 4.19764,0.68775 6.76367,1.34766 1.18098,0.30342 2.35878,0.62063 3.53125,0.95507 4.57393,-24.98995 9.13945,-49.98306 13.56641,-75 -9.22064,-8.35205 -18.86405,-16.29286 -28.49414,-24.19531 -0.90717,-0.73111 -1.81668,-1.45679 -2.74414,-2.16211 z" />
      <path
         id="path3358"
         style="fill:#ececec;stroke-width:0.227563"
         transform="scale(0.26458333)"
         d="m 434.42773,337.62891 -0.0391,0.22461 -0.0137,0.0742 c -4.47479,24.62237 -8.96774,49.24152 -13.45898,73.86133 0.73049,0.25525 1.45818,0.5192 2.18359,0.78711 6.2493,2.30801 5.14084,1.90744 10.5332,4.30078 2.00614,0.97437 4.04492,1.88707 6.01953,2.92383 1.07985,0.56701 2.0997,1.24079 3.13672,1.88281 1.48683,0.92051 2.97413,1.83941 4.4336,2.80274 0.77327,0.5104 1.51654,1.06693 2.26953,1.60742 1.29218,-1.17554 2.57839,-2.35881 3.87304,-3.53125 16.85602,-15.44214 33.91192,-30.77275 50.53321,-46.39453 0.93884,-0.56688 0.74108,-1.03534 -0.23438,-1.375 -17.00915,-9.47587 -34.24583,-18.52685 -51.39648,-27.74414 -5.93549,-3.15343 -11.86439,-6.33473 -17.83985,-9.41992 z" />
      <path
         id="path3397"
         style="fill:#ececec;stroke-width:0.227563"
         transform="scale(0.26458333)"
         d="m 508.47852,377.04297 -0.13868,0.11719 c -18.79205,16.80394 -37.44746,33.84869 -56.09179,50.88672 0.527,0.37314 1.26618,0.89803 2.54297,1.80078 1.82056,1.34101 3.61599,2.64583 5.23828,4.22851 0.24449,0.23857 0.44271,0.52267 0.66797,0.7793 0.20369,0.23222 0.4108,0.4615 0.61718,0.69141 24.64272,-12.93983 49.24658,-25.95364 73.83985,-38.99024 3.78677,-2.05402 7.82827,-4.12252 11.40625,-6.24414 -12.58393,-4.62689 -25.36097,-8.95523 -38.08203,-13.26953 z" />
      <path
         id="path4067"
         style="fill:#ececec;stroke-width:0.455127"
         transform="scale(0.26458333)"
         d="m 387.86719,387.57617 c -30.14492,0.56034 -60.33056,12.07445 -82.18946,33.19141 -22.56102,21.36671 -37.21669,51.50894 -38.29492,82.61133 -0.59235,12.99622 0.66149,26.09851 4.25391,38.64843 8.19085,30.64798 29.00857,57.39893 56.55469,73.10743 16.92001,9.79563 36.37063,15.71775 55.95312,16.33203 12.15829,0.0319 24.34594,-0.65605 36.07813,-4.03516 27.40768,-7.06961 52.13706,-24.14099 68.33984,-47.42969 15.65499,-21.81169 23.74038,-48.84093 22.33398,-75.54883 -0.98153,-25.47092 -10.19035,-50.5602 -26.15234,-70.54296 -1.27968,-1.53006 -2.52309,-3.32948 -4.07031,-4.49805 -5.61568,2.79543 -11.43052,5.38868 -16.49805,9.02539 2.47433,3.91567 6.21317,6.94657 8.70117,10.90039 19.95498,27.50543 25.38674,65.03218 13.29493,96.88281 -6.04462,16.21984 -16.28991,30.75064 -29.3418,42.09961 -18.39494,16.42597 -43.12904,25.1011 -67.6875,25.14453 -36.95964,0.40509 -72.97432,-21.22782 -90.46875,-53.70898 -17.92019,-32.48456 -16.65961,-74.85428 4.09375,-105.76953 14.71546,-22.42867 38.13793,-39.34453 64.61133,-44.57813 11.93961,-2.53638 24.32015,-3.0635 36.42382,-1.51758 -0.42019,-6.49515 -0.91055,-13.07315 -1.46093,-19.59374 -4.85265,-0.4513 -9.60962,-0.8048 -14.47461,-0.72071 z m 19.0957,44.70117 c -0.42417,0.0744 -0.21369,0.0355 0,0 z" />
    </g>
  </g>
</svg>
