<?xml version="1.0" encoding="UTF-8" standalone="no"?>
<!-- Created with Inkscape (http://www.inkscape.org/) -->

<svg
   width="200"
   height="200"
   viewBox="0 0 52.916666 52.916666"
   version="1.1"
   id="svg5"
   inkscape:version="1.1.2 (b8e25be833, 2022-02-05)"
   sodipodi:docname="Earrings.svg"
   xmlns:inkscape="http://www.inkscape.org/namespaces/inkscape"
   xmlns:sodipodi="http://sodipodi.sourceforge.net/DTD/sodipodi-0.dtd"
   xmlns="http://www.w3.org/2000/svg"
   xmlns:svg="http://www.w3.org/2000/svg">
  <sodipodi:namedview
     id="namedview7"
     pagecolor="#505050"
     bordercolor="#eeeeee"
     borderopacity="1"
     inkscape:pageshadow="0"
     inkscape:pageopacity="0"
     inkscape:pagecheckerboard="0"
     inkscape:document-units="mm"
     showgrid="false"
     width="200mm"
     units="px"
     inkscape:zoom="3.1037318"
     inkscape:cx="75.232017"
     inkscape:cy="85.058897"
     inkscape:window-width="1857"
     inkscape:window-height="1057"
     inkscape:window-x="-8"
     inkscape:window-y="-8"
     inkscape:window-maximized="1"
     inkscape:current-layer="layer1" />
  <defs
     id="defs2">
    <inkscape:path-effect
       effect="bspline"
       id="path-effect858"
       is_visible="true"
       lpeversion="1"
       weight="33.333333"
       steps="2"
       helper_size="0"
       apply_no_weight="true"
       apply_with_weight="true"
       only_selected="false" />
    <inkscape:path-effect
       effect="bspline"
       id="path-effect854"
       is_visible="true"
       lpeversion="1"
       weight="33.333333"
       steps="2"
       helper_size="0"
       apply_no_weight="true"
       apply_with_weight="true"
       only_selected="false" />
    <inkscape:path-effect
       effect="bspline"
       id="path-effect739"
       is_visible="true"
       lpeversion="1"
       weight="33.333333"
       steps="2"
       helper_size="0"
       apply_no_weight="true"
       apply_with_weight="true"
       only_selected="false" />
    <inkscape:path-effect
       effect="bspline"
       id="path-effect735"
       is_visible="true"
       lpeversion="1"
       weight="33.333333"
       steps="2"
       helper_size="0"
       apply_no_weight="true"
       apply_with_weight="true"
       only_selected="false" />
    <inkscape:path-effect
       effect="bspline"
       id="path-effect294"
       is_visible="true"
       lpeversion="1"
       weight="33.333333"
       steps="2"
       helper_size="0"
       apply_no_weight="true"
       apply_with_weight="true"
       only_selected="false" />
    <inkscape:path-effect
       effect="bspline"
       id="path-effect266"
       is_visible="true"
       lpeversion="1"
       weight="33.333333"
       steps="2"
       helper_size="0"
       apply_no_weight="true"
       apply_with_weight="true"
       only_selected="false" />
    <inkscape:path-effect
       effect="spiro"
       id="path-effect3776"
       is_visible="true"
       lpeversion="1" />
    <inkscape:path-effect
       effect="spiro"
       id="path-effect3639"
       is_visible="true"
       lpeversion="1" />
    <inkscape:path-effect
       effect="bspline"
       id="path-effect7870"
       is_visible="true"
       lpeversion="1"
       weight="33.333333"
       steps="2"
       helper_size="0"
       apply_no_weight="true"
       apply_with_weight="true"
       only_selected="false" />
    <inkscape:path-effect
       effect="bspline"
       id="path-effect7851"
       is_visible="true"
       lpeversion="1"
       weight="33.333333"
       steps="2"
       helper_size="0"
       apply_no_weight="true"
       apply_with_weight="true"
       only_selected="false" />
    <inkscape:path-effect
       effect="bspline"
       id="path-effect7724"
       is_visible="true"
       lpeversion="1"
       weight="33.333333"
       steps="2"
       helper_size="0"
       apply_no_weight="true"
       apply_with_weight="true"
       only_selected="false" />
    <inkscape:path-effect
       effect="bspline"
       id="path-effect7602"
       is_visible="true"
       lpeversion="1"
       weight="33.333333"
       steps="2"
       helper_size="0"
       apply_no_weight="true"
       apply_with_weight="true"
       only_selected="false" />
    <inkscape:path-effect
       effect="bspline"
       id="path-effect7574"
       is_visible="true"
       lpeversion="1"
       weight="33.333333"
       steps="2"
       helper_size="0"
       apply_no_weight="true"
       apply_with_weight="true"
       only_selected="false" />
    <inkscape:path-effect
       effect="bspline"
       id="path-effect6748"
       is_visible="true"
       lpeversion="1"
       weight="33.333333"
       steps="2"
       helper_size="0"
       apply_no_weight="true"
       apply_with_weight="true"
       only_selected="false" />
    <inkscape:path-effect
       effect="bspline"
       id="path-effect6700"
       is_visible="true"
       lpeversion="1"
       weight="33.333333"
       steps="2"
       helper_size="0"
       apply_no_weight="true"
       apply_with_weight="true"
       only_selected="false" />
    <inkscape:path-effect
       effect="bspline"
       id="path-effect1271"
       is_visible="true"
       lpeversion="1"
       weight="33.333333"
       steps="2"
       helper_size="0"
       apply_no_weight="true"
       apply_with_weight="true"
       only_selected="false" />
    <inkscape:path-effect
       effect="bspline"
       id="path-effect1267"
       is_visible="true"
       lpeversion="1"
       weight="33.333333"
       steps="2"
       helper_size="0"
       apply_no_weight="true"
       apply_with_weight="true"
       only_selected="false" />
    <inkscape:path-effect
       effect="bspline"
       id="path-effect259"
       is_visible="true"
       lpeversion="1"
       weight="33.333333"
       steps="2"
       helper_size="0"
       apply_no_weight="true"
       apply_with_weight="true"
       only_selected="false" />
    <inkscape:path-effect
       effect="bspline"
       id="path-effect255"
       is_visible="true"
       lpeversion="1"
       weight="33.333333"
       steps="2"
       helper_size="0"
       apply_no_weight="true"
       apply_with_weight="true"
       only_selected="false" />
    <inkscape:path-effect
       effect="bspline"
       id="path-effect251"
       is_visible="true"
       lpeversion="1"
       weight="33.333333"
       steps="2"
       helper_size="0"
       apply_no_weight="true"
       apply_with_weight="true"
       only_selected="false" />
    <inkscape:path-effect
       effect="bspline"
       id="path-effect134"
       is_visible="true"
       lpeversion="1"
       weight="33.333333"
       steps="2"
       helper_size="0"
       apply_no_weight="true"
       apply_with_weight="true"
       only_selected="false" />
    <inkscape:path-effect
       effect="bspline"
       id="path-effect126"
       is_visible="true"
       lpeversion="1"
       weight="33.333333"
       steps="2"
       helper_size="0"
       apply_no_weight="true"
       apply_with_weight="true"
       only_selected="false" />
  </defs>
  <g
     inkscape:label="Warstwa 1"
     inkscape:groupmode="layer"
     id="layer1">
    <g
       id="layer1-1"
       inkscape:label="Warstwa 4"
       style="display:inline"
       transform="matrix(0.35679459,0,0,0.35679459,-5.5420027,-19.394104)">
      <rect
         style="fill:#ececec;stroke-width:0.264583"
         id="rect91"
         width="6.3010321"
         height="10.984231"
         x="68.800453"
         y="104.73336"
         rx="1.3000011"
         ry="1.1999992" />
      <path
         style="display:inline;fill:#ececec;stroke-width:0.237617"
         d="m 120.48279,104.70999 -0.0628,-17.571917 c -0.001,-0.285461 0.0611,-0.577986 -0.003,-0.856384 -0.11341,-0.492529 -0.65892,-1.369233 -0.65892,-1.369233 -0.83083,-1.726381 -3.03127,-3.855018 -4.91659,-4.756153 -1.29209,-0.617586 -1.62814,-0.673348 -4.05797,-0.673348 -2.37017,0 -2.79427,0.06618 -4.02634,0.62831 -1.54277,0.70388 -3.56527,2.425989 -4.45606,3.794208 -0.94508,1.451624 -1.24706,2.572143 -1.7398,6.455633 -0.659703,5.199439 -1.728636,8.095884 -4.291308,11.628004 -2.032148,2.8009 -5.391261,6.80213 -5.650322,6.73042 -0.135737,-0.0376 -0.86918,-0.61235 -1.629876,-1.27728 l -1.383083,-1.20896 2.93316,-3.76316 c 3.491352,-4.479312 4.087601,-5.432051 4.984242,-7.964272 0.525553,-1.484221 0.735743,-2.650677 0.914604,-5.075633 0.127725,-1.731695 0.397534,-3.603112 0.599575,-4.15871 1.720641,-4.731649 5.565218,-8.432743 9.901808,-9.532272 1.83955,-0.466411 5.53415,-0.4617 7.40195,0.0095 4.51132,1.13794 7.90969,4.139682 9.59274,8.473157 0,0 0.49031,1.072468 0.62972,1.640792 0.12215,0.497978 0.17549,1.527124 0.17549,1.527124 l 0.0815,17.325464 0.0867,18.43351 -1.10159,-0.24537 c -0.75778,-0.1688 -1.4381,-0.17043 -2.17975,-0.005 l -1.07816,0.24015 -0.0658,-18.42829 z"
         id="path310-5"
         sodipodi:nodetypes="caassssssssscssssscsacccscccc" />
      <path
         style="display:inline;fill:#ececec;stroke-width:0.224493"
         d="m 109.82358,162.59838 c 4.2518,-8.05809 7.77,-14.60225 7.81823,-14.54259 0.0482,0.0597 -1.98663,6.60712 -4.5219,14.54993 l -4.60959,14.44146 -2.47456,0.006 c -1.36101,0.003 -2.8049,0.0487 -3.20864,0.10114 l -0.73408,0.0952 z"
         id="path349-5" />
      <path
         style="display:inline;fill:#ececec;stroke-width:0.871005"
         d="m 136.15679,162.63526 c -4.31313,-7.98061 -7.88208,-14.46187 -7.93101,-14.40277 -0.0489,0.059 2.01529,6.5436 4.58713,14.41005 l 4.67609,14.30262 2.51025,0.006 c 1.38065,0.003 2.84536,0.0482 3.25493,0.10016 l 0.74467,0.0943 z"
         id="path349-0-4" />
      <path
         style="display:inline;fill:#ececec;stroke-width:0.215605"
         d="m 112.91741,191.3575 -8.86482,-10.4824 2.84662,-0.40422 2.84662,-0.40423 0.68944,0.74832 c 0.37919,0.41158 3.10918,3.43786 6.06664,6.72507 l 5.3772,5.97676 v 4.17468 c 0,2.29608 -0.0218,4.16876 -0.0484,4.16154 -0.0267,-0.008 -4.03761,-4.73021 -8.91326,-10.49552 z"
         id="path388-3" />
      <path
         style="display:inline;fill:#ececec;stroke-width:0.222433"
         d="m 133.2888,191.29097 9.37571,-10.54884 -3.01068,-0.4068 -3.01068,-0.40678 -0.72917,0.75306 c -0.40104,0.41419 -3.28836,3.45966 -6.41627,6.76771 l -5.6871,6.01464 v 4.20114 c 0,2.31063 0.023,4.19519 0.0512,4.18792 0.0282,-0.008 4.27031,-4.76019 9.42696,-10.56205 z"
         id="path388-7-6" />
      <path
         style="display:inline;fill:#ececec;stroke-width:0.209166"
         d="m 118.18012,184.52612 c -2.56958,-2.29481 -5.31839,-4.75096 -6.10846,-5.45812 l -1.43649,-1.28574 5.65314,-19.90255 5.65314,-19.90256 h 0.93405 c 0.64867,0 0.9619,0.0947 1.0252,0.31008 0.0501,0.17053 2.52929,8.86807 5.50926,19.32786 2.97996,10.45978 5.50301,19.26986 5.60678,19.57796 0.18093,0.53719 -0.0387,0.76127 -5.35306,5.4617 -3.04794,2.69584 -5.82744,5.15853 -6.17666,5.47264 l -0.63494,0.57112 z"
         id="path427-1" />
      <rect
         style="display:inline;fill:#ececec;stroke-width:0.264583"
         id="rect91-7"
         width="6.3010321"
         height="10.984231"
         x="119.61524"
         y="124.9614"
         rx="1.3000011"
         ry="1.1999992" />
      <path
         style="display:inline;opacity:1;fill:#ececec;stroke-width:0.237617"
         d="m 69.667998,84.481949 -0.06276,-17.571921 c -0.001,-0.285462 0.06107,-0.577987 -0.0031,-0.856384 C 69.48873,65.561114 68.943223,64.684411 68.943223,64.684411 68.112389,62.95803 65.911945,60.829393 64.026627,59.928257 62.73454,59.310672 62.398485,59.25491 59.96866,59.25491 c -2.370175,0 -2.794273,0.06618 -4.026345,0.62831 -1.542764,0.70388 -3.565271,2.425989 -4.456054,3.794208 -0.945084,1.451623 -1.247063,2.572142 -1.739802,6.455632 -0.659704,5.19944 -1.728637,8.095885 -4.291309,11.628002 -2.032148,2.800898 -5.391261,6.80213 -5.650322,6.730422 -0.135737,-0.03757 -0.86918,-0.612346 -1.629876,-1.277278 l -1.383083,-1.208962 2.93316,-3.763164 c 3.491352,-4.479307 4.087601,-5.432047 4.984242,-7.964267 0.525553,-1.484221 0.735743,-2.650677 0.914604,-5.075634 0.127725,-1.731694 0.397534,-3.603112 0.599575,-4.15871 1.720641,-4.731648 5.565217,-8.432743 9.901809,-9.532271 1.839545,-0.466412 5.534149,-0.461701 7.401946,0.0095 4.511323,1.13794 7.909692,4.139681 9.592741,8.473156 0,0 0.490306,1.072468 0.629715,1.640792 0.122153,0.497978 0.175498,1.527124 0.175498,1.527124 l 0.08147,17.325465 0.08668,18.433515 -1.101592,-0.24537 c -0.757778,-0.1688 -1.438095,-0.17043 -2.179752,-0.005 l -1.078158,0.24015 -0.06582,-18.428298 z"
         id="path310"
         sodipodi:nodetypes="caassssssssscssssscsacccscccc" />
      <path
         style="display:inline;opacity:1;fill:#ececec;stroke-width:0.224493"
         d="m 59.008789,142.37034 c 4.251797,-8.05809 7.770002,-14.60225 7.818232,-14.54259 0.04823,0.0597 -1.98663,6.60712 -4.521905,14.54993 l -4.609588,14.44146 -2.474563,0.006 c -1.361011,0.003 -2.804897,0.0487 -3.20864,0.10114 l -0.734081,0.0952 z"
         id="path349" />
      <path
         style="display:inline;opacity:1;fill:#ececec;stroke-width:0.871005"
         d="m 85.341995,142.40722 c -4.313128,-7.98061 -7.882082,-14.46187 -7.931008,-14.40277 -0.04892,0.059 2.015286,6.5436 4.587133,14.41005 l 4.676081,14.30262 2.510257,0.006 c 1.380644,0.003 2.845357,0.0482 3.254924,0.10016 l 0.74467,0.0943 z"
         id="path349-0" />
      <path
         style="display:inline;opacity:1;fill:#ececec;stroke-width:0.215605"
         d="m 62.102615,171.12946 -8.864814,-10.4824 2.846619,-0.40422 2.846623,-0.40423 0.689439,0.74832 c 0.379191,0.41158 3.109178,3.43786 6.066637,6.72507 l 5.377197,5.97676 v 4.17468 c 0,2.29608 -0.02179,4.16876 -0.04844,4.16154 -0.02665,-0.008 -4.037609,-4.73021 -8.913259,-10.49552 z"
         id="path388" />
      <path
         style="display:inline;opacity:1;fill:#ececec;stroke-width:0.222433"
         d="m 82.474002,171.06293 9.375713,-10.54884 -3.010676,-0.4068 -3.010681,-0.40678 -0.729173,0.75306 c -0.401043,0.41419 -3.288364,3.45966 -6.41627,6.76771 l -5.687096,6.01464 v 4.20114 c 0,2.31063 0.02305,4.19519 0.05124,4.18792 0.02818,-0.008 4.270306,-4.76019 9.426951,-10.56205 z"
         id="path388-7" />
      <path
         style="display:inline;opacity:1;fill:#ececec;stroke-width:0.209166"
         d="m 67.365324,164.29808 c -2.56958,-2.29481 -5.318387,-4.75096 -6.108456,-5.45812 l -1.43649,-1.28574 5.653137,-19.90255 5.653141,-19.90256 h 0.934051 c 0.648664,0 0.9619,0.0947 1.025197,0.31008 0.05013,0.17053 2.529296,8.86807 5.509259,19.32786 2.979963,10.45978 5.503013,19.26986 5.606781,19.57796 0.180931,0.53719 -0.03868,0.76127 -5.353054,5.4617 -3.047949,2.69584 -5.827446,5.15853 -6.176661,5.47264 l -0.634936,0.57112 z"
         id="path427" />
    </g>
  </g>
</svg>
