<?xml version="1.0" encoding="UTF-8" standalone="no"?>
<!-- Created with Inkscape (http://www.inkscape.org/) -->

<svg
   width="200"
   height="200"
   viewBox="0 0 52.916666 52.916666"
   version="1.1"
   id="svg5"
   inkscape:version="1.1.2 (b8e25be833, 2022-02-05)"
   sodipodi:docname="glasses.svg"
   xmlns:inkscape="http://www.inkscape.org/namespaces/inkscape"
   xmlns:sodipodi="http://sodipodi.sourceforge.net/DTD/sodipodi-0.dtd"
   xmlns="http://www.w3.org/2000/svg"
   xmlns:svg="http://www.w3.org/2000/svg">
  <sodipodi:namedview
     id="namedview7"
     pagecolor="#505050"
     bordercolor="#eeeeee"
     borderopacity="1"
     inkscape:pageshadow="0"
     inkscape:pageopacity="0"
     inkscape:pagecheckerboard="0"
     inkscape:document-units="mm"
     showgrid="false"
     width="200mm"
     units="px"
     inkscape:zoom="1.5518659"
     inkscape:cx="196.21541"
     inkscape:cy="129.5215"
     inkscape:window-width="1857"
     inkscape:window-height="1057"
     inkscape:window-x="-8"
     inkscape:window-y="-8"
     inkscape:window-maximized="1"
     inkscape:current-layer="layer1" />
  <defs
     id="defs2">
    <inkscape:path-effect
       effect="bspline"
       id="path-effect858"
       is_visible="true"
       lpeversion="1"
       weight="33.333333"
       steps="2"
       helper_size="0"
       apply_no_weight="true"
       apply_with_weight="true"
       only_selected="false" />
    <inkscape:path-effect
       effect="bspline"
       id="path-effect854"
       is_visible="true"
       lpeversion="1"
       weight="33.333333"
       steps="2"
       helper_size="0"
       apply_no_weight="true"
       apply_with_weight="true"
       only_selected="false" />
    <inkscape:path-effect
       effect="bspline"
       id="path-effect739"
       is_visible="true"
       lpeversion="1"
       weight="33.333333"
       steps="2"
       helper_size="0"
       apply_no_weight="true"
       apply_with_weight="true"
       only_selected="false" />
    <inkscape:path-effect
       effect="bspline"
       id="path-effect735"
       is_visible="true"
       lpeversion="1"
       weight="33.333333"
       steps="2"
       helper_size="0"
       apply_no_weight="true"
       apply_with_weight="true"
       only_selected="false" />
    <inkscape:path-effect
       effect="bspline"
       id="path-effect294"
       is_visible="true"
       lpeversion="1"
       weight="33.333333"
       steps="2"
       helper_size="0"
       apply_no_weight="true"
       apply_with_weight="true"
       only_selected="false" />
    <inkscape:path-effect
       effect="bspline"
       id="path-effect266"
       is_visible="true"
       lpeversion="1"
       weight="33.333333"
       steps="2"
       helper_size="0"
       apply_no_weight="true"
       apply_with_weight="true"
       only_selected="false" />
    <inkscape:path-effect
       effect="spiro"
       id="path-effect3776"
       is_visible="true"
       lpeversion="1" />
    <inkscape:path-effect
       effect="spiro"
       id="path-effect3639"
       is_visible="true"
       lpeversion="1" />
    <inkscape:path-effect
       effect="bspline"
       id="path-effect7870"
       is_visible="true"
       lpeversion="1"
       weight="33.333333"
       steps="2"
       helper_size="0"
       apply_no_weight="true"
       apply_with_weight="true"
       only_selected="false" />
    <inkscape:path-effect
       effect="bspline"
       id="path-effect7851"
       is_visible="true"
       lpeversion="1"
       weight="33.333333"
       steps="2"
       helper_size="0"
       apply_no_weight="true"
       apply_with_weight="true"
       only_selected="false" />
    <inkscape:path-effect
       effect="bspline"
       id="path-effect7724"
       is_visible="true"
       lpeversion="1"
       weight="33.333333"
       steps="2"
       helper_size="0"
       apply_no_weight="true"
       apply_with_weight="true"
       only_selected="false" />
    <inkscape:path-effect
       effect="bspline"
       id="path-effect7602"
       is_visible="true"
       lpeversion="1"
       weight="33.333333"
       steps="2"
       helper_size="0"
       apply_no_weight="true"
       apply_with_weight="true"
       only_selected="false" />
    <inkscape:path-effect
       effect="bspline"
       id="path-effect7574"
       is_visible="true"
       lpeversion="1"
       weight="33.333333"
       steps="2"
       helper_size="0"
       apply_no_weight="true"
       apply_with_weight="true"
       only_selected="false" />
    <inkscape:path-effect
       effect="bspline"
       id="path-effect6748"
       is_visible="true"
       lpeversion="1"
       weight="33.333333"
       steps="2"
       helper_size="0"
       apply_no_weight="true"
       apply_with_weight="true"
       only_selected="false" />
    <inkscape:path-effect
       effect="bspline"
       id="path-effect6700"
       is_visible="true"
       lpeversion="1"
       weight="33.333333"
       steps="2"
       helper_size="0"
       apply_no_weight="true"
       apply_with_weight="true"
       only_selected="false" />
    <inkscape:path-effect
       effect="bspline"
       id="path-effect1271"
       is_visible="true"
       lpeversion="1"
       weight="33.333333"
       steps="2"
       helper_size="0"
       apply_no_weight="true"
       apply_with_weight="true"
       only_selected="false" />
    <inkscape:path-effect
       effect="bspline"
       id="path-effect1267"
       is_visible="true"
       lpeversion="1"
       weight="33.333333"
       steps="2"
       helper_size="0"
       apply_no_weight="true"
       apply_with_weight="true"
       only_selected="false" />
  </defs>
  <g
     inkscape:label="Warstwa 1"
     inkscape:groupmode="layer"
     id="layer1">
    <path
       style="fill:#ececec;stroke-width:0.0423025"
       d="M 11.467943,35.632364 C 9.5479258,35.504317 7.3867928,35.023155 6.3070293,34.483331 4.8253016,33.742542 4.121716,32.888744 3.4224206,30.982878 3.1761675,30.311736 2.9694231,29.411874 2.5428469,27.154495 1.9429903,23.980136 1.8567775,23.622847 1.6138071,23.304296 1.3862284,23.005925 1.1543817,22.889084 0.61733478,22.802103 l -0.31727054,-0.05138 0.001646,-0.293964 c 0.002351,-0.429728 0.15530673,-3.590233 0.17478062,-3.612498 0.0437966,-0.05007 6.25322874,-0.792394 7.60725404,-0.909425 1.8836183,-0.1628 5.1699261,-0.220238 6.4299911,-0.112377 1.635672,0.140009 3.573423,0.487622 6.662655,1.195211 3.644143,0.834691 4.850162,0.98809 6.440968,0.819261 1.170209,-0.124193 1.853604,-0.254629 4.430791,-0.84569 2.591165,-0.594263 4.385315,-0.932504 5.837754,-1.100553 1.730344,-0.200203 4.785408,-0.164936 7.57216,0.08742 1.286952,0.11654 6.989021,0.817277 7.073075,0.869226 0.03613,0.02234 0.07288,0.530958 0.127057,1.758048 0.04191,0.949645 0.07139,1.820599 0.06549,1.935452 l -0.0107,0.20882 -0.333702,0.05618 c -0.567724,0.09558 -0.871275,0.275935 -1.050221,0.624005 -0.218355,0.424715 -0.288832,0.733352 -0.856327,3.750147 -0.559596,2.974763 -0.73343,3.624874 -1.276187,4.772751 -0.547202,1.157264 -1.124271,1.781156 -2.211067,2.390469 -1.171727,0.656932 -3.293401,1.146595 -5.62016,1.297079 -0.83168,0.05379 -1.810247,0.01409 -2.79344,-0.113354 -1.963116,-0.25445 -3.564603,-0.880106 -4.901424,-1.914853 -1.343108,-1.039617 -2.37535,-2.39758 -3.392549,-4.46306 -0.525491,-1.067043 -0.74583,-1.641958 -1.234408,-3.220896 -0.143922,-0.46511 -0.315628,-0.952532 -0.381572,-1.083165 -0.17784,-0.352303 -0.506273,-0.6893 -0.824419,-0.845925 -0.238497,-0.11741 -0.335342,-0.137841 -0.832165,-0.175541 -0.758681,-0.05758 -1.459588,0.0044 -1.783245,0.157418 -0.283884,0.134297 -0.690387,0.555485 -0.84899,0.879656 -0.06203,0.126787 -0.255824,0.694606 -0.430652,1.26182 -0.370202,1.201098 -0.751365,2.186147 -1.168331,3.019352 -0.849991,1.698506 -1.559804,2.736445 -2.527719,3.696208 -1.749945,1.73521 -3.847472,2.586029 -6.895959,2.797199 -0.686887,0.04758 -1.137403,0.04692 -1.882463,-0.0028 z m 2.538154,-0.883665 c 1.802274,-0.211623 3.180055,-0.693267 4.332837,-1.514668 0.495443,-0.353019 1.202575,-1.044968 1.607467,-1.572947 0.911931,-1.189157 2.116503,-3.744433 2.493355,-5.289186 0.276646,-1.134004 0.417348,-2.702181 0.303063,-3.37776 -0.108133,-0.639198 -0.49332,-1.201189 -1.194963,-1.743455 -1.537156,-1.187991 -3.678632,-1.81619 -7.372548,-2.162721 -0.781121,-0.07329 -4.01551,-0.0737 -4.8013422,-7.03e-4 -1.7646629,0.1641 -3.0434215,0.433079 -3.7902746,0.797259 -0.7440901,0.362836 -1.3076455,1.034012 -1.5792642,1.880851 -0.1084509,0.338135 -0.2724969,1.142555 -0.3669882,1.799616 -0.1647315,1.145489 -0.021716,3.164644 0.3695937,5.218075 0.311253,1.633331 0.815512,2.85422 1.5622675,3.782492 0.9978033,1.240342 3.0175339,2.007542 5.898643,2.240615 0.364613,0.02951 2.139576,-0.0107 2.538154,-0.05755 z m 27.919695,-0.04552 c 2.476685,-0.213507 4.453217,-0.94675 5.442612,-2.019064 0.668664,-0.724707 1.255196,-1.928465 1.575967,-3.2344 0.355648,-1.447928 0.650929,-3.931077 0.602418,-5.066033 -0.04208,-0.984507 -0.2744,-2.281832 -0.523507,-2.923363 -0.316702,-0.815608 -0.952757,-1.44737 -1.77739,-1.76538 -1.881018,-0.725399 -5.845408,-0.968235 -9.381145,-0.574633 -1.430863,0.159288 -2.996794,0.478645 -4.047032,0.82536 -1.640053,0.541425 -3.049011,1.556352 -3.430265,2.470948 -0.154703,0.371115 -0.178844,0.546235 -0.174959,1.269077 0.0082,1.529723 0.340493,3.031751 1.010647,4.568677 0.552302,1.266646 1.169141,2.415643 1.694619,3.156615 0.394321,0.55602 1.345856,1.482679 1.901204,1.8515 1.220788,0.810751 2.634166,1.270001 4.420617,1.436396 0.572965,0.05337 2.08888,0.05579 2.686214,0.0042 z m 9.545752,-13.497538 c 0.254391,-0.05455 0.458805,-0.226948 0.458805,-0.386923 0,-0.05646 -0.0557,-0.179551 -0.123767,-0.273526 -0.173488,-0.239484 -0.415836,-0.32688 -0.818247,-0.295077 -0.568262,0.04491 -0.9193,0.2463 -0.9193,0.527395 0,0.337022 0.223964,0.471189 0.791094,0.473915 0.214066,0.0011 0.489204,-0.01956 0.611415,-0.04578 z M 2.6529097,21.12445 c 0.084207,-0.02237 0.203189,-0.08005 0.2643925,-0.12819 0.2121894,-0.166912 0.1075103,-0.522049 -0.2122093,-0.719912 -0.3618114,-0.223916 -1.3123038,-0.05561 -1.4762347,0.261398 -0.033873,0.0655 -0.061586,0.16952 -0.061586,0.231141 0,0.142759 0.200158,0.333931 0.4124155,0.3939 0.1748147,0.04939 0.831173,0.02596 1.0732263,-0.03834 z"
       id="path8024" />
  </g>
</svg>
