<?xml version="1.0" encoding="UTF-8" standalone="no"?>
<!-- Created with Inkscape (http://www.inkscape.org/) -->

<svg
   width="200"
   height="200"
   viewBox="0 0 52.916666 52.916666"
   version="1.1"
   id="svg5"
   inkscape:version="1.1.2 (b8e25be833, 2022-02-05)"
   sodipodi:docname="hat.svg"
   xmlns:inkscape="http://www.inkscape.org/namespaces/inkscape"
   xmlns:sodipodi="http://sodipodi.sourceforge.net/DTD/sodipodi-0.dtd"
   xmlns="http://www.w3.org/2000/svg"
   xmlns:svg="http://www.w3.org/2000/svg">
  <sodipodi:namedview
     id="namedview7"
     pagecolor="#505050"
     bordercolor="#eeeeee"
     borderopacity="1"
     inkscape:pageshadow="0"
     inkscape:pageopacity="0"
     inkscape:pagecheckerboard="0"
     inkscape:document-units="mm"
     showgrid="false"
     width="200mm"
     units="px"
     inkscape:zoom="2.1946698"
     inkscape:cx="120.97492"
     inkscape:cy="76.549102"
     inkscape:window-width="1857"
     inkscape:window-height="1057"
     inkscape:window-x="-8"
     inkscape:window-y="-8"
     inkscape:window-maximized="1"
     inkscape:current-layer="layer1" />
  <defs
     id="defs2" />
  <g
     inkscape:label="Warstwa 1"
     inkscape:groupmode="layer"
     id="layer1">
    <g
       id="layer3"
       inkscape:label="Warstwa 3"
       style="display:inline"
       transform="matrix(0.34293412,0,0,0.34293412,-7.8319555,-27.993524)">
      <path
         style="fill:#ececec;stroke-width:0.529205"
         d="m 75.071745,176.28068 c -5.104741,-1.57942 -9.958161,-2.48594 -14.399254,-7.04542 -3.396667,-3.48721 -3.564436,-3.48134 -1.222434,-21.77869 2.600004,-20.31304 2.673069,-20.74492 3.718028,-21.97733 2.369174,-2.79417 17.826944,-12.49855 25.390112,-15.9226 0,0 3.329068,-1.34701 5.066608,-1.77529 2.653832,-0.65412 5.379963,-1.11956 8.112165,-1.19541 3.41565,-0.0948 5.35426,-0.44524 10.20867,0.92943 0.26885,0.0761 -23.234791,9.58848 -23.624375,10.04839 -2.099915,2.47901 27.895595,-8.77385 27.895595,-8.77385 1.99203,0.62012 6.04342,2.2189 8.31505,3.02635 7.02296,2.49631 10.18167,4.41771 12.16072,7.39726 1.29664,1.95215 1.58084,3.27437 3.24926,15.117 1.00559,7.13776 2.29762,14.7324 2.60677,16.92172 0.65522,4.64009 1.15428,7.02576 0.061,9.83018 -0.58461,1.49963 -1.92703,2.9176 -3.40395,4.41734 -3.31464,3.36587 -7.75432,6.12441 -12.27502,7.94721 -9.62951,3.88273 -20.19627,5.6997 -30.576244,5.94317 -7.167583,0.16812 -14.433501,-0.99031 -21.282711,-3.10946 z"
         id="path10039"
         sodipodi:nodetypes="assssaasssssssssaaaa" />
      <path
         style="fill:#ececec;stroke-width:0.477421"
         d="m 82.753538,209.65224 c -0.798644,-0.10903 -4.719255,-0.52896 -8.712471,-0.93318 -14.274706,-1.44497 -25.062453,-5.13365 -35.739142,-11.70209 -5.086327,-3.12918 -10.190641,-7.24299 -12.652462,-12.68375 -1.662536,-3.6743 -2.041269,-7.27352 -0.793841,-12.07271 1.571941,-6.04767 4.33384,-9.52131 12.066017,-15.1754 5.034768,-3.68164 18.532854,-9.88981 21.534758,-10.35913 0,0 0.114547,-1.34499 0,0 -0.06358,0.74641 -1.254621,5.88635 -1.944382,9.60701 -1.639964,8.84618 -2.088331,10.79972 -1.2587,12.92235 0.421373,1.07808 1.026264,2.59592 2.11832,4.11792 2.561104,3.56944 8.19516,6.669 13.386068,8.47042 3.449334,1.19704 8.995007,2.22478 12.629411,2.76635 4.084599,0.60864 5.961666,0.86428 10.064881,0.90395 6.292197,0.0608 12.917015,-0.56536 19.116985,-1.76439 2.6172,-0.50614 9.63969,-2.40985 12.15326,-3.26871 7.79122,-2.66217 13.82903,-5.90063 18.92635,-11.15944 1.47474,-1.52146 2.64054,-3.83673 3.05631,-5.57372 0.59349,-2.47951 -1.97499,-11.38513 -2.35909,-12.84635 -0.56703,-2.15716 -2.07112,-7.47981 -2.07112,-7.47981 v 0 c 0,0 -0.3152,-0.0769 0,0 1.91108,0.4663 7.41418,1.15136 13.7816,4.69147 5.66867,3.15162 7.0345,3.60511 10.59977,6.92238 5.90454,5.49387 7.62487,7.77665 8.83175,11.71931 1.24276,4.05981 1.12444,9.46725 -0.26478,12.10213 -1.62405,3.08025 -6.16863,8.07825 -10.11914,11.12871 -10.32632,7.97371 -32.85745,15.93679 -52.58275,18.5841 -7.09884,0.95273 -25.750221,1.63104 -29.767602,1.08258 z"
         id="path10078"
         sodipodi:nodetypes="ssaassssssssssssassccssssssss" />
    </g>
  </g>
</svg>
