<?xml version="1.0" encoding="UTF-8" standalone="no"?>
<!-- Created with Inkscape (http://www.inkscape.org/) -->

<svg
   width="250"
   height="250"
   viewBox="0 0 66.145832 66.145833"
   version="1.1"
   id="svg5"
   xml:space="preserve"
   inkscape:version="1.2.2 (732a01da63, 2022-12-09)"
   sodipodi:docname="szminaaaaaa2.svg"
   xmlns:inkscape="http://www.inkscape.org/namespaces/inkscape"
   xmlns:sodipodi="http://sodipodi.sourceforge.net/DTD/sodipodi-0.dtd"
   xmlns:xlink="http://www.w3.org/1999/xlink"
   xmlns="http://www.w3.org/2000/svg"
   xmlns:svg="http://www.w3.org/2000/svg"><sodipodi:namedview
     id="namedview7"
     pagecolor="#343434"
     bordercolor="#000000"
     borderopacity="0.29019608"
     inkscape:showpageshadow="2"
     inkscape:pageopacity="0"
     inkscape:pagecheckerboard="0"
     inkscape:deskcolor="#d1d1d1"
     inkscape:document-units="mm"
     showgrid="false"
     inkscape:zoom="1.9099422"
     inkscape:cx="94.767264"
     inkscape:cy="158.64354"
     inkscape:window-width="1858"
     inkscape:window-height="1057"
     inkscape:window-x="1912"
     inkscape:window-y="-8"
     inkscape:window-maximized="1"
     inkscape:current-layer="layer6" /><defs
     id="defs2"><color-profile
       name="sRGB-IEC61966-2.1"
       xlink:href="../../../Windows/system32/spool/drivers/color/sRGB%20Color%20Space%20Profile.icm"
       id="color-profile3439" /><color-profile
       name="Agfa-:-Swop-Standard"
       xlink:href="../../../Windows/system32/spool/drivers/color/RSWOP.icm"
       id="color-profile3441" /><inkscape:path-effect
       effect="bspline"
       id="path-effect1627"
       is_visible="true"
       lpeversion="1"
       weight="33.333333"
       steps="2"
       helper_size="0"
       apply_no_weight="true"
       apply_with_weight="true"
       only_selected="false" /><inkscape:path-effect
       effect="spiro"
       id="path-effect741"
       is_visible="true"
       lpeversion="1" /><inkscape:path-effect
       effect="bspline"
       id="path-effect1660"
       is_visible="true"
       lpeversion="1"
       weight="33.333333"
       steps="2"
       helper_size="0"
       apply_no_weight="true"
       apply_with_weight="true"
       only_selected="false" /><inkscape:path-effect
       effect="spiro"
       id="path-effect1656"
       is_visible="true"
       lpeversion="1" /><inkscape:path-effect
       effect="spiro"
       id="path-effect1652"
       is_visible="true"
       lpeversion="1" /><inkscape:path-effect
       effect="spiro"
       id="path-effect1648"
       is_visible="true"
       lpeversion="1" /><inkscape:path-effect
       effect="spiro"
       id="path-effect1648-7"
       is_visible="true"
       lpeversion="1" /><inkscape:path-effect
       effect="spiro"
       id="path-effect1652-8"
       is_visible="true"
       lpeversion="1" /><inkscape:path-effect
       effect="spiro"
       id="path-effect1656-8"
       is_visible="true"
       lpeversion="1" /><inkscape:path-effect
       effect="bspline"
       id="path-effect1660-3"
       is_visible="true"
       lpeversion="1"
       weight="33.333333"
       steps="2"
       helper_size="0"
       apply_no_weight="true"
       apply_with_weight="true"
       only_selected="false" /></defs><g
     id="layer6"
     inkscape:label="Warstwa 3"
     style="display:inline;fill:#f2f2f2"
     inkscape:groupmode="layer"><path
       id="path1809"
       style="display:inline;opacity:1;fill:#f2f2f2;stroke:#f2f2f2;stroke-width:4.5"
       d="m 300.27572,176.18818 c -20.73539,-0.18452 -41.09003,3.59497 -61.01625,9.52747 -32.4812,9.82355 -60.94562,29.27266 -85.10437,52.88839 -26.8554,25.90845 -49.75968,55.72823 -69.395011,87.53583 -18.644281,30.39109 -36.928205,61.2417 -60.072901,88.51036 -2.17017,2.82145 -4.934744,5.44506 -6.472413,8.62174 5.35708,17.30429 18.071852,31.2316 31.045309,43.40677 25.281429,23.15049 54.072816,42.12145 83.289736,59.89927 27.80822,16.54708 57.10743,30.7467 87.86235,40.83286 45.72918,15.24315 93.78061,23.50496 141.91486,24.9308 26.2996,0.48457 52.72049,0.26345 78.89399,-2.48219 6.94961,-0.69396 10.37866,-0.82558 17.31998,-1.6909 -3.92123,-4.46412 -6.95021,-8.05052 -9.77401,-11.30446 -11.42989,-13.171 -11.28489,-20.02249 -12.81346,-25.06397 -1.52864,-5.04147 -1.65701,-9.42109 -2.22033,-16.86983 -0.56349,-7.44875 0.19886,-14.12328 2.17494,-21.21612 1.97598,-7.09283 5.16735,-14.60113 8.41152,-20.88936 3.2442,-6.28824 6.53831,-11.35009 10.46854,-16.32627 3.93024,-4.97615 8.49374,-9.86618 13.88162,-16.332 5.3879,-6.46582 11.6029,-14.50962 16.95405,-19.76578 5.35115,-5.25615 9.83533,-7.72054 14.34675,-8.6332 4.51142,-0.91263 9.0432,-0.27749 13.67199,1.99492 4.62882,2.27225 9.35703,6.17513 15.90588,12.58292 6.5489,6.40776 14.91631,15.31758 33.15474,35.81689 13.25813,14.90156 32.20513,36.4818 52.10031,59.17697 15.81386,-9.44643 30.85108,-20.26537 45.01864,-32.03341 28.66167,-23.45305 54.22842,-50.52171 76.98765,-79.69946 -16.91578,-18.31128 -32.1436,-38.13783 -45.58203,-59.13111 -26.14553,-40.47095 -50.21227,-82.67383 -83.59109,-117.75204 -17.44608,-18.10415 -35.242,-36.14327 -55.78853,-50.73294 -17.03218,-11.94385 -37.03311,-19.50731 -57.88485,-21.33651 -17.92083,-1.46692 -35.8049,0.48318 -53.46292,3.77775 -22.21489,3.84162 -44.97402,9.11551 -67.55417,5.04463 -17.18877,-3.15764 -33.21738,-11.09036 -50.65253,-12.84088 -7.31773,-0.5975 -14.6241,-0.44104 -22.01799,-0.44714 z m 127.53535,151.18419 c 18.9786,0.24184 36.05934,9.68839 53.23363,16.62435 23.90436,10.04732 47.43682,21.03524 69.93875,33.95382 25.51382,14.42704 51.85971,27.41061 79.79149,36.35001 8.22449,3.00982 16.83652,4.86824 25.03801,7.8937 2.72505,0.8549 2.1384,4.80709 -0.62889,5.0389 -16.79299,-0.19016 -33.5537,-1.88412 -50.31843,-2.91213 -49.9144,-3.17801 -99.52928,-10.12438 -149.43543,-12.87527 -79.89359,-3.86908 -159.96747,1.24008 -239.5841,8.1058 -42.26067,3.75771 -84.53248,7.82134 -126.703375,12.29629 -3.240002,0.71646 -4.468556,-3.92989 -1.716369,-5.32552 5.26037,-2.15917 11.075898,-2.68816 16.403764,-4.76374 28.63674,-8.99449 54.61172,-24.42505 80.85931,-38.64303 28.6135,-15.7048 56.67447,-32.59265 86.51939,-45.91188 13.85265,-6.10893 28.94429,-10.13413 44.19321,-8.9141 14.25224,0.60964 28.20052,4.16818 42.4703,3.79494 22.15505,0.53301 44.2019,-3.39986 66.34878,-4.66055 1.19749,-0.0389 2.39184,-0.0589 3.58996,-0.0516 z"
       transform="matrix(0.07888297,0,0,0.09014584,-0.43224572,-14.471348)"
       sodipodi:nodetypes="ccccccccccccsscsssssscsscccccccccccccccccccccccccccccc" /><rect
       style="opacity:1;fill:#f2f2f2;stroke-width:0.483748"
       id="rect821"
       width="13.606524"
       height="17.008156"
       x="4.4761462"
       y="68.630432"
       rx="1.2894661"
       ry="1.2671038"
       transform="rotate(-37.081241)" /><rect
       style="opacity:1;fill:none;stroke:#f2f2f2;stroke-width:1.32887;stroke-dasharray:none;stroke-opacity:1"
       id="rect823"
       width="9.8887796"
       height="12.026418"
       x="6.2910471"
       y="57.405743"
       rx="1.2233822"
       ry="1.2706418"
       transform="rotate(-37.081241)" /><path
       style="display:inline;opacity:1;fill:#f2f2f2;fill-opacity:1;stroke:none;stroke-width:1.36235;stroke-dasharray:none;stroke-opacity:1"
       d="m 39.914281,41.374021 c -1.27502,-1.687026 -2.550322,-3.374425 -3.223151,-4.282702 -0.672829,-0.908278 -0.743083,-1.037391 -0.841859,-1.391068 -0.09878,-0.353676 -0.225925,-0.931764 -0.277319,-1.4579 -0.0514,-0.526136 -0.02698,-1.000128 0.06421,-1.506433 0.09119,-0.506306 0.249101,-1.044743 0.413184,-1.496767 0.164084,-0.452024 0.334268,-0.817522 0.540134,-1.178109 0.205867,-0.360586 0.44732,-0.716175 0.730493,-1.185299 0.283173,-0.469125 0.608098,-1.051789 0.892466,-1.435199 0.284368,-0.38341 0.527908,-0.567472 0.777088,-0.641615 0.24918,-0.07414 0.503704,-0.03874 0.767972,0.112343 0.264269,0.151082 0.538541,0.417549 0.920992,0.857344 0.382452,0.439795 0.873144,1.052888 1.945378,2.465581 1.072235,1.412692 2.725956,3.624883 4.379433,5.836746"
       id="path1625" /></g><style
     type="text/css"
     id="style88">
	.st0{display:none;}
	.st1{display:inline;fill:none;stroke:#000000;stroke-width:9;stroke-miterlimit:10;}
	.st2{display:inline;fill:none;}
	.st3{display:inline;fill:none;stroke:#000000;stroke-miterlimit:10;}
	.st4{display:inline;fill:none;stroke:#000000;stroke-width:10;stroke-miterlimit:10;}
	.st5{display:inline;}
	.st6{fill:none;}
	.st7{fill:none;stroke:#000000;stroke-width:9;stroke-miterlimit:10;}
	.st8{fill:none;stroke:#000000;stroke-width:10;stroke-miterlimit:10;}
</style></svg>
