<?xml version="1.0" encoding="UTF-8" standalone="no"?>
<!-- Created with Inkscape (http://www.inkscape.org/) -->

<svg
   width="200"
   height="200"
   viewBox="0 0 52.916666 52.916666"
   version="1.1"
   id="svg5"
   inkscape:version="1.1.2 (b8e25be833, 2022-02-05)"
   sodipodi:docname="mask.svg"
   xmlns:inkscape="http://www.inkscape.org/namespaces/inkscape"
   xmlns:sodipodi="http://sodipodi.sourceforge.net/DTD/sodipodi-0.dtd"
   xmlns="http://www.w3.org/2000/svg"
   xmlns:svg="http://www.w3.org/2000/svg">
  <sodipodi:namedview
     id="namedview7"
     pagecolor="#505050"
     bordercolor="#eeeeee"
     borderopacity="1"
     inkscape:pageshadow="0"
     inkscape:pageopacity="0"
     inkscape:pagecheckerboard="0"
     inkscape:document-units="mm"
     showgrid="false"
     width="200mm"
     units="px"
     inkscape:zoom="2.1946698"
     inkscape:cx="66.752639"
     inkscape:cy="87.940337"
     inkscape:window-width="1857"
     inkscape:window-height="1057"
     inkscape:window-x="-8"
     inkscape:window-y="-8"
     inkscape:window-maximized="1"
     inkscape:current-layer="layer1" />
  <defs
     id="defs2">
    <inkscape:path-effect
       effect="bspline"
       id="path-effect858"
       is_visible="true"
       lpeversion="1"
       weight="33.333333"
       steps="2"
       helper_size="0"
       apply_no_weight="true"
       apply_with_weight="true"
       only_selected="false" />
    <inkscape:path-effect
       effect="bspline"
       id="path-effect854"
       is_visible="true"
       lpeversion="1"
       weight="33.333333"
       steps="2"
       helper_size="0"
       apply_no_weight="true"
       apply_with_weight="true"
       only_selected="false" />
    <inkscape:path-effect
       effect="bspline"
       id="path-effect739"
       is_visible="true"
       lpeversion="1"
       weight="33.333333"
       steps="2"
       helper_size="0"
       apply_no_weight="true"
       apply_with_weight="true"
       only_selected="false" />
    <inkscape:path-effect
       effect="bspline"
       id="path-effect735"
       is_visible="true"
       lpeversion="1"
       weight="33.333333"
       steps="2"
       helper_size="0"
       apply_no_weight="true"
       apply_with_weight="true"
       only_selected="false" />
    <inkscape:path-effect
       effect="bspline"
       id="path-effect294"
       is_visible="true"
       lpeversion="1"
       weight="33.333333"
       steps="2"
       helper_size="0"
       apply_no_weight="true"
       apply_with_weight="true"
       only_selected="false" />
    <inkscape:path-effect
       effect="bspline"
       id="path-effect266"
       is_visible="true"
       lpeversion="1"
       weight="33.333333"
       steps="2"
       helper_size="0"
       apply_no_weight="true"
       apply_with_weight="true"
       only_selected="false" />
  </defs>
  <g
     inkscape:label="Warstwa 1"
     inkscape:groupmode="layer"
     id="layer1">
    <path
       style="fill:#ececec;stroke-width:0.0325732"
       d="M 14.08237,40.901382 C 12.224856,40.750559 9.6152448,39.411166 7.7796411,37.66648 6.1480444,36.115696 4.7630803,34.101616 3.3334405,31.200602 2.3163017,29.136634 1.75009,27.577954 1.0584989,24.938102 0.37216096,22.318299 0.38243355,20.135178 0.35077407,18.475418 0.34303907,18.069524 0.40423447,17.475098 0.49997183,16.895414 0.63380211,16.085048 0.86743088,15.303492 0.92134806,15.106081 1.2501128,13.902338 2.3229089,12.85784 3.9567406,12.150756 5.5627753,11.455703 7.610502,11.242892 10.46117,11.474783 c 1.582831,0.128754 3.437598,0.364037 5.388894,0.683592 1.135712,0.185992 1.768022,0.308031 2.779729,0.536503 0.959868,0.216766 1.358881,0.278042 2.197276,0.337443 1.520977,0.107764 5.398811,0.24619 6.17835,0.220552 6.076721,-0.199863 6.106336,-0.202057 7.332171,-0.543264 1.078762,-0.30027 2.197931,-0.527912 3.703048,-0.753211 4.160144,-0.62273 7.259936,-0.736761 9.250324,-0.340288 1.106446,0.220397 2.132389,0.639665 3.003405,1.227388 0.396918,0.267824 1.060945,0.883802 1.315783,1.220569 0.625614,0.826765 0.912025,1.554937 1.073853,3.585799 0.04219,0.529545 0.0521,1.032101 0.05792,1.516928 0.01756,1.465084 -0.197356,2.806451 -0.426136,4.022605 -0.253154,1.345724 -0.998516,3.977192 -1.526657,5.389771 -0.799816,2.139211 -2.378207,5.125049 -3.579211,6.770777 -0.702288,0.96234 -1.473107,1.823323 -2.302366,2.571678 -1.615995,1.458339 -3.746824,2.590869 -5.463934,2.904064 -0.94043,0.171531 -1.807695,0.07764 -3.016216,-0.326536 -1.048886,-0.350791 -5.128552,-1.988374 -9.538335,-3.828709 -0.167827,-0.07004 -0.336468,-0.127343 -0.374756,-0.127343 -0.03829,0 -1.182987,0.457827 -2.543771,1.017391 -4.175798,1.717121 -5.853538,2.388839 -6.953453,2.78396 -1.275233,0.4581 -2.137219,0.621682 -2.934716,0.55693 z m 21.847332,-10.47401 c 0.961512,-0.107871 1.640485,-0.241532 2.488503,-0.489877 2.362045,-0.691735 4.036717,-1.527296 5.349682,-2.669172 0.735964,-0.640065 1.174857,-1.161178 1.546626,-1.836374 0.207997,-0.377757 0.534874,-1.151035 0.534874,-1.265327 0,-0.06279 -0.07403,-0.108458 -0.523444,-0.322877 -1.040006,-0.496207 -1.691834,-0.747327 -2.576404,-0.992571 -0.843329,-0.233811 -1.755773,-0.420326 -2.752425,-0.562631 -0.169504,-0.0242 -0.589853,-0.0385 -1.098372,-0.03736 -2.085114,0.0046 -3.374703,0.309216 -4.746981,1.121011 -0.541659,0.320429 -0.810766,0.51543 -1.181312,0.856005 -1.237182,1.137109 -1.891037,2.399903 -2.10303,4.061573 -0.07896,0.61893 -0.177768,1.729098 -0.156426,1.757523 0.03502,0.04662 0.690397,0.282781 0.955292,0.344222 0.461967,0.107149 0.711827,0.119447 2.221128,0.109307 1.235225,-0.0083 1.568307,-0.02028 2.042289,-0.07345 z m -15.165358,-0.01969 c 0.392803,-0.05342 0.708168,-0.139662 1.086861,-0.297224 l 0.289074,-0.120273 -0.02312,-0.255166 c -0.150619,-1.662494 -0.228721,-2.162322 -0.437286,-2.798515 -0.238566,-0.727706 -0.47658,-1.197315 -0.882315,-1.740825 -0.686448,-0.919548 -1.379502,-1.510396 -2.440165,-2.080315 -1.115979,-0.59964 -2.12282,-0.842494 -3.788819,-0.913871 -0.798486,-0.03421 -1.495124,7.69e-4 -2.133767,0.107033 -1.610034,0.267982 -2.7810325,0.588008 -3.8614703,1.055309 -0.7449582,0.322203 -1.4333059,0.657905 -1.4554161,0.709794 -0.010268,0.0241 0.044858,0.207094 0.1225047,0.406667 0.4362743,1.121369 0.8899063,1.77406 1.8118254,2.606876 0.2935072,0.265139 0.6803849,0.586352 0.8597291,0.713808 1.1340552,0.805946 2.5375202,1.456265 4.3420072,2.011938 1.237862,0.381186 2.359764,0.57006 3.809982,0.641417 0.706259,0.03475 2.30489,0.0071 2.700371,-0.04665 z"
       id="path471"
       sodipodi:nodetypes="ssssssssssssssssssssssssssssssssssssssssssssssssscssssscsssssssss" />
  </g>
</svg>
