<?xml version="1.0" encoding="UTF-8" standalone="no"?>
<!-- Created with Inkscape (http://www.inkscape.org/) -->

<svg
   width="200"
   height="200"
   viewBox="0 0 52.916666 52.916666"
   version="1.1"
   id="svg5"
   inkscape:version="1.1.2 (b8e25be833, 2022-02-05)"
   sodipodi:docname="pants.svg"
   xmlns:inkscape="http://www.inkscape.org/namespaces/inkscape"
   xmlns:sodipodi="http://sodipodi.sourceforge.net/DTD/sodipodi-0.dtd"
   xmlns="http://www.w3.org/2000/svg"
   xmlns:svg="http://www.w3.org/2000/svg">
  <sodipodi:namedview
     id="namedview7"
     pagecolor="#505050"
     bordercolor="#eeeeee"
     borderopacity="1"
     inkscape:pageshadow="0"
     inkscape:pageopacity="0"
     inkscape:pagecheckerboard="0"
     inkscape:document-units="mm"
     showgrid="false"
     width="200mm"
     units="px"
     inkscape:zoom="2.1946698"
     inkscape:cx="108.21674"
     inkscape:cy="113.00106"
     inkscape:window-width="1857"
     inkscape:window-height="1057"
     inkscape:window-x="-8"
     inkscape:window-y="-8"
     inkscape:window-maximized="1"
     inkscape:current-layer="layer1" />
  <defs
     id="defs2" />
  <g
     inkscape:label="Warstwa 1"
     inkscape:groupmode="layer"
     id="layer1">
    <g
       id="layer3"
       inkscape:label="Warstwa 3"
       transform="matrix(0.36389941,0,0,0.31969973,-12.355742,-23.200386)">
      <path
         style="fill:#ececec;stroke-width:0.910254"
         d="m 378.21044,308.07888 c -7.25928,-0.65556 -14.99665,-1.45997 -17.19417,-1.78758 l -3.99548,-0.59564 0.48686,-9.53941 c 0.26778,-5.24667 0.6321,-9.66257 0.8096,-9.81311 0.1775,-0.15054 3.39484,0.0669 7.14964,0.48318 15.01957,1.6652 44.28983,2.62087 62.83358,2.05151 l 19.59652,-0.60169 1.12678,8.92124 c 0.61972,4.90668 1.01013,9.03789 0.86757,9.18045 -0.14257,0.14257 -6.98472,0.90029 -15.20479,1.68383 -17.56221,1.67404 -38.06037,1.68029 -56.47611,0.0172 z"
         id="path5599"
         transform="scale(0.26458333)" />
      <path
         style="fill:#ececec;stroke-width:0.910254"
         d="m 321.38048,301.20769 c -13.48378,-1.97154 -24.68678,-3.75545 -24.89557,-3.96424 -0.39375,-0.39374 2.17856,-17.77709 2.69585,-18.21832 0.161,-0.13733 6.92363,0.68874 15.02807,1.8357 8.10445,1.14696 19.51743,2.59632 25.36219,3.2208 l 10.62684,1.13542 -0.55777,4.06937 c -0.30677,2.23816 -0.38469,6.81379 -0.55777,9.85899 -0.28224,4.96576 -0.23534,5.77906 -1.59295,5.71825 -0.87612,-0.0392 -12.62512,-1.68443 -26.10889,-3.65597 z"
         id="path5638"
         transform="scale(0.26458333)"
         sodipodi:nodetypes="ssssscssss" />
      <path
         style="fill:#ececec;stroke-width:0.910254"
         d="m 458.94286,304.25232 c -0.77947,-1.37288 -2.66765,-15.78824 -2.13746,-16.31843 0.30062,-0.30062 6.19015,-1.26694 13.08784,-2.14737 12.15704,-1.55174 33.81815,-5.04696 36.73042,-5.92678 1.18036,-0.3566 1.66822,1.17262 2.76882,8.67899 1.19837,8.17315 1.19142,9.15394 -0.0674,9.52034 -1.20084,0.34952 -14.26663,2.33807 -39.35333,5.9894 -7.30432,1.06314 -10.50737,1.12234 -11.02885,0.20385 z"
         id="path5677"
         transform="scale(0.26458333)" />
      <path
         style="fill:#ececec;stroke-width:0.910254"
         d="m 454.21663,894.16383 c -13.77054,-1.72893 -30.30322,-4.29841 -31.43511,-4.8856 -1.21369,-0.62964 -1.66859,-10.90286 -3.47137,-78.39671 -2.82488,-105.75996 -4.44943,-159.38879 -5.56522,-183.71668 -0.51665,-11.26439 -1.56093,-34.6124 -2.32062,-51.88446 -1.64366,-37.36919 -2.91071,-57.48114 -4.12892,-65.53827 -1.47891,-9.78143 -3.81534,-20.02559 -4.56732,-20.02559 -0.76583,0 -0.74848,-0.15522 -4.02101,35.95503 -5.91547,65.27327 -6.59509,79.57182 -10.6372,223.79572 -3.84119,137.05514 -3.92731,139.15249 -5.74173,139.83389 -3.35603,1.26033 -33.63672,3.65778 -46.19918,3.65778 -12.33391,0 -28.11114,-2.10759 -46.66825,-6.23414 l -7.28203,-1.61931 -0.0929,-21.72935 -0.53914,-126.12874 c -1.27423,-298.09861 -1.27413,-320.053 0.002,-331.27422 2.52286,-22.19253 4.92612,-40.80218 9.4453,-73.13991 l 4.68775,-33.54387 3.71665,0.59824 c 3.45675,0.5564 36.20404,5.2603 44.90563,6.45035 2.03216,0.27792 3.39961,0.31065 3.85774,0.92097 0.39542,0.52677 0.0108,1.5146 0.0108,3.09596 0,3.78286 0.97635,4.59288 5.53597,4.59288 2.49351,0 2.66465,-0.22722 2.81723,-3.65177 l 0.16091,-3.61154 3.09163,0.42723 c 21.5269,2.9748 50.31399,3.86944 70.3225,2.24987 20.94676,-1.69551 20.42088,-1.71369 20.76618,0.71763 0.10529,0.74138 0.1466,1.73083 0.57058,2.03626 0.61388,0.44221 1.94348,0.3127 4.31157,0.0118 l 4.47749,-0.56891 -0.29015,-2.18328 c -0.43799,-3.29578 -2.75496,-2.66987 23.40878,-6.3837 11.01407,-1.5634 21.73198,-3.16018 23.81759,-3.5484 3.72111,-0.69267 3.80166,-0.65302 4.30849,2.12064 1.21973,6.675 11.53879,79.84317 13.4287,95.21725 1.89285,15.39808 2.07294,20.697 2.10373,61.89726 0.0186,24.78166 -0.53145,65.33346 -1.22215,90.11512 -0.84206,30.21235 -1.30645,92.95665 -1.4095,190.43887 -0.0846,79.95971 -0.41043,145.63805 -0.72423,145.95186 -0.84837,0.84837 -14.89445,3.86748 -29.67949,6.37941 -12.28837,2.08775 -30.14398,2.80663 -39.75126,1.60042 z M 403.75276,450.33187 c 0.5005,-19.01904 0.93736,-25.08245 1.65133,-25.08245 0.55422,0 2.00953,-1.40701 5.20071,-2.93002 6.44766,-3.07719 11.25492,-7.75552 12.48918,-13.09863 0.91316,-3.95305 0.97184,-45.87646 0.21827,-46.63003 -0.27466,-0.27466 -1.17285,-9.49736 -1.4397,-9.23052 -0.26686,0.26686 -0.15589,3.62019 -0.6355,20.08304 -0.4796,16.46285 -1.30886,30.44743 -1.8428,33.04354 -0.76614,3.72522 -1.42662,5.42281 -4.33812,8.05317 -3.58543,3.23922 -8.22075,5.24317 -10.70018,5.24317 -1.01139,0 -0.24198,-6.70752 0.0885,-51.58551 0.25388,-34.47859 -0.83075,-54.1601 -1.39014,-54.1601 -0.54872,0 -1.10566,21.07836 -1.4831,56.13065 -0.85942,79.81532 -0.77831,108.62528 0.30586,108.62528 0.58626,0 1.25984,-5.05813 1.71481,-22.34696 z"
         id="path5716"
         transform="scale(0.26458333)"
         sodipodi:nodetypes="ssssssssssssccscscsssssscssssscssssssssssssssssssssssssssss" />
      <path
         style="fill:#ececec;stroke-width:0.643647"
         d="m 384.57885,286.66641 c -22.48449,-1.86528 -41.75478,-3.87876 -62.1119,-6.48982 l -9.01105,-1.15579 c -5.06329,-1.19471 28.9641,-0.20369 28.9641,-0.20369 15.93025,-0.11203 57.49373,0.0124 92.36328,0.2765 69.41929,0.52579 66.94711,0.31355 43.80981,3.76113 -22.35862,3.33156 -28.19384,3.70588 -60.54462,3.8838 -16.81527,0.0925 -30.51122,0.17378 -33.46962,-0.0721 z"
         id="path5911"
         transform="scale(0.26458333)"
         sodipodi:nodetypes="sscsssscs" />
    </g>
  </g>
</svg>
