<?xml version="1.0" encoding="UTF-8" standalone="no"?>
<!-- Created with Inkscape (http://www.inkscape.org/) -->

<svg width="20" height="20" viewBox="0 0 20 20" fill="none" xmlns="http://www.w3.org/2000/svg">
    <path d="M5.54601 3.31799C5.54601 2.58199 5.80801 1.95199 6.33001 1.42999C6.85201 0.907991 7.48201 0.64599 8.21801 0.64599H11.782C12.518 0.64599 13.148 0.907991 13.67 1.42999C14.192 1.95199 14.454 2.58199 14.454 3.31799H12.672C12.672 3.07399 12.584 2.86599 12.41 2.68999C12.234 2.51399 12.026 2.42799 11.782 2.42799H8.21801C7.97401 2.42799 7.76601 2.51599 7.59001 2.68999C7.41401 2.86599 7.32801 3.07399 7.32801 3.31799H5.54601ZM8.21801 10.998L0.200012 8.99399V5.99199C0.200012 5.49999 0.374012 5.07799 0.722012 4.73199C1.07001 4.38399 1.49001 4.20999 1.98201 4.20999H18.018C18.51 4.20999 18.932 4.38399 19.278 4.73199C19.626 5.07999 19.8 5.49999 19.8 5.99199V8.99399L11.782 10.998V10.892C11.782 10.768 11.738 10.662 11.652 10.576C11.566 10.49 11.46 10.446 11.336 10.446H8.66401C8.54001 10.446 8.43401 10.49 8.34801 10.576C8.26201 10.662 8.21801 10.768 8.21801 10.892V10.998ZM1.98201 19.354C1.49401 19.354 1.07601 19.178 0.726012 18.828C0.376012 18.478 0.200012 18.06 0.200012 17.572V10.56L8.21801 12.564V13.562C8.21801 13.686 8.26201 13.792 8.34801 13.878C8.43401 13.964 8.54001 14.008 8.66401 14.008H11.336C11.46 14.008 11.566 13.964 11.652 13.878C11.738 13.792 11.782 13.686 11.782 13.562V12.564L19.8 10.562V17.574C19.8 18.062 19.624 18.48 19.274 18.83C18.924 19.18 18.504 19.356 18.018 19.356H1.98201V19.354Z" fill="white"/>
</svg>