<?xml version="1.0" encoding="UTF-8" standalone="no"?>
<!-- Created with Inkscape (http://www.inkscape.org/) -->

<svg
   width="200"
   height="200"
   viewBox="0 0 52.916666 52.916666"
   version="1.1"
   id="svg5"
   inkscape:version="1.1.2 (b8e25be833, 2022-02-05)"
   sodipodi:docname="shoes.svg"
   xmlns:inkscape="http://www.inkscape.org/namespaces/inkscape"
   xmlns:sodipodi="http://sodipodi.sourceforge.net/DTD/sodipodi-0.dtd"
   xmlns="http://www.w3.org/2000/svg"
   xmlns:svg="http://www.w3.org/2000/svg">
  <sodipodi:namedview
     id="namedview7"
     pagecolor="#505050"
     bordercolor="#eeeeee"
     borderopacity="1"
     inkscape:pageshadow="0"
     inkscape:pageopacity="0"
     inkscape:pagecheckerboard="0"
     inkscape:document-units="mm"
     showgrid="false"
     width="200mm"
     units="px"
     inkscape:zoom="1.5518659"
     inkscape:cx="72.493378"
     inkscape:cy="88.92521"
     inkscape:window-width="1857"
     inkscape:window-height="1057"
     inkscape:window-x="-8"
     inkscape:window-y="-8"
     inkscape:window-maximized="1"
     inkscape:current-layer="layer1" />
  <defs
     id="defs2">
    <inkscape:path-effect
       effect="bspline"
       id="path-effect858"
       is_visible="true"
       lpeversion="1"
       weight="33.333333"
       steps="2"
       helper_size="0"
       apply_no_weight="true"
       apply_with_weight="true"
       only_selected="false" />
    <inkscape:path-effect
       effect="bspline"
       id="path-effect854"
       is_visible="true"
       lpeversion="1"
       weight="33.333333"
       steps="2"
       helper_size="0"
       apply_no_weight="true"
       apply_with_weight="true"
       only_selected="false" />
    <inkscape:path-effect
       effect="bspline"
       id="path-effect739"
       is_visible="true"
       lpeversion="1"
       weight="33.333333"
       steps="2"
       helper_size="0"
       apply_no_weight="true"
       apply_with_weight="true"
       only_selected="false" />
    <inkscape:path-effect
       effect="bspline"
       id="path-effect735"
       is_visible="true"
       lpeversion="1"
       weight="33.333333"
       steps="2"
       helper_size="0"
       apply_no_weight="true"
       apply_with_weight="true"
       only_selected="false" />
    <inkscape:path-effect
       effect="bspline"
       id="path-effect294"
       is_visible="true"
       lpeversion="1"
       weight="33.333333"
       steps="2"
       helper_size="0"
       apply_no_weight="true"
       apply_with_weight="true"
       only_selected="false" />
    <inkscape:path-effect
       effect="bspline"
       id="path-effect266"
       is_visible="true"
       lpeversion="1"
       weight="33.333333"
       steps="2"
       helper_size="0"
       apply_no_weight="true"
       apply_with_weight="true"
       only_selected="false" />
    <inkscape:path-effect
       effect="spiro"
       id="path-effect3776"
       is_visible="true"
       lpeversion="1" />
    <inkscape:path-effect
       effect="spiro"
       id="path-effect3639"
       is_visible="true"
       lpeversion="1" />
    <inkscape:path-effect
       effect="bspline"
       id="path-effect7870"
       is_visible="true"
       lpeversion="1"
       weight="33.333333"
       steps="2"
       helper_size="0"
       apply_no_weight="true"
       apply_with_weight="true"
       only_selected="false" />
    <inkscape:path-effect
       effect="bspline"
       id="path-effect7851"
       is_visible="true"
       lpeversion="1"
       weight="33.333333"
       steps="2"
       helper_size="0"
       apply_no_weight="true"
       apply_with_weight="true"
       only_selected="false" />
    <inkscape:path-effect
       effect="bspline"
       id="path-effect7724"
       is_visible="true"
       lpeversion="1"
       weight="33.333333"
       steps="2"
       helper_size="0"
       apply_no_weight="true"
       apply_with_weight="true"
       only_selected="false" />
    <inkscape:path-effect
       effect="bspline"
       id="path-effect7602"
       is_visible="true"
       lpeversion="1"
       weight="33.333333"
       steps="2"
       helper_size="0"
       apply_no_weight="true"
       apply_with_weight="true"
       only_selected="false" />
    <inkscape:path-effect
       effect="bspline"
       id="path-effect7574"
       is_visible="true"
       lpeversion="1"
       weight="33.333333"
       steps="2"
       helper_size="0"
       apply_no_weight="true"
       apply_with_weight="true"
       only_selected="false" />
    <inkscape:path-effect
       effect="bspline"
       id="path-effect6748"
       is_visible="true"
       lpeversion="1"
       weight="33.333333"
       steps="2"
       helper_size="0"
       apply_no_weight="true"
       apply_with_weight="true"
       only_selected="false" />
    <inkscape:path-effect
       effect="bspline"
       id="path-effect6700"
       is_visible="true"
       lpeversion="1"
       weight="33.333333"
       steps="2"
       helper_size="0"
       apply_no_weight="true"
       apply_with_weight="true"
       only_selected="false" />
    <inkscape:path-effect
       effect="bspline"
       id="path-effect1271"
       is_visible="true"
       lpeversion="1"
       weight="33.333333"
       steps="2"
       helper_size="0"
       apply_no_weight="true"
       apply_with_weight="true"
       only_selected="false" />
    <inkscape:path-effect
       effect="bspline"
       id="path-effect1267"
       is_visible="true"
       lpeversion="1"
       weight="33.333333"
       steps="2"
       helper_size="0"
       apply_no_weight="true"
       apply_with_weight="true"
       only_selected="false" />
    <inkscape:path-effect
       effect="bspline"
       id="path-effect259"
       is_visible="true"
       lpeversion="1"
       weight="33.333333"
       steps="2"
       helper_size="0"
       apply_no_weight="true"
       apply_with_weight="true"
       only_selected="false" />
    <inkscape:path-effect
       effect="bspline"
       id="path-effect255"
       is_visible="true"
       lpeversion="1"
       weight="33.333333"
       steps="2"
       helper_size="0"
       apply_no_weight="true"
       apply_with_weight="true"
       only_selected="false" />
    <inkscape:path-effect
       effect="bspline"
       id="path-effect251"
       is_visible="true"
       lpeversion="1"
       weight="33.333333"
       steps="2"
       helper_size="0"
       apply_no_weight="true"
       apply_with_weight="true"
       only_selected="false" />
    <inkscape:path-effect
       effect="bspline"
       id="path-effect134"
       is_visible="true"
       lpeversion="1"
       weight="33.333333"
       steps="2"
       helper_size="0"
       apply_no_weight="true"
       apply_with_weight="true"
       only_selected="false" />
    <inkscape:path-effect
       effect="bspline"
       id="path-effect126"
       is_visible="true"
       lpeversion="1"
       weight="33.333333"
       steps="2"
       helper_size="0"
       apply_no_weight="true"
       apply_with_weight="true"
       only_selected="false" />
    <inkscape:path-effect
       effect="spiro"
       id="path-effect725"
       is_visible="true"
       lpeversion="1" />
    <inkscape:path-effect
       effect="bspline"
       id="path-effect721"
       is_visible="true"
       lpeversion="1"
       weight="33.333333"
       steps="2"
       helper_size="0"
       apply_no_weight="true"
       apply_with_weight="true"
       only_selected="false" />
    <inkscape:path-effect
       effect="bspline"
       id="path-effect717"
       is_visible="true"
       lpeversion="1"
       weight="33.333333"
       steps="2"
       helper_size="0"
       apply_no_weight="true"
       apply_with_weight="true"
       only_selected="false" />
    <inkscape:path-effect
       effect="bspline"
       id="path-effect713"
       is_visible="true"
       lpeversion="1"
       weight="33.333333"
       steps="2"
       helper_size="0"
       apply_no_weight="true"
       apply_with_weight="true"
       only_selected="false" />
    <inkscape:path-effect
       effect="bspline"
       id="path-effect709"
       is_visible="true"
       lpeversion="1"
       weight="33.333333"
       steps="2"
       helper_size="0"
       apply_no_weight="true"
       apply_with_weight="true"
       only_selected="false" />
    <inkscape:path-effect
       effect="bspline"
       id="path-effect697"
       is_visible="true"
       lpeversion="1"
       weight="33.333333"
       steps="2"
       helper_size="0"
       apply_no_weight="true"
       apply_with_weight="true"
       only_selected="false" />
    <inkscape:path-effect
       effect="bspline"
       id="path-effect655"
       is_visible="true"
       lpeversion="1"
       weight="33.333333"
       steps="2"
       helper_size="0"
       apply_no_weight="true"
       apply_with_weight="true"
       only_selected="false" />
    <inkscape:path-effect
       effect="bspline"
       id="path-effect547"
       is_visible="true"
       lpeversion="1"
       weight="33.333333"
       steps="2"
       helper_size="0"
       apply_no_weight="true"
       apply_with_weight="true"
       only_selected="false" />
    <inkscape:path-effect
       effect="bspline"
       id="path-effect539"
       is_visible="true"
       lpeversion="1"
       weight="33.333333"
       steps="2"
       helper_size="0"
       apply_no_weight="true"
       apply_with_weight="true"
       only_selected="false" />
    <inkscape:path-effect
       effect="bspline"
       id="path-effect497"
       is_visible="true"
       lpeversion="1"
       weight="33.333333"
       steps="2"
       helper_size="0"
       apply_no_weight="true"
       apply_with_weight="true"
       only_selected="false" />
    <inkscape:path-effect
       effect="bspline"
       id="path-effect399"
       is_visible="true"
       lpeversion="1"
       weight="33.333333"
       steps="2"
       helper_size="0"
       apply_no_weight="true"
       apply_with_weight="true"
       only_selected="false" />
    <inkscape:path-effect
       effect="bspline"
       id="path-effect338"
       is_visible="true"
       lpeversion="1"
       weight="33.333333"
       steps="2"
       helper_size="0"
       apply_no_weight="true"
       apply_with_weight="true"
       only_selected="false" />
    <inkscape:path-effect
       effect="bspline"
       id="path-effect230"
       is_visible="true"
       lpeversion="1"
       weight="33.333333"
       steps="2"
       helper_size="0"
       apply_no_weight="true"
       apply_with_weight="true"
       only_selected="false" />
    <inkscape:path-effect
       effect="bspline"
       id="path-effect226"
       is_visible="true"
       lpeversion="1"
       weight="33.333333"
       steps="2"
       helper_size="0"
       apply_no_weight="true"
       apply_with_weight="true"
       only_selected="false" />
    <inkscape:path-effect
       effect="bspline"
       id="path-effect222"
       is_visible="true"
       lpeversion="1"
       weight="33.333333"
       steps="2"
       helper_size="0"
       apply_no_weight="true"
       apply_with_weight="true"
       only_selected="false" />
    <inkscape:path-effect
       effect="bspline"
       id="path-effect180"
       is_visible="true"
       lpeversion="1"
       weight="33.333333"
       steps="2"
       helper_size="0"
       apply_no_weight="true"
       apply_with_weight="true"
       only_selected="false" />
    <inkscape:path-effect
       effect="bspline"
       id="path-effect72"
       is_visible="true"
       lpeversion="1"
       weight="33.333333"
       steps="2"
       helper_size="0"
       apply_no_weight="true"
       apply_with_weight="true"
       only_selected="false" />
    <inkscape:path-effect
       effect="bspline"
       id="path-effect68"
       is_visible="true"
       lpeversion="1"
       weight="33.333333"
       steps="2"
       helper_size="0"
       apply_no_weight="true"
       apply_with_weight="true"
       only_selected="false" />
    <inkscape:path-effect
       effect="bspline"
       id="path-effect64"
       is_visible="true"
       lpeversion="1"
       weight="33.333333"
       steps="2"
       helper_size="0"
       apply_no_weight="true"
       apply_with_weight="true"
       only_selected="false" />
  </defs>
  <g
     inkscape:label="Warstwa 1"
     inkscape:groupmode="layer"
     id="layer1">
    <g
       id="layer3"
       inkscape:label="Warstwa 3"
       style="display:inline"
       transform="matrix(0.34283243,0,0,0.34283243,-7.9205887,-20.348104)">
      <path
         style="fill:#ececec;stroke-width:0.252579"
         d="m 71.167621,175.67715 c -8.417319,-1.19522 -18.897726,-3.8298 -28.479823,-7.15931 -4.403852,-1.53021 -15.827947,-5.8703 -16.026329,-6.08849 -0.06469,-0.0711 0.124408,-0.85944 0.420217,-1.75177 2.051484,-6.18834 6.885898,-10.70496 13.981189,-13.06211 2.986675,-0.99221 5.738421,-1.56614 14.08902,-2.93851 4.106288,-0.67485 7.682733,-1.27708 7.947655,-1.3383 0.393861,-0.091 0.898795,0.59441 2.769634,3.75963 2.776789,4.69795 3.357412,5.2574 5.449395,5.25063 1.826753,-0.006 2.70455,-0.59742 3.175106,-2.13956 0.471181,-1.54418 0.208039,-2.40696 -1.774012,-5.81667 -0.993098,-1.70841 -1.775672,-3.1352 -1.739054,-3.17062 0.03662,-0.0354 0.96537,-0.31227 2.063883,-0.61522 1.098515,-0.30295 3.136249,-1.08177 4.528293,-1.7307 l 2.530993,-1.17987 1.492655,1.5194 c 2.302566,2.34384 4.648483,4.4612 5.444157,4.91375 0.950494,0.54062 2.089444,0.50995 3.273639,-0.0881 1.451375,-0.73304 1.926704,-1.45826 1.926704,-2.93961 0,-1.61716 -0.520248,-2.42002 -3.451701,-5.32672 l -2.247511,-2.22853 1.03864,-0.92713 c 0.571251,-0.50991 2.046613,-1.92019 3.278582,-3.13396 l 2.239936,-2.20683 3.034117,2.1689 c 4.660864,3.33176 5.510724,3.63644 7.446254,2.66957 1.32814,-0.66346 2.02819,-1.69554 2.02819,-2.99016 0,-2.03374 -0.99817,-3.15795 -5.4836,-6.1761 -1.082594,-0.72847 -1.97151,-1.41485 -1.975365,-1.5253 -0.0039,-0.11047 0.654161,-1.06407 1.462262,-2.11915 0.808103,-1.05507 1.969853,-2.70243 2.581683,-3.6608 l 1.11242,-1.74249 3.49947,1.26688 c 4.30162,1.55727 5.64297,1.78182 6.85736,1.14801 1.90024,-0.99179 2.78013,-3.43302 1.83498,-5.09109 -0.6803,-1.19342 -1.53932,-1.70383 -4.85385,-2.884 -1.57671,-0.56141 -2.86699,-1.11983 -2.86729,-1.24094 -7.9e-4,-0.32972 3.34543,-6.60653 6.19551,-11.621483 2.87534,-5.059382 3.69992,-6.998648 5.29899,-12.46224 0.62894,-2.148945 1.20658,-3.907172 1.28364,-3.907172 0.0771,0 1.48719,0.853014 3.13361,1.895587 8.69623,5.506742 16.63517,8.41703 28.04065,10.279252 7.30873,1.19333 12.59974,0.962911 17.47351,-0.760951 1.23974,-0.438499 2.30374,-0.742633 2.36446,-0.675858 0.0607,0.06678 -0.12794,2.893116 -0.41923,6.280756 -1.37108,15.945479 -4.34729,27.972089 -3.90744,35.658559 0.31453,5.49636 4.64942,11.50287 6.30252,18.91979 0.64945,2.91381 0.17849,0.12261 0.71957,3.76488 0.54109,3.64228 1.12787,7.57594 1.30396,8.74147 0.17609,1.16553 0.28435,2.16016 0.24058,2.21028 -0.0438,0.0501 -6.5088,0.43384 -14.36672,0.85267 -29.95375,1.59656 -33.12652,1.95855 -60.24285,6.87326 -13.303209,2.41115 -15.390895,2.67768 -21.84017,2.78842 -3.849071,0.0661 -6.468689,-0.0177 -8.188489,-0.2619 z m 86.867469,-74.90374 c 0.69862,-0.76841 0.88565,-1.199866 0.97792,-2.256066 0.20739,-2.373933 -1.0495,-4.056987 -3.17447,-4.250805 -2.30304,-0.210062 -3.75098,1.272465 -3.74777,3.837306 0.002,1.427276 0.51749,2.492665 1.59789,3.301015 0.53736,0.40207 0.99512,0.49357 2.08554,0.4169 1.22456,-0.0861 1.50371,-0.21555 2.26089,-1.04835 z m -28.77572,-1.908853 c 1.40607,-0.733863 1.79934,-2.465588 0.92012,-4.051609 -0.60692,-1.094817 -1.03639,-1.19695 -4.58112,-1.089409 0,0 -2.67663,0.147486 -2.86821,0.311379 -0.84085,0.515096 -0.81927,0.625093 -0.81927,0.625093 -1.44137,1.961031 -0.53153,4.156456 2.00025,4.683479 1.22466,0.25493 4.50499,-0.03883 5.34823,-0.478933 z"
         id="path921"
         sodipodi:nodetypes="sssssssssssssscssssscsscssssssscssssssssssssssssssssssssscsssssscssss" />
      <path
         style="fill:#ececec;stroke-width:0.910254"
         d="m 508.83185,730.06326 c -26.21269,-1.04943 -28.59763,-2.10816 -31.02107,-13.77103 -0.77135,-3.71218 -1.68503,-7.01131 -2.03039,-7.3314 -0.34536,-0.32008 -9.84424,1.41446 -21.10864,3.85454 -45.65491,9.88973 -79.65585,14.06764 -133.57401,16.41309 -37.42953,1.62819 -75.13512,-0.86257 -104.91247,-6.9303 -35.4147,-7.21645 -79.77812,-22.07087 -111.58604,-37.3629 -14.792822,-7.11182 -17.234127,-9.53941 -16.34369,-16.25185 0.745946,-5.62322 6.301565,-27.47433 7.937288,-31.21859 l 1.204325,-2.75676 25.487107,8.88977 c 44.11329,15.38649 72.42644,23.35603 107.86507,30.36171 11.26439,2.22679 25.80569,4.76595 32.31401,5.64258 15.57244,2.09749 43.5131,2.10891 61.60062,0.0252 12.91217,-1.48752 19.40257,-2.48389 80.39896,-12.34235 52.7204,-8.52087 81.3583,-12.25378 111.96122,-14.59399 32.05361,-2.45115 142.61491,-7.80362 144.69607,-7.005 3.88193,1.48963 5.30406,11.21899 6.9721,47.69864 0.71499,15.63662 0.80819,25.62185 0.26044,27.90319 -1.41995,5.91397 -3.60777,6.85429 -18.14962,7.80067 -17.2759,1.12431 -120.52875,1.83328 -141.97128,0.97482 z"
         id="path960"
         transform="scale(0.26458333)" />
    </g>
  </g>
</svg>
