<?xml version="1.0" encoding="UTF-8" standalone="no"?>
<!-- Created with Inkscape (http://www.inkscape.org/) -->

<svg
   width="200mm"
   height="200mm"
   viewBox="0 0 200 200"
   version="1.1"
   id="svg8652"
   inkscape:version="1.2.1 (9c6d41e410, 2022-07-14)"
   sodipodi:docname="kolor skurki.svg"
   xmlns:inkscape="http://www.inkscape.org/namespaces/inkscape"
   xmlns:sodipodi="http://sodipodi.sourceforge.net/DTD/sodipodi-0.dtd"
   xmlns="http://www.w3.org/2000/svg"
   xmlns:svg="http://www.w3.org/2000/svg">
  <sodipodi:namedview
     id="namedview8654"
     pagecolor="#505050"
     bordercolor="#eeeeee"
     borderopacity="1"
     inkscape:showpageshadow="0"
     inkscape:pageopacity="0"
     inkscape:pagecheckerboard="0"
     inkscape:deskcolor="#505050"
     inkscape:document-units="mm"
     showgrid="false"
     inkscape:zoom="0.67526655"
     inkscape:cx="635.30468"
     inkscape:cy="490.1768"
     inkscape:window-width="1857"
     inkscape:window-height="1057"
     inkscape:window-x="-8"
     inkscape:window-y="-8"
     inkscape:window-maximized="1"
     inkscape:current-layer="layer3" />
  <defs
     id="defs8649">
    <pattern
       id="EMFhbasepattern"
       patternUnits="userSpaceOnUse"
       width="6"
       height="6"
       x="0"
       y="0" />
  </defs>
  <g
     inkscape:label="Warstwa 1"
     inkscape:groupmode="layer"
     id="layer1"
     style="display:none">
    <path
       style="fill:none;stroke:#000000;stroke-width:3.175px;stroke-linecap:butt;stroke-linejoin:miter;stroke-miterlimit:10;stroke-dasharray:none;stroke-opacity:1"
       d="M 100.51459,3.3375886 C 83.316674,5.0132836 82.963894,19.300784 85.874314,32.794535 c 1.32292,5.909027 7.9375,8.202083 6.61458,8.202083"
       id="path9022" />
    <path
       style="fill:none;stroke:#000000;stroke-width:3.175px;stroke-linecap:butt;stroke-linejoin:miter;stroke-miterlimit:10;stroke-dasharray:none;stroke-opacity:1"
       d="m 92.488894,40.291062 c 0,6.35 -2.46944,11.641666 -4.23333,11.641666"
       id="path9024" />
    <path
       style="fill:none;stroke:#000000;stroke-width:3.175px;stroke-linecap:butt;stroke-linejoin:miter;stroke-miterlimit:10;stroke-dasharray:none;stroke-opacity:1"
       d="m 89.137504,51.756339 c 0,0 -15.698606,2.293056 -25.047216,3.792362"
       id="path9026" />
    <path
       style="fill:none;stroke:#000000;stroke-width:3.175px;stroke-linecap:butt;stroke-linejoin:miter;stroke-miterlimit:10;stroke-dasharray:none;stroke-opacity:1"
       d="m 64.090288,55.548701 c -6.879167,1.146527 -30.956251,4.7625 -30.956251,4.7625"
       id="path9028" />
    <path
       style="fill:none;stroke:#000000;stroke-width:3.175px;stroke-linecap:butt;stroke-linejoin:miter;stroke-miterlimit:10;stroke-dasharray:none;stroke-opacity:1"
       d="m 33.839593,60.223005 c -8.113889,1.5875 -5.468056,7.408334 -4.7625,8.466667 4.056944,6.085417 10.583333,10.583333 15.257638,10.583333"
       id="path9030" />
    <path
       style="fill:none;stroke:#000000;stroke-width:3.175px;stroke-linecap:butt;stroke-linejoin:miter;stroke-miterlimit:10;stroke-dasharray:none;stroke-opacity:1"
       d="M 160.92779,79.449395 128.64862,74.245922"
       id="path9032" />
    <path
       style="fill:none;stroke:#000000;stroke-width:3.175px;stroke-linecap:butt;stroke-linejoin:miter;stroke-miterlimit:10;stroke-dasharray:none;stroke-opacity:1"
       d="M 126.17918,188.9869 128.64862,72.834812"
       id="path9034" />
    <path
       style="fill:none;stroke:#000000;stroke-width:3.175px;stroke-linecap:butt;stroke-linejoin:miter;stroke-miterlimit:10;stroke-dasharray:none;stroke-opacity:1"
       d="m 126.17918,188.9869 c 0,4.14514 -1.14653,7.49653 -4.85069,7.49653"
       id="path9036" />
    <path
       style="fill:none;stroke:#000000;stroke-width:3.175px;stroke-linecap:butt;stroke-linejoin:miter;stroke-miterlimit:10;stroke-dasharray:none;stroke-opacity:1"
       d="m 111.80349,191.19176 c 2.99861,2.46945 4.85069,3.61597 9.525,5.29167"
       id="path9038" />
    <path
       style="fill:none;stroke:#000000;stroke-width:3.175px;stroke-linecap:butt;stroke-linejoin:miter;stroke-miterlimit:10;stroke-dasharray:none;stroke-opacity:1"
       d="M 105.98265,177.25704 105.2771,128.83829"
       id="path9040" />
    <path
       style="fill:none;stroke:#000000;stroke-width:3.175px;stroke-linecap:butt;stroke-linejoin:miter;stroke-miterlimit:10;stroke-dasharray:none;stroke-opacity:1"
       d="m 105.2771,128.83829 c 0,-2.29306 -1.05835,-4.14514 -2.29307,-4.14514"
       id="path9042" />
    <path
       style="fill:none;stroke:#000000;stroke-width:3.175px;stroke-linecap:butt;stroke-linejoin:miter;stroke-miterlimit:10;stroke-dasharray:none;stroke-opacity:1"
       d="m 118.68265,32.794535 c -1.32291,5.909027 -7.9375,8.202083 -6.61458,8.202083"
       id="path9044" />
    <path
       style="fill:none;stroke:#000000;stroke-width:3.175px;stroke-linecap:butt;stroke-linejoin:miter;stroke-miterlimit:10;stroke-dasharray:none;stroke-opacity:1"
       d="m 112.06807,40.291062 c 0,6.35 2.38125,11.641666 4.23333,11.641666"
       id="path9046" />
    <path
       style="fill:none;stroke:#000000;stroke-width:3.175px;stroke-linecap:butt;stroke-linejoin:miter;stroke-miterlimit:10;stroke-dasharray:none;stroke-opacity:1"
       d="m 115.41946,51.756339 c 0,0 15.69861,2.293056 25.04722,3.792362"
       id="path9048" />
    <path
       style="fill:none;stroke:#000000;stroke-width:3.175px;stroke-linecap:butt;stroke-linejoin:miter;stroke-miterlimit:10;stroke-dasharray:none;stroke-opacity:1"
       d="m 140.46668,55.548701 c 6.87916,1.146527 30.95625,4.7625 30.95625,4.7625"
       id="path9050" />
    <path
       style="fill:none;stroke:#000000;stroke-width:3.175px;stroke-linecap:butt;stroke-linejoin:miter;stroke-miterlimit:10;stroke-dasharray:none;stroke-opacity:1"
       d="m 170.71737,60.223005 c 8.0257,1.5875 5.46806,7.408334 4.7625,8.466667 -4.05694,6.085417 -10.58333,10.583333 -15.25764,10.583333"
       id="path9052" />
    <path
       style="fill:none;stroke:#000000;stroke-width:3.175px;stroke-linecap:butt;stroke-linejoin:miter;stroke-miterlimit:10;stroke-dasharray:none;stroke-opacity:1"
       d="m 105.98265,177.25704 c 0,3.70417 0.70556,9.70139 5.82084,13.93472"
       id="path9054" />
    <path
       style="fill:none;stroke:#000000;stroke-width:3.175px;stroke-linecap:butt;stroke-linejoin:miter;stroke-miterlimit:10;stroke-dasharray:none;stroke-opacity:1"
       d="m 104.04237,3.3375886 c 17.19792,1.675695 17.5507,15.9631954 14.64028,29.4569464"
       id="path9056" />
    <path
       style="fill:none;stroke:#000000;stroke-width:3.175px;stroke-linecap:butt;stroke-linejoin:miter;stroke-miterlimit:10;stroke-dasharray:none;stroke-opacity:1"
       d="m 101.13195,124.69315 c 0,0 0.97014,0 2.11667,0"
       id="path9058" />
    <path
       style="fill:none;stroke:#000000;stroke-width:3.175px;stroke-linecap:butt;stroke-linejoin:miter;stroke-miterlimit:10;stroke-dasharray:none;stroke-opacity:1"
       d="M 43.188204,79.449395 75.467371,74.245922"
       id="path9060" />
    <path
       style="fill:none;stroke:#000000;stroke-width:3.175px;stroke-linecap:butt;stroke-linejoin:miter;stroke-miterlimit:10;stroke-dasharray:none;stroke-opacity:1"
       d="M 77.936815,188.9869 75.379175,72.834812"
       id="path9062" />
    <path
       style="fill:none;stroke:#000000;stroke-width:3.175px;stroke-linecap:butt;stroke-linejoin:miter;stroke-miterlimit:10;stroke-dasharray:none;stroke-opacity:1"
       d="m 77.936815,188.9869 c 0,4.14514 1.146527,7.49653 4.850689,7.49653"
       id="path9064" />
    <path
       style="fill:none;stroke:#000000;stroke-width:3.175px;stroke-linecap:butt;stroke-linejoin:miter;stroke-miterlimit:10;stroke-dasharray:none;stroke-opacity:1"
       d="m 98.133344,177.25704 c 0,3.70417 -0.70556,9.70139 -5.82084,13.93472 -2.99861,2.46945 -4.85069,3.61597 -9.525,5.29167"
       id="path9066" />
    <path
       style="fill:none;stroke:#000000;stroke-width:3.175px;stroke-linecap:butt;stroke-linejoin:miter;stroke-miterlimit:10;stroke-dasharray:none;stroke-opacity:1"
       d="m 98.133344,177.25704 0.61736,-48.41875"
       id="path9068" />
    <path
       style="fill:none;stroke:#000000;stroke-width:3.175px;stroke-linecap:butt;stroke-linejoin:miter;stroke-miterlimit:10;stroke-dasharray:none;stroke-opacity:1"
       d="m 98.750704,128.83829 c 0,-2.29306 1.05833,-4.14514 2.381246,-4.14514"
       id="path9070" />
    <path
       style="fill:none;stroke:#000000;stroke-width:3.175px;stroke-linecap:butt;stroke-linejoin:miter;stroke-miterlimit:10;stroke-dasharray:none;stroke-opacity:1"
       d="m 82.434734,197.27718 c 0,-0.44097 0.17639,-0.79375 0.35277,-0.79375"
       id="path9072" />
    <path
       style="fill:none;stroke:#000000;stroke-width:3.175px;stroke-linecap:butt;stroke-linejoin:miter;stroke-miterlimit:10;stroke-dasharray:none;stroke-opacity:1"
       d="m 120.44654,195.95426 c 0,0.26458 0.61736,0.52917 1.32292,0.52917"
       id="path9074" />
    <rect
       style="fill:#f2f2f2;stroke:#f2f2f2;stroke-width:2.38125"
       id="rect9160"
       width="5.6813984"
       height="0.68568599"
       x="99.718338"
       y="3.0366096"
       rx="7.4407067" />
    <path
       style="fill:none;fill-opacity:1;stroke:#000000;stroke-width:2.38125;stroke-linecap:butt;stroke-linejoin:miter;stroke-dasharray:none;stroke-opacity:1"
       d="M 102.26517,3.1345645 V 124.59894"
       id="path9225" />
  </g>
  <g
     inkscape:groupmode="layer"
     id="layer3"
     inkscape:label="Warstwa 2"
     style="display:inline">
    <path
       style="fill:#f2f2f2;fill-opacity:1;stroke:#f2f2f2;stroke-width:2.54377;stroke-dasharray:none"
       d="m 118.72513,193.76415 c -2.8108,-1.22705 -4.70747,-2.48232 -7.02152,-4.647 -2.13726,-1.99931 -3.38533,-4.17209 -4.179,-7.27528 -0.52651,-2.05866 -0.58973,-3.94277 -0.97545,-29.06826 -0.28612,-18.63831 -0.51305,-27.16718 -0.74096,-27.84732 -0.43556,-1.29982 -1.55936,-2.78217 -2.3994,-3.16491 l -0.67747,-0.30868 V 61.282752 1.1128067 l 1.0599,0.1776746 c 8.07844,1.3542107 12.11075,4.9326653 13.52005,11.9983147 0.59462,2.981144 0.4215,8.573188 -0.40381,13.043873 -0.89696,4.858735 -1.73635,6.257642 -5.36505,8.941187 l -2.08787,1.544054 0.19014,2.1571 c 0.4252,4.823701 2.00932,9.346116 3.8022,10.854735 0.46921,0.394805 1.33447,0.792512 1.92281,0.883797 0.58835,0.09128 6.09365,0.927435 12.23403,1.858117 35.77669,5.422591 44.23658,6.80441 45.50517,7.432723 2.56604,1.27091 2.73252,3.41402 0.49683,6.395737 -2.87221,3.830663 -7.26162,7.208484 -10.74034,8.265113 l -1.95792,0.594693 -16.01592,-2.581059 C 136.08278,71.259284 128.33506,70.098929 127.67438,70.1003 l -1.20122,0.0024 -0.002,1.201222 c -8.2e-4,0.660674 -0.57163,27.827436 -1.2682,60.370568 -0.81174,37.9243 -1.37751,59.58172 -1.57573,60.31783 -0.31887,1.18423 -1.62883,2.75764 -2.29082,2.75155 -0.20627,-0.002 -1.38148,-0.44281 -2.61157,-0.97981 z"
       id="path9846" />
    <path
       style="fill:none;fill-opacity:1;stroke:#f2f2f2;stroke-width:2.42922;stroke-dasharray:none"
       d="m 82.501881,194.33151 c -1.112366,-0.60502 -1.449413,-1.68475 -1.722979,-5.51955 -0.138622,-1.94316 -0.760153,-28.14397 -1.381179,-58.22402 -0.621026,-30.08006 -1.20269,-55.994688 -1.292585,-57.588076 l -0.163441,-2.89707 h -1.0725 c -0.589872,0 -8.177138,1.14965 -16.860593,2.554778 -17.367519,2.810357 -16.621531,2.764396 -19.709046,1.214308 -3.374563,-1.694198 -7.56839,-5.425266 -9.471836,-8.426692 -0.983313,-1.550523 -1.171038,-3.281149 -0.465224,-4.28884 0.937276,-1.338149 2.512026,-1.705151 16.723372,-3.897437 7.595749,-1.171745 18.707204,-2.886257 24.692123,-3.810026 5.984921,-0.92377 12.645829,-1.937955 14.80202,-2.253741 2.159616,-0.316287 4.224932,-0.773732 4.598525,-1.018514 1.159188,-0.759532 2.337038,-2.681392 3.074956,-5.017318 0.898781,-2.845152 1.615091,-7.47384 1.259445,-8.138368 C 95.36925,36.752456 94.371711,35.880437 93.29619,35.083117 89.961839,32.611259 89.062462,30.998013 88.137564,25.829878 87.352808,21.444824 87.279354,15.154598 87.979972,12.334753 89.567398,5.9457114 93.624128,2.5677053 101.2433,1.2904813 l 1.05991,-0.052764 -0.0103,60.0197437 -0.0102,60.144649 -1.18497,0.56528 c -0.89584,0.42736 -1.358856,0.90819 -1.897585,1.97064 l -0.712608,1.40536 -0.211159,14.84649 c -0.590974,41.55092 -0.591187,41.55503 -2.336658,45.12264 -1.543629,3.15507 -5.662566,6.62057 -10.08646,8.48633 -2.561766,1.08042 -2.393474,1.05367 -3.351399,0.53266 z"
       id="path9848"
       sodipodi:nodetypes="sssscssssssssssssssscccsscssss" />
  </g>
</svg>
