<?xml version="1.0" encoding="UTF-8" standalone="no"?>
<!-- Created with Inkscape (http://www.inkscape.org/) -->

<svg
   width="200"
   height="200"
   viewBox="0 0 52.916666 52.916666"
   version="1.1"
   id="svg5"
   inkscape:version="1.1.2 (b8e25be833, 2022-02-05)"
   sodipodi:docname="tshirt.svg"
   xmlns:inkscape="http://www.inkscape.org/namespaces/inkscape"
   xmlns:sodipodi="http://sodipodi.sourceforge.net/DTD/sodipodi-0.dtd"
   xmlns="http://www.w3.org/2000/svg"
   xmlns:svg="http://www.w3.org/2000/svg">
  <sodipodi:namedview
     id="namedview7"
     pagecolor="#505050"
     bordercolor="#eeeeee"
     borderopacity="1"
     inkscape:pageshadow="0"
     inkscape:pageopacity="0"
     inkscape:pagecheckerboard="0"
     inkscape:document-units="mm"
     showgrid="false"
     width="200mm"
     units="px"
     inkscape:zoom="2.1946698"
     inkscape:cx="54.450105"
     inkscape:cy="184.08236"
     inkscape:window-width="1857"
     inkscape:window-height="1057"
     inkscape:window-x="-8"
     inkscape:window-y="-8"
     inkscape:window-maximized="1"
     inkscape:current-layer="layer1" />
  <defs
     id="defs2" />
  <g
     inkscape:label="Warstwa 1"
     inkscape:groupmode="layer"
     id="layer1">
    <path
       style="fill:#ececec;stroke-width:0.0951164"
       d="m 19.151964,52.636749 c -1.650861,-0.03499 -3.415493,-0.115284 -3.921401,-0.17842 -1.121969,-0.14002 -2.732424,-0.451378 -2.81428,-0.544098 -0.03297,-0.0374 0.141195,-7.741514 0.387034,-17.120378 l 0.726876,-17.45481 -1.384251,-3.201514 c -1.74095,-4.026495 -1.342198,-2.460269 -1.342198,-2.460269 0,0 0.269849,0.532 0.962993,2.508311 l 1.260262,3.593296 -0.383011,0.588609 c -0.210656,0.323737 -0.542527,0.883212 -0.737492,1.24328 -0.308193,0.56919 -1.280531,1.854546 -2.252104,2.97711 L 9.3551694,22.933591 5.2972793,20.91197 C 3.0654392,19.800071 1.2020714,18.856513 1.1564625,18.815157 1.0782313,18.744227 3.3075266,14.822995 6.1963666,9.9501533 9.0434721,5.1477089 9.5084729,4.7368066 13.025867,3.9152078 16.026918,3.2142181 17.407473,2.534293 19.572527,1.4489865 l 1.438848,-0.65979742 2.838324,-0.11422234 c 4.068671,-0.16373394 7.718349,-0.0977341 8.179957,0.0221145 0.213015,0.0553019 1.476575,0.62274696 2.807917,1.26098046 l 2.420619,1.1604268 2.275381,0.5595113 c 2.597175,0.6386408 3.293222,0.9248694 4.292485,1.7651606 1.405655,1.1820284 1.547611,1.3963959 4.995774,7.5443586 1.777209,3.168707 3.187327,5.784641 3.140986,5.826917 -0.118678,0.108253 -7.613728,4.213578 -7.638489,4.18389 -0.795494,-0.953775 -2.902866,-3.727697 -3.076837,-4.043045 -0.12699,-0.230181 -0.689197,-1.445256 -0.689197,-1.445256 l -0.0051,-0.01243 1.245626,-3.447981 c 0.709745,-1.964623 1.220787,-3.62795 1.220672,-3.666493 -9.9e-5,-0.03855 -0.128753,-0.100398 -0.08987,-0.07008 0.08987,0.07008 -0.783382,1.659989 -1.545992,3.620726 l -1.283161,3.299115 0.921035,17.307708 c 0.496816,9.335971 0.622656,17.027082 0.590582,17.077172 -0.128461,0.200587 -0.848126,0.46594 -1.611245,0.594103 -2.66927,0.448276 -11.374224,0.625672 -20.848863,0.424856 z m 8.57957,-47.4388965 c 1.685724,-0.1616082 3.052624,-0.4733118 3.747647,-1.1476502 0.67177,-0.65178 0.912885,-1.1286215 0.964708,-1.9078497 0.077,-1.15785296 0.294238,-1.0800166 -3.007702,-1.0776527 -3.116714,0.00219 -8.191237,0.147228 -8.440533,0.2395458 -0.207219,0.076737 -0.375403,0.8968717 -0.188898,1.5202026 0.131511,0.4395289 0.186694,0.5182877 0.506352,0.9088837 0.207634,0.2537108 0.350078,0.3702814 0.617718,0.5455375 0.407991,0.2671591 1.066177,0.4902324 1.410559,0.6085548 0.811443,0.2787941 2.763458,0.4663755 4.390149,0.3104282 z"
       id="path26305"
       sodipodi:nodetypes="sssscscscssscssssscssscssssssccscsscssscssscsssssss" />
  </g>
</svg>
