<svg style="transform: rotate(180deg)" viewBox="0 0 1024 1024" xmlns="http://www.w3.org/2000/svg">
    <path d="M751.219,1024.5C751.219,1024.5,737.629,1024.5,737.629,1024.5C712.151,1024.5,688.271,1012.002,673.751,991.062C673.751,991.062,624.445,919.952,624.445,919.952C598.603,882.682,557.771,861.31,512.423,861.31C512.415,861.31,512.405,861.31,512.397,861.31C467.035,861.318,426.203,882.706,400.369,919.992C400.369,919.992,351.135,991.04,351.135,991.04C336.614,1011.992,312.732,1024.5,287.244,1024.5C287.244,1024.5,278.914,1024.5,278.914,1024.5C270.764,1024.5,264.496,1017.286,265.62,1009.214C266.636,1001.932,267.444,996.158,267.664,994.664C277.974,937.07,307.586,880.376,348.944,839.058C381.209,806.826,436.159,768.403,514.729,768.403C592.467,768.403,646.613,806.712,678.345,838.846C719.061,880.084,748.717,935.884,761.849,995.976C761.999,996.696,762.993,1001.59,764.375,1008.394C766.057,1016.708,759.703,1024.5,751.219,1024.5C751.219,1024.5,751.219,1024.5,751.219,1024.5M634.961,261.793C634.961,261.793,916.81,261.793,916.81,261.793C924.224,261.793,930.234,267.803,930.234,275.217C930.234,275.217,930.234,302.989,930.234,302.989C930.234,310.403,924.224,316.413,916.81,316.413C916.81,316.413,634.959,316.413,634.959,316.413C618.773,316.413,604.845,328.851,604.085,345.019C603.271,362.281,617.027,376.531,634.111,376.531C634.111,376.531,916.81,376.531,916.81,376.531C924.224,376.531,930.234,382.541,930.234,389.955C930.234,389.955,930.234,415.211,930.234,415.211C930.234,422.625,924.224,428.635,916.81,428.635C916.81,428.635,634.959,428.635,634.959,428.635C618.773,428.635,604.845,441.073,604.085,457.241C603.271,474.503,617.027,488.753,634.111,488.753C634.111,488.753,916.81,488.753,916.81,488.753C924.224,488.753,930.234,494.763,930.234,502.177C930.234,502.177,930.234,592.687,930.234,592.687C930.234,592.687,927.018,599.069,927.018,599.069C898.01,656.615,882.328,721.091,881.666,785.528C881.004,849.964,895.36,914.752,923.176,972.87C928.696,984.392,927.766,997.772,920.65,1008.454C913.812,1018.714,901.966,1024.5,889.642,1024.5C889.642,1024.5,839.951,1024.5,839.951,1024.5C833.565,1024.5,828.059,1019.994,826.793,1013.732C821.399,987.086,820.711,983.74,820.579,983.136C805.051,912.076,769.729,845.83,721.119,796.604C664.063,738.821,592.693,708.281,514.725,708.281C436.257,708.281,364.235,738.795,306.45,796.526C256.502,846.424,220.77,914.928,208.412,984.47C208.236,985.458,207.99,987.132,204.406,1012.91C203.486,1019.546,197.812,1024.5,191.11,1024.5C191.11,1024.5,134.396,1024.5,134.396,1024.5C124.236,1024.5,114.298,1020.624,107.352,1013.21C97.42,1002.61,94.864,987.538,100.312,974.52C100.312,974.52,109.312,953.022,109.312,953.022C154.12,846.01,152.886,723.791,105.928,617.705C105.928,617.705,94.502,591.893,94.502,591.893C94.502,591.893,94.502,500.919,94.502,500.919C94.502,493.505,100.512,487.495,107.926,487.495C107.926,487.495,389.205,487.495,389.205,487.495C405.391,487.495,419.319,475.057,420.079,458.889C420.893,441.627,407.137,427.377,390.053,427.377C390.053,427.377,107.924,427.377,107.924,427.377C100.51,427.377,94.5,421.367,94.5,413.953C94.5,413.953,94.5,388.697,94.5,388.697C94.5,381.283,100.51,375.273,107.924,375.273C107.924,375.273,389.203,375.273,389.203,375.273C405.389,375.273,419.317,362.835,420.077,346.667C420.891,329.405,407.135,315.155,390.051,315.155C390.051,315.155,107.924,315.155,107.924,315.155C100.51,315.155,94.5,309.145,94.5,301.731C94.5,301.731,94.5,273.959,94.5,273.959C94.5,266.545,100.51,260.535,107.924,260.535C107.924,260.535,389.203,260.535,389.203,260.535C405.389,260.535,419.317,248.096,420.077,231.928C420.891,214.666,407.135,200.416,390.051,200.416C390.051,200.416,107.924,200.416,107.924,200.416C100.51,200.416,94.5,194.406,94.5,186.992C94.5,186.992,94.5,130.78,94.5,130.78C94.5,95.828,117.496,65.042,151.012,55.126C151.012,55.126,165.336,50.888,165.336,50.888C278.862,17.292,395.591,0.5,512.365,0.5C629.107,0.5,745.893,17.3,859.391,50.888C859.391,50.888,873.72,55.128,873.72,55.128C907.236,65.046,930.232,95.832,930.232,130.782C930.232,130.782,930.232,188.252,930.232,188.252C930.232,195.666,924.222,201.676,916.808,201.676C916.808,201.676,634.111,201.676,634.111,201.676C634.111,201.676,634.111,201.678,634.111,201.678C617.027,201.678,603.273,215.928,604.085,233.19C604.847,249.354,618.775,261.793,634.961,261.793C634.961,261.793,634.961,261.793,634.961,261.793" fill="white" />
</svg>