<svg style="transform: rotate(180deg)" viewBox="0 0 1024 1024" xmlns="http://www.w3.org/2000/svg">
    <path d="M677.282,466.245C677.282,466.245,593.417,621.995,593.417,621.995C593.417,621.995,474.824,371.634,474.824,371.634C464.734,350.334,435.059,348.484,422.406,368.37C422.406,368.37,336.472,503.406,336.472,503.406C336.472,503.406,313.448,465.033,313.448,465.033C308.026,455.997,298.263,450.47,287.726,450.47C287.726,450.47,97.484,450.47,97.484,450.47C103.448,444.228,71.664,475.948,490.55,59.232C502.25,47.59,521.162,47.588,532.863,59.232C945.304,469.536,919.978,444.24,925.929,450.47C925.929,450.47,703.694,450.47,703.694,450.47C692.659,450.468,682.514,456.527,677.282,466.245C677.282,466.245,677.282,466.245,677.282,466.245M511.709,889.507C288.508,1084.728,4.711,913.201,0.058,680.668C-1.128,621.407,15.979,563.681,50.03,510.463C50.03,510.463,270.741,510.463,270.741,510.463C270.741,510.463,309.998,575.894,309.998,575.894C321.397,594.891,348.983,595.503,361.028,576.564C361.028,576.564,443.856,446.408,443.856,446.408C443.856,446.408,564.593,701.291,564.593,701.291C575.122,723.531,606.502,724.237,618.115,702.671C618.115,702.671,721.611,510.463,721.611,510.463C721.611,510.463,973.388,510.463,973.388,510.463C1159.898,801.961,791.292,1134.038,511.709,889.507C511.709,889.507,511.709,889.507,511.709,889.507" fill="white" />
</svg>