<svg style="transform: rotate(180deg)" viewBox="0 0 1024 1024" xmlns="http://www.w3.org/2000/svg">
    <path d="M753.331,715.831C753.331,715.831,753.329,715.831,753.329,715.831C696.544,724.997,639.804,710.589,593.583,675.272C545.606,638.61,478.58,638.61,430.599,675.272C393.465,703.647,349.544,718.525,304.259,718.525C293.179,718.525,282.017,717.635,270.853,715.833C154.526,697.067,74.795,584.105,93.121,464.02C126.457,245.579,189.636,96.919,275.833,34.108C316.14,4.74,360.684,-5.504,412.021,2.772C443.483,7.848,468.335,20.664,488.002,41.956C500.984,56.011,523.196,56.011,536.178,41.956C555.843,20.664,580.697,7.848,612.159,2.772C663.496,-5.516,708.044,4.738,748.347,34.108C834.546,96.919,897.723,245.579,931.059,464.02C949.385,584.103,869.656,697.065,753.331,715.831C753.331,715.831,753.331,715.831,753.331,715.831M754.177,925.197C747.647,942.086,728.665,950.492,711.764,943.958C706.596,941.96,625.357,909.659,561.197,834.25C558.793,846.12,555.435,858.069,550.889,869.913C512.712,969.366,407.837,1018.891,403.391,1020.953C386.61,1028.727,366.722,1021.093,359.452,1004.086C357.526,999.578,312.728,892.597,350.904,793.144C354.352,784.166,358.38,775.634,362.79,767.469C401.257,758.953,437.845,741.991,470.422,717.099C494.954,698.349,529.23,698.349,553.765,717.099C559.497,721.479,565.393,725.639,571.441,729.573C588.499,767.043,615.159,800.942,651.252,830.818C694.266,866.423,735.083,882.653,735.415,882.783C752.307,889.315,760.709,908.303,754.177,925.197C754.177,925.197,754.177,925.197,754.177,925.197" fill="white" />
</svg>