<svg viewBox="0 0 485.021 485.02" xmlns="http://www.w3.org/2000/svg">
    <path d="M448.953 278.214c-32.771-59.499-100.506-128.657-138.716-128.657-2.397 0-4.692.27-6.815.811-13.386 3.403-21.562 12.407-26.324 22.701 0 0-11.133-5.795-11.133-12.849V18.469a4.41 4.41 0 0 0-4.41-4.41H223.463a4.41 4.41 0 0 0-4.409 4.41V160.22c0 7.446-11.134 12.849-11.134 12.849-4.765-10.294-12.938-19.298-26.321-22.701-2.123-.541-4.419-.811-6.82-.811-38.208 0-105.939 69.158-138.714 128.657-28.63 51.973-40.304 103.495-34.7 153.131 2.466 21.845 28.022 39.616 56.97 39.616 14.983 0 43.402-4.881 67.454-37.109 5.53.56 10.857.842 15.876.842h.007c23.904 0 42.224-6.365 54.449-18.925 18.564-19.066 17.507-50.058 17.507-58.579 0-8.522.055-118.062.055-125.583s22.415-31.771 28.828-31.771 28.849 22.962 28.826 31.771c-.023 8.809.055 116.593.055 125.583 0 8.989-1.06 39.513 17.506 58.579 12.229 12.56 30.547 18.925 54.451 18.925h.008c5.019 0 10.347-.282 15.877-.842 24.052 32.229 52.468 37.109 67.453 37.109 28.945 0 54.502-17.771 56.972-39.616 5.599-49.636-6.077-101.158-34.706-153.131z" fill="white" />
</svg>