<svg style="transform: rotate(180deg)" viewBox="0 0 1024 1024" xmlns="http://www.w3.org/2000/svg">
    <path d="M736,528C736,563.712,716.224,594.56,687.296,611.072C714.944,618.112,736,642.176,736,672C736.016,681.756,733.618,691.362,729.024,699.968C712.832,756.224,676.416,803.072,627.968,832C627.968,832,396.032,832,396.032,832C347.52,803.072,311.168,756.224,294.912,699.968C290.382,691.34,288.01,681.744,288,672C288,642.24,309.056,618.176,336.704,611.136C307.776,594.56,288,563.712,288,528C288,492.224,307.776,461.44,336.768,444.864C308.992,437.888,288,413.888,288,384C288,384,288,64,288,64C288,28.672,316.672,0,352,0C352,0,672,0,672,0C707.328,0,736,28.672,736,64C736,64,736,384,736,384C736,413.952,715.008,437.952,687.232,444.928C716.224,461.44,736,492.224,736,528C736,528,736,528,736,528M608,1024C608,1024,416,1024,416,1024C398.336,1024,384,1009.664,384,992C384,992,384,928,384,928C384,910.336,398.336,896,416,896C416,896,608,896,608,896C625.664,896,640,910.336,640,928C640,928,640,992,640,992C640,1009.664,625.664,1024,608,1024C608,1024,608,1024,608,1024" fill="white" />
</svg>